<svg viewBox="0 0 235 125" stroke-dasharray="780" stroke-dashoffset="780">
<path d="M206.6,20.8c-0.6-0.6-0.6-1.1-1.7-1.7c-1.1-0.6-1.7-1.7-2.2-0.6c-0.6,1.1-1.1,0-2.2,1.1c-1.1,1.1-1.1,1.7-1.7,2.2
    c-0.6,0.6-2.8,1.1-3.3,0.6c-0.6-0.6,1.1-1.1,0.6-1.7c-0.6-0.6-1.7,0-2.2-0.6c-0.6-0.6-1.1-1.7-1.7-2.2c-0.6-0.6-3.3-1.1-3.9-0.6
    c-0.6,0.6-1.1,0.6-2.2,0c-1.1-0.6-2.8,0-2.8,0.6c0,0.6-0.6,1.1-1.1,1.7c-0.6,0.6-2.2,0.6-2.8,0.6s-2.2-0.6-2.2-0.6s-1.1,0.6-1.7,0.6
    s-2.8,0-3.9-0.6c-1.1-0.6-0.6-1.7-1.1-2.8s-0.6-2.8-0.6-2.8s0-0.6-1.1-1.1c-1.1-0.6-1.1-1.7-2.2-1.7c-1.1,0-2.8,0.6-2.8,1.1
    s-1.7,0.6-2.2,1.1c-0.6,0.6-1.7,1.7-2.8,1.1c-1.1-0.6-1.7,1.1-2.2,0.6c-0.6-0.6-1.7-0.6-2.2-1.1c-0.6-0.6-2.2-1.1-2.8-1.7
    c-0.6-0.6-1.7-1.7-2.8-1.1c-1.1,0.6-1.7,0.6-2.2,1.7s-1.7,3.3-2.2,2.8c-0.6-0.6-2.2,1.1-2.2,1.7c0,0.6,0.6,2.2,0,2.8
    c-0.6,0.6-1.1,2.8-2.2,2.2c-1.1-0.6-2.2-1.1-2.8,0c-0.6,1.1,0,1.1,0,2.2s-0.6,1.7-1.1,2.2c-0.6,0.6-1.1,1.7-2.2,1.1
    c-1.1-0.6-1.7,0.6-2.8,0c-1.1-0.6-2.8-1.1-2.8-2.2s0.6-2.8,0-3.3c-0.6-0.6-0.6-1.1-2.2-1.1c-1.7,0-2.2,0.6-3.3,0.6s-2.8,0-2.8-1.1
    s-1.7-1.1-1.7-2.2s-1.1-2.8-2.2-2.2c-1.1,0.6-2.2-0.6-1.7-2.2c0.6-1.7-0.6-1.1-0.6-2.2s0-2.8-0.6-3.9c-0.6-1.1-1.1-2.2-2.2-2.2
    s-1.7-0.6-2.8-1.7c-0.6-0.6-1.1-0.9-1.5-1.5c-0.2,0-0.3,0.1-0.4,0.2L107.1,3c0,0.1,0,0.1-0.1,0.1c0,0.1-0.1,0.1-0.1,0.1
    c-0.1,0.1-0.2,0.1-0.3,0.2c-0.1,0.1-0.2,0.1-0.2,0.1s-0.1,0-0.2,0c0.2,0.3,0.4,0.6,0.6,0.8c0.5,1,0.6,2.2,0,3.3
    c-0.6,1.1-1.7,2.2-2.2,3.3c-0.6,1.1,0,2.2-1.1,2.2s0,1.7-2.8,1.7s-3.9-0.6-4.4,0.6s-1.1,1.7-1.1,2.8c0,1.1,0,2.2-0.6,2.8
    c-0.6,0.6-1.7,2.2-1.1,3.3c0.6,1.1-1.1,3.3-0.6,4.4c0.6,1.1,1.1,3.9,0.6,5c-0.6,1.1-0.6,2.8-2.2,2.8c-1.7,0-0.6,2.8-2.2,2.2
    s-3.3-0.6-4.4-0.6s-1.7-1.1-2.2,0c-0.6,1.1-0.6,2.2-1.7,2.8s-2.2,1.1-2.2,2.2c0,1.1-1.1,0.6-1.7,1.7c-0.6,1.1,0,2.8-0.6,3.3
    s0,1.1,0,2.2c0,1.1-0.6,3.9,0,4.4c0.6,0.6,0,2.2-0.6,2.8c-0.6,0.6-1.7,3.3-2.8,2.8s-3.3-1.1-3.9,0c-0.6,1.1-1.7,0.6-3.3,1.1
    s-3.9-0.6-4.4,0.6c-0.6,1.1,0,1.1-0.6,1.7c-0.6,0.6-1.7,1.7-1.7,2.2c0,0.6,0.6,1.7,0,2.8c-0.6,1.1-2.2,1.1-1.7,2.2s0.6,1.1,0,1.7
    s-0.6,2.2-1.7,2.2c-1.1,0-3.3,1.7-3.9,1.1c-0.6-0.6-1.7,2.2-3.3,1.7c-1.7-0.6-3.3,0.6-5.5,0.6s-5,0.6-5.5-0.6
    c-0.6-1.1-2.2-1.7-1.7-2.8c0.6-1.1-0.6-1.1-0.6-2.2s0-2.2,0.6-3.3c0.2-0.4,0-1.1,0-1.1c0.1-0.4,0.4-1.2,0-1.7
    c-0.6-0.6-2.2-0.6-2.2-1.7c0-1.1-1.1-0.6-1.7-1.1c-0.6-0.6-1.7-0.6-2.2-0.6c-0.6,0-1.7-0.6-2.2-0.6c-0.6,0-2.8,0.6-2.8,1.1
    s-2.2,0.6-2.8,0s-1.7,0.6-2.2-1.1c-0.6-1.7-1.1-0.6-1.7-1.1c-0.6-0.6-1.1-1.7-1.7-2.8c-0.6-1.1-1.1-3.3,0-3.9
    c1.1-0.6,1.1-2.2,1.1-2.8c0-0.6,1.1,0,1.1-1.1c0-1.1,0-3.3,0.6-3.9c0.6-0.6,1.1-2.2,0.6-3.3c-0.6-1.1-1.7-0.6-2.2-1.7
    c-0.6-1.1-0.6-1.1-1.7-1.1s-2.2-1.7-2.8-1.1c-0.6,0.6-0.6,1.1-1.1,1.1s-1.1,0-1.1,0.6s-0.6,1.1,0,1.7c0.6,0.6,1.1,2.2,0.6,2.2
    s-2.8,1.7-3.3,0.6c-0.6-1.1-0.6-2.2-1.1-2.2S5,43.4,5,43.9s-0.6,0-1.1,0.6c-0.6,0.6-1.1,0-1.1,0.6c0,0.6-0.6,1.1,0.6,1.1
    S5,47.2,5,47.8s-0.6,0-0.6,0.6S5,50,5.6,50s1.1,0,1.1,0.6s-0.6,1.1,0,1.7c0.6,0.6,1.7,1.1,1.1,1.7c-0.6,0.6-1.7,2.2-2.2,2.2
    s-1.1-0.6-1.1,0s-0.6,1.1-0.6,1.1s-1.1,0.6-0.6,1.1s0,1.1,0,1.1s-0.6,1.1,0,1.7s2.2,1.1,2.2,1.1s1.1,1.7,1.1,2.8
    c0,1.1-0.6,3.9-1.1,4.4C5,69.8,5,69.3,5,70.4s0.6,1.7-0.6,2.2c-1.1,0.6,0,0.6,0,1.1c0,0.6-0.6,1.7,0,2.2C5,76.4,5.6,77,6.1,77.5
    s1.1,0.6,1.7,1.1c0.6,0.6,1.1,2.2,1.7,2.2s1.7,0.6,1.7,1.1s0.6,0.6,1.1,1.1c0.6,0.6,1.1,1.1,1.7,1.1c0.6,0,0.6,0.6,1.7,1.7
    s1.7,1.7,1.7,2.8c0,1.1,0.6,1.7,1.1,2.2c0.6,0.6,1.7,1.7,1.7,2.2c0,0.6,0.6,1.7,1.1,2.8c0.6,1.1,1.1,2.2,2.2,2.2
    c1.1,0,1.1,0.6,1.7,0.6c0.6,0,2.2,0,2.8-1.1c0.6-1.1,0.6-2.8,1.1-2.8s0.6-1.7,1.1-1.1c0.6,0.6,1.7,0.6,2.2,1.1
    c0.6,0.6,2.2,1.7,2.2,2.2c0,0.6,0.6,2.8,0.6,3.3c0.1,0.5,0.4,1.1,1,1.1c1.1,0,0.6,1.1,1.1,1.7c0.6,0.6,3.3,1.7,3.9,1.1
    c0.6-0.6,4.4,0.6,5-0.6s2.2-1.1,2.2-2.8s0.6-2.2,1.1-2.2c0.6,0,1.7-1.1,1.7-0.6c0,0.6,0,1.1,1.1,1.1c1.1,0,2.2,0.6,2.2,1.1
    c0,0.6,1.7,1.7,1.7,2.8c0,1.1,0,2.8,1.1,3.3c1.1,0.6,1.1,1.1,1.7,1.1c0.6,0,1.1,1.1,1.1,1.1s1.4,0.4,1.6,1.4
    c1.4-0.2,2.7-0.4,4.1-0.7c0.2,0,0.3-0.1,0.4-0.2c0.2-0.1,0.3-0.3,0.4-0.4c0.4-0.2,0.8,0.4,1.3,0.5c0.6,0.2,1.3-0.4,1.7,0.1
    c0.1,0.1,0.2,0.3,0.3,0.4c0.4,0.7,1.8,0.5,2.1,1.3c0.2,0.6-0.2,1.4,0.3,1.7c0.1,0.1,0.3,0.1,0.4,0.1c0.7,0,1.5-0.1,1.8,0.5
    c0.2,0.4,0,0.8,0.2,1.2c0.2,0.4,0.9,0.4,1.3,0.6c0.6,0.3,1,1,0.8,1.7c0.6,0,1.2,0.1,1.8,0.2c0.3,0.1,0.6,0.1,0.9,0.2
    c0.4,0.1,0.8,0.3,1.3,0.2s0.8-0.6,0.6-0.9c0.4-0.1,0.8-0.1,1.2-0.2c0.1,0,0.2-0.1,0.3-0.1c0.1-0.1,0-0.3,0.1-0.4
    c0.1-0.3,0.6-0.4,0.9-0.3s0.5,0.5,0.8,0.7c0.6,0.4,1.4,0.3,2,0.2c0.6-0.2,1.2-0.4,1.6-0.9c0.4-0.5,0.4-1.3-0.1-1.7
    c0.6-0.3,1.2-0.5,1.8-0.8c0.1-0.1,0.2-0.1,0.3-0.2c0.1-0.2-0.1-0.4-0.1-0.6c-0.2-0.5,0.2-1,0.6-1.3c0.5-0.5,1-1,1.5-1.5
    c0.1,0.4,0.7,0.5,1.2,0.3c0.4-0.2,0.8-0.6,1.2-0.6l0.1-0.1c0.2,0.1,0.5-0.1,0.7-0.3c0.2-0.2,0.4-0.4,0.6-0.4
    c0.1,0.1,0.2,0.1,0.3,0.2c0.2,0.1,0.3-0.1,0.5-0.2c0.6-0.3,1.3,0,1.8,0.4c0.6,0.4,1.1,0.8,1.8,0.7c0.2-0.1,0.4-0.1,0.6,0
    c0.1,0.1,0.2,0.2,0.3,0.3c0.1,0.1,0.3,0.1,0.4,0.1c1.5,0.1,3,0.3,4.4,0.4c0.3,0.1,0.7,0.1,0.9-0.1c0.2-0.1,0.4-0.3,0.6-0.3
    c0.3-0.1,0.8-0.1,0.9-0.3c0.1-0.2-0.1-0.4,0.1-0.7c0.1-0.2,0.4-0.2,0.7-0.2c0.2,0.1,0.5,0.1,0.7,0c0.2-0.1,0.2-0.2,0.3-0.4
    c0.2-0.3,0.3-0.6,0.4-0.9c0.1-0.3,0.1-0.7,0.1-1c0-0.1,0-0.2,0-0.2c0.1-0.1,0.2-0.1,0.4-0.2c0.4-0.1,0.6-0.6,0.6-1
    c0-0.4-0.1-0.8-0.1-1.2s0.3-0.8,0.7-0.9l0.1-0.1c0.3-0.2,0.7,0,0.9,0.2c0.2,0.1,0.3,0.2,0.6,0.3c0.2,0.1,0.4,0.3,0.7,0.2
    c0.1-0.1,0.2-0.1,0.3-0.2c0.3-0.3,0.8-0.3,1.2-0.3c0.1,0,0.2,0,0.2,0.1c0.1,0.1,0.1,0.2,0.2,0.2c0.4,0.8,1.4,1,2.1,1.5
    c0.2,0.2,0.4,0.4,0.7,0.7c0.5,0.4,1.2,0.7,1.9,0.6c0.1,0,0.2,0,0.3-0.1c0.1-0.1,0.2-0.1,0.2-0.2c0.4-0.4,1-0.6,1.5-0.6
    s1.1,0,1.7-0.2c0.1,0,0.2-0.1,0.3-0.1c0.1-0.1,0.2-0.3,0.2-0.5c0.1-0.3,0.2-0.6,0.4-0.8c0.1-0.1,0.2-0.2,0.3-0.4
    c0.2-0.4-0.1-0.9,0.1-1.3c0.1-0.1,0.1-0.2,0.1-0.3c0.2-0.6-0.5-1.3-0.3-1.9v-0.2c-0.2-0.4-0.2-0.9,0.2-1.2c0.1-0.1,0.2-0.2,0.3-0.3
    c0.3-0.3,0.1-0.8-0.1-1.2c0.8,0,1.5-0.4,2-1c0.3,0.2-0.1,0.7,0.1,1c0.1,0.2,0.3,0.2,0.5,0.3c0.4,0.3,0.3,1,0.2,1.5
    c0,0.7,0.3,1.4,0.7,2c0.1,0.2,0.2,0.4,0.4,0.5c0.2,0.1,0.4,0.2,0.7,0.2c0.6,0.3,0.8,1,0.8,1.7s-0.2,1.4,0.1,2c0.1,0.4,0.3,0.7,0.4,1
    c0.2,0.5,0.2,1.1,0.6,1.4c0.3,0.3,0.8,0.3,1.2,0.4c0.2,0.1,0.3,0.2,0.4,0.3c0.2,0.4,0,1,0.3,1.4c0.2,0.2,0.4,0.3,0.7,0.3
    c1,0.2,2,0.3,3,0.4c0.1,0,0.2,0.1,0.3,0c0.1,0,0.2-0.1,0.3-0.1c0.3-0.1,0.6,0.1,0.8,0.3c0.2,0.2,0.3,0.5,0.6,0.7
    c0.5,0.5,1.3,0.7,1.5,1.3c0.2,0.7-0.5,1.2-1.1,1.4c-0.6,0.3-1.3,0.6-1.5,1.2c0,0.1,0,0.1,0,0.2c0,0.1,0.1,0.1,0.2,0.2
    c0.4,0.3,0.9,0.6,1.4,0.8c-0.2,0.2-0.3,0.3-0.6,0.3l-0.1,0.1c-0.3,0.2-0.5,0.6-0.4,1c0.1,0.3,0.3,0.7,0.1,1
    c-0.1,0.1-0.1,0.1-0.2,0.2c-0.3,0.3-0.4,0.7-0.3,1.1c0.1,0.3,0.2,0.6,0.1,0.8c-0.1,0.3-0.4,0.5-0.6,0.7c-0.2,0.3-0.2,0.8-0.2,1.2
    c0,0.3,0.1,0.7,0.3,0.9c0.2,0.1,0.4,0.1,0.6,0.1c0.3,0,0.6,0,0.9,0c0.4,0,0.8,0,1.1-0.2c0.4-0.3,0.5-0.9,0.9-1.2
    c0.4-0.3,0.9-0.2,1.4-0.1c0.4,0.1,0.8,0.2,1.2,0.2h-0.1c0.4,0.2,0.9,0.4,1.3,0.6s1,0.1,1.3-0.3c0.3-0.4,0.2-1.1,0.7-1.4
    c0.7-0.4,1.5,0.6,2.2,0.2c0.3-0.1,0.4-0.4,0.7-0.5c0.3-0.2,0.8,0,1.1-0.2c0.4-0.2,0.6-0.8,0.9-1.1c0.5-0.3,1.2-0.1,1.7,0.1
    c1.3,0.6,2.6,0.9,4,1.3c0.3,0.1,0.7,0.2,0.9-0.1c0.1-0.2,0.1-0.4,0.1-0.6c0.1-0.3,0.6-0.4,0.9-0.7c0.3-0.4,0.2-1,0.5-1.4
    c0.2-0.4,0.7-0.4,1.2-0.4c0.7,0.1,1.3,0.3,1.9,0.6c0.2,0.1,0.6,0.2,0.8,0.1c0.2-0.1,0.3-0.4,0.5-0.5c0.4-0.3,1.2,0.3,1.5-0.1
    l0.1-0.1c0,0,0,0,0,0.1l0.1-0.3c0,0-1.1-2.8,0-3.3c1.1-0.6,0.6-1.1,1.1-2.2s1.7-3.9,1.7-3.9s1.1-1.1,2.2-1.1c1.1,0,1.1-1.7,2.2-1.1
    c1.1,0.6,5.5,2.2,6.1,1.1c0.6-1.1,1.1-0.6,2.2-1.1c1.1-0.6,2.2-1.1,2.8-2.2s0.6-1.7,0.6-2.8s-0.6-1.1,0-2.2c0.6-1.1,0-2.2,0.6-3.3
    c0.6-1.1,1.1,0,1.7-1.1c0.6-1.1,2.8-1.7,3.9-2.2c1.1-0.6,2.8-1.7,2.8-3.3c0-1.7-1.1-2.2-0.6-3.3c0.6-1.1,0-3.3,1.1-3.9
    c1.1-0.6,2.8-1.1,3.3-2.2c0.6-1.1,2.8-1.7,2.8-3.9c0-2.2,0.6-2.8,1.7-3.3c1.1-0.6,0.6-2.8,0.6-3.3c0-0.6,0-1.7-0.6-2.8
    s-2.8-2.8-2.8-2.8s-1.7-1.7-2.8-1.1c-1.1,0.6-2.2-1.1-2.8-1.1s-2.2,0-2.8,0.6c-0.6,0.6-2.2,0-2.2-1.1c0-1.1,0-2.8,0.6-3.3
    c0.6-0.6,2.2-0.6,2.8-1.1c0.6-0.6,0-2.2,0-2.2s0.6-1.1,0.6-2.2c0-1.1,0-1.7-0.6-2.2c-0.6-0.6-1.7-3.9-0.6-4.4c1.1-0.6,0-2.2,0.6-3.3
    c0.6-1.1,0.6-2.8,1.7-2.8c1.1,0,1.1-1.7,2.2-2.2c1.1-0.6,1.7-2.2,3.3-2.2c1.7,0,2.2-1.7,2.2-1.7s1.1-3.3,2.2-2.8
    c1.1,0.6,1.1-1.7,1.7-2.8s1.1-1.7,1.1-2.8S207.1,21.4,206.6,20.8z"/>
<path d="M230.2,23.6c0,0,0.6,1.1-0.6,1.1c-1.1,0-0.6,2.2-0.6,2.2s1.1,0.6,0.6,1.7s0,1.7,0.6,1.7s1.1,0.6,1.7,0.6
    c0.6,0,1.1-1.1,1.1-1.7c0-0.6-0.6-0.6-0.6-1.7s0-2.8-0.6-2.8C231.3,24.7,231.3,23.6,230.2,23.6z"/>
<path d="M220.9,25.8c0,0,0.2,1.3,0.6,1.7c0.6,0.6,1.7,1.1,1.7,1.7c0,0.6-0.6,1.7,0,1.7c0.6,0,0.6,1.7,1.7,1.1s2.2-2.8,1.7-2.8
    c-0.6,0-0.6-1.1-0.6-1.7c0-0.6-1.1-1.1-2.2-2.2C222.5,25.2,220.3,24.7,220.9,25.8z"/>
<path d="M226.4,34.6c0,0,1.7,2.2,2.8,1.7c1.1-0.6,1.1-1.1,0.6-1.7c-0.6-0.6-1.7-1.7-1.7-1.1S225.8,34,226.4,34.6z"/>
<path d="M220.3,36.2c0,0-2.2,0.6-3.3,2.2c0,1.7,1.1,2.2,1.1,2.8s-0.6,2.2,0,2.8s0.6-0.6,1.1,1.1c0.6,1.7,0.6,3.3,0,3.9
    s-2.8,1.7-2.8,3.3c0,0.6,1.7,2.2,2.2,2.8s2.2,2.8,3.3,2.2c1.1-0.6,1.1-1.7,1.7-1.7s1.1-2.2,2.2-2.2c1.1,0,0.6-3.3,0-3.3
    c-0.6,0-1.1-1.1-1.1-2.2c0-1.1-0.6-1.7,0.6-2.2c1.1-0.6,2.8-1.1,2.2-1.7s-0.6-2.2-1.1-2.8c-0.6-0.6-1.7,0-2.2-0.6s-1.7-0.6-1.7-1.1
    c0-0.6-1.1-1.1-1.1-2.2C221.4,36.2,220.3,36.2,220.3,36.2z"/>
</svg>
