<svg viewBox="0 0 233 192" stroke-dasharray="970" stroke-dashoffset="970">
<path d="M98,2.4l-2,1.5c0,0-1,2-1,3s-1.5,2-1.5,2s-0.5,2-0.5,3s-1.5,3-1.5,3h-1c0,0-0.5,2-0.5,2.5c0,0.5-1.5,2-1.5,2s-2.5,2.5-3,2
    s-1.5,1-2,1s-3.5-1-3,0c0.5,1-2.5,0.5-3,0s-2.5-0.5-2.5-0.5s-3-1-3,0s-1,2-1,2s1,2,0,2c-1,0-1,1.5-1,1.5s0.5,2.5,0,2.5s-1,3-1,3
    s-0.5,2.5-1,2c-0.5-0.5-1.5,0-1.5,0s-4-1-3,0s-1,0-1,0s-1.5,0-2-1.5c-0.5-1.5-2-3.5-2.5-2.5c-0.5,1-3,0-3,0s-2,0.5-1.5,1.5
    c0.5,1-2,1.5-2,1.5l-1.5,1c0,0,0,0.5-0.5,1c-0.5,0.5,0,1.5,0,1.5s-1,0.5,0,1c1,0.5,0.5,2.5,0.5,2.5s0.5,1,1,1.5c0.5,0.5,3,0.5,3,0.5
    l1,0.5l3,1c0,0,0,0.5,0.5,1c0.5,0.5,3,1,3,1s2.5,1,1.5,2s1,1,1,1s-0.5-0.5,0,1c0.5,1.5-0.5,3-0.5,3s-0.5,0.5-1,1
    c-0.5,0.5,0.5,2.5,0.5,2.5s1.5-0.5,1.5,0.5s-2,2.5-2,2.5s-2-0.5-2.5,1.5c0.5,1.5,0.5,3,0.5,3s-0.5,1.5-1,1.5c-0.5,0-1,1-1,1
    s0.5,0.5,0.5,1s-0.5,2.5-1.5,2s-2-1-2.5-0.5c-0.5,0.5-2,0-2,0l-1.5,0.5c0,0-2.5-1-2.5,0c0,1-2,1.5-2,1.5s-0.5-1-0.5,0
    c0,1-3,2.5-3,2.5h-1c0,0-2-1.5-2,0c0,1.5-1.5,1-1.5,1s-2.5-0.5-2.5,0.5c0,1-2,0-2,0s-1.5,0-2,1c-0.5,1-2.5,0.5-2.5,0.5s-2-1-2.5-0.5
    c-0.5,0.5,0.5,2.5,0,2.5c-0.5,0-2,1-2,1s-1,1-1,1.5c0,0.5-1,2-0.5,3c0.5,1,1.5,1,1.5,1v1.5c0,0,0,2-1,2s-2,1.5-2,1.5s-3.5,1.5-4.5,1
    s-1,1-1,1s-1,2-0.5,2.5c0.5,0.5,0,3,0,3s-0.5,1-1,1s-4,1-4,1s0,1,0,1.5c0,0.5-1,2.5-1,2.5s0.5,1-0.5,2c-1,1-0.5,2.5-2,2
    c-1.5-0.5-2.5,1-2.5,1s-1.5,1.5-2.5,1c-1-0.5-2,1-2,1v1.5c0,0,1.5,0,1.5,1c0,1-1,3-1,3s-1,1.5-0.5,2c0.5,0.5,0.5,2,0.5,2l-0.5,1.5
    c0,0,0,1,1,1s2,0.5,2,0.5v1v2.5c0,0,0,0.5,0.5,0.5s1.5,1.5,2.5,2.5c1,1,4,1.5,4,1.5s1,0.5,2,0.5s5,0,5,0s2-2,3-1c1,1,3,1,3.5,1.5
    c0.5,0.5,2.5,2.5,2.5,2.5s0,1.5,1,2c1,0.5,2.5,0,2.5,0l2.5-1l3,1c0,0,0,0,0.5,1c0.5,1,1.5,1.5,1.5,1.5s0,0.5,0,1.5s-1,2-1,2
    s0.5,1.5,0,2c-0.5,0.5-1.5,2-2,1.5c-0.5-0.5-2,0-2,0s-2.5,1-2.5,1.5c0,0.5-1,3-0.5,3s1,0.5,1,0.5l-0.5,1.5c0,0-1,1.5-2,1
    c-1-0.5,0,0.5-1.5,1c-1.5,0.5-3,0-3,0s0,1-0.5,1.5c-0.5,0.5-2-1.5-2.5,0s-0.5,3-0.5,3s1,0.5,1.5,1s3,3.5,2,3.5s-1.5,1.5-1.5,1.5
    s0.5,0-0.5,0s-2.5,0-2.5,0.5c0,0.5,0.5,1.5,1,2c0.5,0.5,3.5,3.5,4.5,3s3,0.5,3,0.5s2.5,0.5,4,0c1.5-0.5,4.5-2.5,5-2
    c0.5,0.5,1.5-1.5,1.5-1.5l2.5-1.5h2c0,0,1,0,1.5,1.5c0.5,1.5,1,3.5,1,3.5s1.5,1,2.5,1s1.5-2,1.5-2s0.5-1.5,1.5-1c1,0.5,1-2,1.5-2
    c0.5,0,2.5,0,2.5,0s1,1.5,0.5,2.5c-0.5,1,1,1.5,1,1.5s3-0.5,3,1s2.5,0,2.5,0s2-3,1.5-3.5c-0.5-0.5,0.5-2.5,0.5-2.5s0.5-0.5-1-1
    c-1.5-0.5-2.5-2-2.5-2.5c0-0.5,1.5-2,2-2c0.5,0,1.5-1.5,2-2c0.5-0.5,4-1.5,4.5-1.5c0.5,0,2.5-2.5,2.5-2.5s0.5,0,1.5-2c1-2,2-2,2-2
    s1-1.5,1.5-2s2-1,2.5-0.5c0.5,0.5,1.5,2,1.5,2s-0.5,1.5-1,1.5s1,1.5,1,2s2.5,0,2.5,0s0.5,1,1,1c0.5,0,2.5,0.5,3.5,0
    c1-0.5,2.5-0.5,2.5-0.5s1-0.5,1.5,0.5c0.5,1,1,3,1,3s0,0.5,1,0c1-0.5,2-1.5,2-1.5s1-2.5,2-2c1,0.5,2,2,2,2v1c0,0,0.5,1.5,1,1.5
    s1.5,2.5,1.5,2.5s2,1.5,1.5,2.5c-0.5,1-2,3-1,3.5c1,0.5,1,2.5,1,2.5s-1.5,0.5-0.5,1.5c1,1,1,0.5,1.5,1.5c0.5,1,0.5,1,1,1.5
    c0.5,0.5,1,2,2,1.5c1-0.5,2.5-0.5,3-0.5c0.5,0,3-2,3-2s1.5,0.5,2.5,0c1-0.5,2-1,3-0.5c1,0.5,3,0,3,0s3,0.5,3.5,0
    c0.5-0.5,0.5-2.5,1-3c0.5-0.5,2,0,2,0s1.5,0,1.5,1.5s0,3.5,0.5,4c0.5,0.5,2,3,1.5,3.5c-0.5,0.5,1.5,1,2.5,2c1,1,2.5,1,3,1
    c0.5,0,3.5-1.5,4-1.5c0.5,0,1.5,0.5,2,1s1,2,1,2s1,0,1.5,0.5c0.5,0.5,2,1,2,1s0,0,1,0s1-0.5,2,0c1,0.5,1,2,1,2s0.5-0.5,1,0
    c0.5,0.5,2.5,2.5,2.5,2.5l1,0.5c0,0,1,1.5,1.5,1.5s2.5,0,2.5,0s2,0,1.5-1c-0.5-1,1-1,1-1s0-0.5,1-1c1-0.5,2,0,2.5,0.5
    c0.5,0.5,0.5-1,1-0.5c0.5,0.5,2.5,0.5,3,1.5c0.5,1,1,0,1,0s3,1,3.5,0.5s1.5-1.5,1.5-1.5s1,0,1-1.5c0-1.5-1.5-2.5-0.5-3.5
    c1-1,1.5-2,1.5-2s1-1.5,1.5-1c0.5,0.5,2-0.5,2-0.5s0-3,1-2c1,1,2.5,1.5,3,0.5c0.5-1,0.5-1,0.5-2c0-1-1.5-3,0-2.5c1.5,0.5,2-1,2-1
    s1.5-1.5,1-2.5c-0.5-1-0.5-2-1-2.5c-0.5-0.5-2.5-1-2.5,0s-1.5,2-2,2s-3-0.5-3-0.5s-0.5,0.5-1.5,0.5c-1,0-1.5-1.5-2.5-2
    c-1-0.5-5.5-0.5-5.5-1c0-0.5,0.5-4,0.5-3.5c0,0.5,1-2.5,0-2.5s-1.5,0.5-1.5-0.5c0-1,0-3-1-3s-1.5-2-2-1c-0.5,1-2,1-3,1s-1.5,1-1.5,1
    s-2,0.5-2.5,0c-0.5-0.5-1-2.5-0.5-2.5c0.5,0,0.5-1,0-1.5c-0.5-0.5-1-1.5-0.5-2.5c0.5-1-1-2.5-1.5-2.5s-0.5-0.5-1.5-1s-3.5,0.5-2.5,1
    c1,0.5-1,1.5-1.5,1c-0.5-0.5-3.5-2.5-4-3.5c-0.5-1-1-0.5-1.5-1c-0.5-0.5-1.5-1-1.5-1s-1,0-0.5-1.5s0-3.5,1-3.5s-1-2,0.5-2
    s2.5,0.5,3,0.5c0.5,0,1-2,1-2s-1-2.5-1.5-3c-0.5-0.5,0-2,0-2.5c0-0.5,1-1,1-1.5c0-0.5,0.5-1.5,1-2c0.5-0.5,0-1,0.5-3s-0.5-3-0.5-3
    s-1-1,0-1.5c1-0.5,1.5-2,1.5-2s1.5-2,2.5-2s2-1.5,3.5-0.5c1.5,1,2.5,0,2.5,0s0,1,1.5,0.5c1.5-0.5,4-2.5,4-2.5s2-1.5,1.5-2
    c-0.5-0.5,1-1.5,1.5-1.5c0.5,0,1-2,1-3c0-1,1-1.5,1.5-2c0.5-0.5,2,0.5,2.5,0c0.5-0.5,0.5-2,0.5-2s0.5-2.5-0.5-2.5c-1,0-2-1.5-2.5-2
    c-0.5-0.5-2-1.5-3-2c-1-0.5-2,0-2,0s-1.5-0.5-2.5-1.5c-1-1-1-1,0-1s0-2,0-2.5s0-2,0.5-2.5c0.5-0.5-0.5-1.5,0-2.5c0.5-1,0-2,0-3
    c0-1,0-3-1-3c-1,0-2-2.5-1-2.5s-0.5-2.5,1-3c1.5-0.5,2-2.5,3-2c1,0.5,3,0.5,3-1s-1-1-1-2c0-1,0-1,0-2.5s0-2.5-0.5-3.5
    c-0.5-1,0-1.5,0.5-2c0.5-0.5,1-0.5,1.5-1c0.5-0.5,2-1.5,2-1.5s1,1.5,2,1.5c1,0,1,0.5,2,1c1,0.5,4,0.5,4,0.5s0.5-0.5,1-1
    c0.5-0.5,2.5,0,3-0.5c0.5-0.5,2.5-0.5,2-2s1-1.5,1-2c0-0.5,1-1,1.5-1.5c0.5-0.5,0.5-2,0.5-2s-1-1.5,0-1.5s1-2,1-2s-0.5-2.5-1.5-2.5
    c-0.5-1-3-0.5-2-1.5c-0.5-0.5,0-1.8,0-2.5c1,0-0.5-1-0.5-1l-1.5-1c0,0,1.5-0.5,1-1.5c-0.5-1-0.5-2-0.5-2s0-1,0-1.5c0-0.5-1-2-1-2
    s-0.5-1-1-1.5c-0.5-0.5-2.5-1-2.5-1s-1.5-1.5-1.5,0c0,1.5-1,2.5-0.5,3c0.5,0.5-0.5,2,0,2c0.5,0-1,1-1.5,0.5c-0.5-0.5-2,0-2,0.5
    c0,0.5-0.5,4,0,4c0.5,0-3,0.5-3.5-0.5c-0.5-1-1-2-1.5-2.5c-0.5-0.5-1-1.5-2-0.5s-2.5,1-3,0.5c-0.5-0.5-1-0.5-2-1c-1-0.5-0.5,0-1-0.5
    c-0.5-0.5-2,0.5-2,0.5s-1.5,0-1.5-1s-0.5-2.5-1-2.5s-2.5-1-2.5-1s-1-1.5-2-1c-1,0.5-3,1-4,0.5c-1-0.5-2.5,0.5-2.5,0.5s-1-0.5-1.5-1
    c-0.5-0.5-0.5-1-1,0c-0.5,1-1,0-2-0.5c-1-0.5-2-1.5-2-0.5c0,1-2.5-1.5-2.5-2s-1-2-1.5-2c-0.5,0-3-1-3-0.5s-1.5,0-2.5-0.5
    c-1-0.5-1.5-1-1.5-2c0-1-0.5-3-0.5-3s0-3.5-1-3c-1,0.5-2.5-2-1.5-2c1,0-1-1.5-1.5-2c-0.5-0.5,0-2.5-0.5-2.5s0-3.5-1.5-3
    c-1.5,0.5-1-1.5-1-1.5s-1,0-2-1c-1-1-1-2-1-2s-0.5-3-1-2.5s-1.5-1-2,0s-2.5,2.5-3.5,2c-1-0.5-2.5,1.5-2.5,1.5s-1,0.5-1.5,0
    s-1.5,1-2.5,0.5c-1-0.5-1.5,2-2,2c-0.5,0-1.5-1.5-2-2c-0.5-0.5-1-2.5-1-2.5s0-1-0.5-1S99,2.4,98,2.4z"/>
<path d="M195.7,31.7c0,0,0,0.5,0.5,1c0.5,0.5,1.5,1.5,1,1.5c-0.5,0,0.5,1,0.5,1l-0.5,1c0,0-1,0-0.5,0.5c0.5,0.5,0.5,1.5,0,1.5
    s-1,0-1,0.5c0,0.5,0,2,0,2s0-0.5,0.5,0c0.5,0.5,0,1,0,1l0.5,1c0,0,0,1,0.5,1c0.5,0,1,0.5,1,0.5s0,0.5,0.5,0.5c0.5,0,1,0.5,1,0.5
    s0.5,0.5,1,0c0.5-0.5,1.5-1,1.5-1s1-0.5,0.5-1c-0.5-0.5,0-1,0-1s0-0.5-0.5-1c-0.5-0.5-0.5-0.5-0.5-1c0-0.5,0.5-1,0.5-1
    s0.5,0,0.5-0.5c0-0.5,0.5-1,0.5-1s1,0,0.5-0.5c-0.5-0.5-1-1-1-1s0-1-0.5-1c-0.5,0-0.5,0.5-1,0c-0.5-0.5-1.5,0-1.5-0.5
    c0-0.5,0-1.5,0-1.5v-1l-0.5-1c0,0-1-1-1-0.5s-1-0.5-1-0.5s-0.5,0-0.5,0.5S195.7,31.2,195.7,31.7z"/>
<path d="M207.6,30.2c0,0-0.5,0.5,0,1c0.5,0.5,0.5,0,1,0.5c0.5,0.5,1,0.5,1,0.5s0,0.5,0.5,0c0.5-0.5,0.5-1,0.5-1s0.5,0,0-0.5
    c-0.5-0.5,0-1-0.5-1c-0.5,0-0.5,0-1,0c-0.5,0-0.5-0.5-1,0C207.6,30.2,207.1,29.3,207.6,30.2z"/>
<path d="M206.6,34.7v0.5c0,0-0.5,1,0,1c0.5,0,0,1,0,1h1c0,0,0,0.5,0.5,0.5c0.5,0,1.5-1,1-1c-0.5,0,0-0.5,0-0.5s0.5,0,0-0.5
    c-0.5-0.5-0.5-1-0.5-1h-0.5c0,0,0-0.5-0.5-0.5C207.1,34.2,206.1,34.2,206.6,34.7z"/>
<path d="M205.6,110c0,0-1,1-1,1.5c0,0.5,0,1.5,0,1.5s0.5,1.5,0,2s-1,2-1,2s-1,2-2,1.5s-1.5,1.5-1.5,1.5s1,1.5,0,1.5
    c-1,0-2.5,1.5-2.5,1.5s1.5,2,0.5,2s-2.5-0.5-2.5-0.5s-1,0.5-2,0.5c-1,0-2.5-2-3-1.5c-0.5,0.5-1.5,2-0.5,2.5c1,0.5,2.5,1,2.5,1
    s2,0,1.5,1c-0.5,1-0.5,2-0.5,2s0,2.5,0.5,2.5s1.5,1,1,2c-0.5,1-0.5,1.5,0.5,2.5c1,1,1.5,3.5,1.5,3.5s-0.5,2,0.5,2c1,0,2,1,2,1
    s1,3,1.5,1c0.5-2,0.5-3,1.5-3c1,0,0.5-3,1.5-2.5c1,0.5,2,1.5,2.5,1.5c0.5,0,2-0.5,2.5,0.5c0.5,1,2,0.5,3-0.5s0-2,0.5-3
    c0.5-1,1.5-3,2-2.5c0.5,0.5,2-0.5,2-0.5s2-0.5,2.5-0.5c0.5,0,3-1,2-2c-1-1-1-2.5-1-3c0-0.5,0-1-1-2c-1-1,0.5-1.5,0-2
    c-0.5-0.5,0.5-1,0.5-1v-3c0,0,0.5,0-0.5-0.5c-1-0.5-1.5-2-1.5-2s-1.5-1-2-1.5c-0.5-0.5-1-2-1-2l1-2c0,0,0-1.5-1.5-1
    c-1.5,0.5-2,0-2,0s-1-0.5-1.5-1c-0.5-0.5-0.5,0.5-1.5,0.5c-1,0-2.5-1-2.5-1S206.1,110,205.6,110z"/>
<path d="M224.5,145.3c0,0,0.5,1.5,0,2c-0.5,0.5-1,1.5-1,1.5s-3.5,0.5-2.5,1.5c1,1,1,3,0,3c-1,0-2,1.5-1.5,2c0.5,0.5,0,2,0,2
    l-0.5,1.5c0,0,0,0.5,1,0.5s2,0.5,2,0.5h1.5c0,0,2.5,1,2.5,0s-1-2-1-2s1-0.5,1-1c0-0.5,1.5-0.5,2-1c0.5-0.5,0.5-1.5,1.5-1.5
    s-0.5,0,1,0s1-1.5,1-1.5v-2l-2-1c0,0-1-0.5-1-1c0-0.5,0,0,0-1.5s0-2.5-0.5-2.5s-1.5-0.5-2-0.5C225.5,144.3,225,144.3,224.5,145.3z"
    />
</svg>
