<svg viewBox="0 0 137 188" stroke-dasharray="465" stroke-dashoffset="465">
<path d="M7.8,28.2c0,0-1,2-2,3c0.1,1.8,1.4,4.4,1,5.9c-0.4,1.1-2.1,1.1-3,2c0,1-2,3.1-2,4.9c-1,1,1.3,2.5,2,3.9c-1,1,1,3,2,3.9
    c-1,2,1,3-1,4.9s0,5.9,0,5.9s1,3,0,4.9c-1,2-3.9,5.9-3,7.9c1,2,0,4.9,0,4.9s0.4,1.4,1.1,2.7c0.8,1.4,1.8,2.8,2.8,2.3
    C6.7,84.9,8,84.6,9,84.5c1.4-0.1,2.8-0.1,2.8-0.1s0.7,0.3,1.4,0.8c0.6,0.4,1.1,1.3,0.6,2.3c-0.4,0.8-0.7,2-1,3.1
    c-0.4,1.5,2,1.8-1,4.8c0,2-3.8,0-4.9,1c0,2-3,3.8-3,4.9c0,2,3,2,1,7.9c0,0.8,1,2-2,3c-3-1-1.1,0.3,0,3c0.7,1.8,0.4,3.8,1.1,4.2
    c1.3,0.8,2.8,2.7,3.8,0.7c2,1.8,2,4.8,2,4.8s1,3.9-2,4.9c-0.8,0.3-1.7,1-2.3,1.8c-1.3,1.8-1.7,4.1-1.7,4.1s0.6,3-1,3
    c-1,0-1.8,1.5-1,2s3,0.3,3.9,1c0,1,1,3,3,3c0.6,0,1.7,2.1,3,3.9c-1,2,2.5,6,2,7.9c-0.4,1.4,1.7,2,4.1,2.1c2.8-2.1,4.8-0.1,4.8-0.1
    s5.9-3,6.9,0c0.8,0.8,2.1,1.1,3.1,1.4c1.1,0.4,2.3,0.8,2.8,2.4c0.4,1.1,2,3,0,3.9c0.1,2.1,0.7,3.9,2,3.9c0.6,0,1.1-1.1,2-1
    c2,1,3.9,2.4,3.9,1c0-1.1,3-3,2-3.9c1,0,2.1,0,3,0c1.1,0,1.7-1.8,2.1-3.4c0.3-1.1,2.4-3.1,2.8-3.5c1-1-1-3.9,2-4.9
    c1.8-0.6,1.5-1.8,2.4-3.9c0.4-1.1,1.8-1.3,2.5-2c0.8-0.8,0.7-3.4,2-3.9c1.8-0.7,4.9,1,4.9,1s2-1.8,3.8-3c1-0.6,1.5-1.3,1.1-2
    c-3-4.9-1-2-1-5.9c1-3.9-1-3-1-4.9c1-1,2-3.9,3-3.9c2,0,0-5.9-2-4.9c-3-1-3.9,3-5.9,4.9c-0.8,0.8-3,0-4.9,2
    c-2.7-0.4-5.3-2.8-5.9-3.9c-0.6-1.1-3.9-3.9-3.9-5.9c-1.5-1-4.4-0.6-5.9-1c-1.3-1.3-0.8-4.2,0-5.9c2,0,2.7-3.2,1-4.9c-1-1-1-1-1-3
    c-1.5-1.1-4.6-1-5.9-1c-1.1,0-2-2-3.9-1c-1.4-1.1-4.9-3-3-4.9c-1-5.9-4.9-5.9-2-7.9c0.6-0.6,2-2,3.9-2c-1-3,1-4.9,0-6.9
    c-0.4-1,0-3,0-3.9c-1-2-2-5.9,1-3.9c1.7,0,2.7-1.1,3.1-2.4c-0.1-2.5,1.8-3.5-0.1-4.5c-4.9-1.7-4.9-5.6-4.9-5.6l-3-4.9c0,0-2-2,0-3
    c1-1,0.3-2.1-1-3c0-3-4.9-3,0-7.9c3.9-2-2-2-2-2s-2-3.9-4.9,0c0,2-3.9,4.9-4.9,3.9c0-2-2-3-1-4.9c0.4-0.7,0.6-2.1,0.6-3.7
    c0.1-2.8-0.4-5.8-1.5-5.2C12.8,29.2,7.8,24.3,7.8,28.2z"/>
<path d="M84.5,2.6c0.4,0.4,0.7,1.1,0.7,2.1s-0.1,1.8-0.7,2.8c-0.4,1-0.4,2.1-0.3,3.1c0.1,1.1,0.8,1.8,1.3,1.8c0.6,0-1,3-3.7,3.4
    c-3.2,0.4-2.5,2.4-3.2,3.4c-0.7,1.1-0.1,2.1-1,3c-2,2-2,3-2,3s-1,2,1,3c1.1,0.6,0.1,1.8,0,3c-0.1,0.8,1,1.5,1,2s-1.3,1-2.5,1.5
    c-1.4,0.6-1.8,2.4-2.4,3.4c-0.4,0.8-2,0-3,2c-2,1-2,3.9-2,3.9s-0.3,1.3-0.4,2.8c-0.1,1.3-1,1.8-0.6,3.1c0.4,1.1,2.8,3.4,3,4.9
    c-2,3-1.4,5.3-2,5.9c-0.4,0.4-1.4,1.7-2,3c-2,2-1,3.9-1,3.9s-1.1,1.4-3,2c-0.8,0.3-3-0.7-3.9-1c-1,1-2.8,0.4-3.9,0
    c-1.5-0.7-1.5-1.8-1-3c0.4-1.1-1-3.9-2-4.9c-1.1-1.1-0.4-2.4-1-3c-0.6-0.6-3-2-2-4.9c-0.1-1.8-1-4.9,2-5.9c1.4-1.1,2-2,3-3
    c1.8-1.8,4.2-0.6,4.9-2c1-2-2-4.9-2-4.9s0-2,2-3.9c0.1-1.7-2-4.9,0-4.9c2-1,2-4.9,2-4.9s-1-2,1-4.2c0.6-0.7,1.1-1.4,2-1.7
    c1.3-0.4,0.8-2.4,2-3c2-1,2-3,2-3s-0.7-2.4,0-3.9c0.4-0.7,3.9-0.8,5.1-0.8c2-1,0,2,3,2c2.1,0,2-2,2-2s3,0,3-3.9
    C81.4,1.3,83.5,1.6,84.5,2.6z"/>
<path d="M90.4,23.3c0,1.1,0.1,2.4,0.4,3.4c0.4,1.4,1.1,2.7,2,3.4c0.7,0.7,1.5,1.1,2.4,1.1c1.5,0,1.4-2.4,1-4.5c-0.4-1.8-1-3.4-1-3.4
    l-2-2C93.4,21.3,90.4,20.3,90.4,23.3z"/>
<path d="M84.5,43.9c0,0,1.1,1.3,2,3c0,1-1,3,2,3.9c0.4,0,2-1,3.9-1c1.1-0.8-1-2,0-3c-0.7-0.7-1.4-1.3-2-1.7c-2-1.3-1-2.3-1-2.3l-2-1
    h-2C85.5,42,83.5,41,84.5,43.9z"/>
<path d="M76.8,63.6c0,0,0.4,0.3,0.8,0.8c0.4,0.6,2.1,1.1,1.7,2c-0.7,1.1,1.1,2.3,0.3,3.1c-2,0-1,3-1,3.9c0,0.4,1.4,1,3,1.4
    c2-1.4,3,0.6,3,0.6s1-1,1.5-2.3c0.1-0.4,0.4-1.1,0.4-1.7c0-1-1-1-0.1-2.4c-0.1-0.6-0.4-1.1-0.8-1.5s-3-2-3-3c0-1.8-3-1-3-1
    S78.7,61.7,76.8,63.6z"/>
<path d="M97.3,56.7c0,0-0.4,1.1-1,2c-0.3,0.4-1,0-1,1c0,1.1,0.6,2.1,1.3,3.1c1.1,1.4,3.7,0.8,2.7,3.8c0,0.7,0,2-1,3
    c-1.3,1.3,1,1,1,3c0.8,0,1.7-0.1,2.4-0.4c1-0.4,2.5-1.3,2.5-2.4c0-0.7-3,0-2-2c0-1,3-3,1-3c-2-3,0.3-3.2,0-4.9c-0.1-1.4-3-1-2-3
    C100.3,55.8,99.3,55.8,97.3,56.7z"/>
<path d="M110.1,103c0,0-4.9,0-4.9-1c0-1.1-1.7-2-2-3c-1-3-3.9,1-3.9,1s-2,0-3,2c-2,1-1,4.9-1,4.9s3.9,2,2,3.9c-1.5,1.5-2,4.9-2,4.9
    s-2,2,1,3c0.8,0.8,2.5,3.2,1.1,4.8c-1.1,1.1-0.1,6-0.1,6s2.7-0.1,3.9,1c-1,2,0.1,2.1,1,3c2,2-2,3,3,4.9c1-1,2.8-0.1,3.9-1
    c0.7-0.4,0.1-1.4,0.8-2.1c1-1.1-0.4-3.8,1.1-3.8c1,0,1.8-2.1,2-3c3-3.9,3-3,7,2.5c1.1,1.3,1.8,2.4,1.8,2.4s1.8-0.1,3,1
    c1.1,1.1,1.4,3.4,2,3.9c0.3,0.3,2.4,0,3,1c1,2,3.7,2.3,3,1c-2-3.9-2-5.9,0-6.9c0.8-0.4,3.8-2.4,3-3.9c-1-2,0-3.9,0-3.9s-2-2-0.1-3.1
    c-0.3-1.4-1.1-2.8-2.8-3.8c-1.7-0.8,0-3.9-2.4-3.5c-1.1-1.4,0.4-3.4,0.4-3.4s-3.9-3.9-4.9-1c1,3-2,2-2,2s-2-1-2-3c0-0.8-1-3,0-4.1
    c1.3-1.4-1-3.8-1-3.8s0-3.9-2-3c-1,2-3,2-3.5,0.1c-0.4-1.7-5.3-1.1-3.4-0.1C112.5,99.9,109.1,101.1,110.1,103z"/>
<path d="M90.4,163.9c0,0-2-3.9,0-5.9c-1-1-3.9-2-5.9,3c0,2-3,2-3,2s-4.9,0-3,4.9c-2,2,2.8,4.8,1,5.9c-3,2,0.8,4.2,1.5,7.3
    c0.4,1.5,4.4-0.4,3.4,4.5c3,2,2,0,3.9-3c3-1,2.7-3.7,3.9-3c3.9,0,5.3-1.7,4.9-3.9c0,0,3.9-3.9,2-4.9c-1.1-0.4-3.9-1-3.9-3
    c2-3-3,0-3-2S90.4,163.9,90.4,163.9z"/>
</svg>
