<svg viewBox="0 0 112 170" stroke-dasharray="480" stroke-dashoffset="480">
<path d="M51.3,6.3c-5.1,2.6-7.7,2.6-7.7,7.7s0,10.3,0,12.8s0,7.7-5.1,10.3c-5.1,2.6-7.7,2.6-10.3,5.1s-2.6,7.7-7.7,7.7
    s-15.4,0-15.4,2.6s-2.6,7.7,0,10.3s2.6,5.1,2.6,7.7s0,7.7-2.6,10.3s0,5.1,0,7.7s-2.6,12.8,0,15.4s2.6,0,7.7,2.6s7.7,10.3,10.3,10.3
    s5.1,5.1,7.7,7.7s2.6,7.7,5.1,7.7s7.7-2.6,7.7,5.1c0,3.6,0,5.1,0,7.7c0,2.6,7.7,10.3,5.1,12.8c-2.6,2.6,2.6,7.7,5.1,7.7
    s7.7-5.1,10.3-2.6c2.6,2.6,10.3,5.1,12.8,2.6c2.6-2.6,2.6-12.8,5.1-12.8s5.1-5.1,5.1-10.3s-5.1-12.8,0-12.8s5.1-10.3,10.3-10.3
    c5.1,0,10.3-5.1,10.3-7.7s-2.6-5.1-2.6-10.3s5.1-10.3,2.6-12.8s0-15.4-7.7-15.4s-15.4-2.6-15.4-5.1S77,62.7,77,57.6s0-10.3,2.6-12.8
    c2.6-2.6,7.7-7.7,5.1-10.3c-2.6-2.6,0-7.7-2.6-10.3s-7.7-7.7-10.3-5.1s-7.7,0-7.7-2.6s-1-6.9-2.6-10.3C59,1.2,56.5,3.7,51.3,6.3z"/>
</svg>