<svg viewBox="0 0 140 178" stroke-dasharray="640" stroke-dashoffset="640">
<path d="M132.4,32.1c0-2.5-2.5-2.5-2.5-3.8c0-0.9-1.4-1.9-1.7-3.3l-0.3,0.1c-0.9,0.9-2.5-0.5-3.6,0.1c-0.5,0.3-0.6,0.9-1.1,1.1
    c-0.5,0.3-1.1,0.1-1.8-0.1c-1.4-0.6-2.8-1.1-4.3-1.3c-1,0-2.2,0.1-2.7,1c-0.6,1-0.3,2.4-1.1,3.3c-0.6,0.6-1.7,0.8-2,1.5
    c-0.1,0.4,0,0.9-0.3,1.3c-0.4,0.6-1.4,0.5-2,0.3c-3.1-0.9-6.1-1.8-9.2-3.1c-1.3-0.5-2.8-1.1-4-0.3c-0.9,0.6-1.1,2-2.2,2.5
    c-0.8,0.4-1.8,0-2.5,0.4c-0.6,0.3-1,0.9-1.7,1.1c-1.7,0.8-3.7-1.5-5.1-0.5c-1,0.6-0.8,2.3-1.5,3.3c-0.6,0.9-1.9,1-3.1,0.8
    c-1-0.3-2-0.9-3.1-1.3h0.1c-0.9-0.1-1.9-0.4-2.8-0.5c-1-0.1-2.3-0.4-3.2,0.3c-1,0.6-1.3,2.2-2.2,2.8c-0.6,0.5-1.7,0.5-2.5,0.5
    c-0.6,0-1.4,0-2,0c-0.5,0-1,0-1.4-0.3c-0.6-0.4-0.8-1.3-0.8-2c0-0.9,0-1.9,0.5-2.7c0.5-0.6,1.3-1,1.4-1.7c0.1-0.6-0.1-1.3-0.3-1.9
    c-0.1-0.9,0.1-1.9,0.8-2.5c0.1-0.1,0.3-0.3,0.4-0.4c0.4-0.6-0.1-1.5-0.1-2.3c-0.1-0.9,0.4-1.8,1-2.3l0.1-0.3
    c0.5-0.1,0.9-0.4,1.3-0.8c-1-0.6-2.2-1.3-3.2-1.9c-0.1-0.1-0.4-0.3-0.4-0.4c0-0.1,0-0.3,0-0.4c0.5-1.4,2.2-2,3.6-2.7
    c1.4-0.6,2.9-1.9,2.5-3.3c-0.4-1.5-2.3-1.9-3.4-2.9c-0.5-0.5-0.8-1.1-1.3-1.7s-1.1-0.9-1.8-0.8c-0.3,0.1-0.5,0.3-0.8,0.3
    s-0.5,0-0.8,0c-2.3-0.4-4.7-0.6-7-1c-0.6-0.1-1.3-0.3-1.7-0.6c-0.6-0.9-0.1-2.2-0.6-3.2c-0.3-0.4-0.5-0.6-1-0.8
    c-0.6,1.9-1.1,3.7-0.6,4.7c1.3,2.5,0,7.6,0,7.6s1.3,2.5,0,2.5c-1.3,0-2.5,1.3-2.5,2.5s-2.5,5.1,0,6.4c2.5,1.3-1.3,3.8,0,5.1
    c1.3,1.3,1.3,3.8,1.3,6.4s-1.3,1.3-2.5,2.5c-1.3,1.3-2.5,5.1-2.5,6.4c0,1.3,0,2.5-2.5,5.1s-1.3,3.8-2.5,5.1c-1.3,1.3,1.3,1.3,0,3.8
    c-1.3,2.5,0,2.5-2.5,5.1c-2.5,2.5-3.8,3.8-5.1,3.8c-1.3,0-6.4-2.5-5.1,0c1.3,2.5-1.3,2.5-2.5,3.8c-1.3,1.3-3.8,0-5.1,1.3
    c-1.3,1.3-5.1,1.3-5.1,2.5s-2.5,3.8-1.3,5.1s1.3,3.8,0,3.8s-3.8,2.5-3.8,3.8s1.3,2.5-1.3,3.8s-3.8,2.5-3.8,2.5c0,1.3-1.3,2.5,0,3.8
    s1.3,2.5,2.5,2.5s1.3,1.3,1.3,2.5s0,2.5,0,3.8c0,1.3-1.3,1.3,1.3,2.5s6.4,1.3,5.1,2.5c-1.3,1.3-1.3,0-1.3,2.5c0,2.5-1.3,5.1,1.3,5.1
    s3.8,1.3,3.8,1.3s0,1.3,0,2.5c0,1.3,1.3,1.3,2.5,1.3s1.3,0,2.5,1.3c0.5,0.5,0.9,1,1.1,1.5c0,0,0,0,0.1,0c0-0.1,0-0.3,0-0.4
    c0-1.3,3.8-1.3,3.8-1.3s2.5-2.5,5.1-1.3c2.5,1.3,5.1,0,6.4,1.3c1.3,1.3,1.3,2.5,2.5,3.8c1.3,1.3,2.5,1.3,3.8,2.5
    c1.3,1.3,2.5,2.5,2.5,3.8s-1.3,3.8,1.3,5.1s2.5,2.5,2.5,3.8s0,5.1,2.5,6.4s1.3,2.5,3.8,2.5s6.4,1.3,6.4,1.3s2.5,0,3.8,1.3
    c1.3,1.3,2.5,0,3.8,1.3s0,1.3,1.3,3.8c1.3,2.5,0,3.8,2.5,3.8c2.5,0,5.1-1.3,6.4,0c1.3,1.3,3.8,3.8,3.8,3.8s2.5,0,3.8,1.3
    s3.8,2.5,6.4,2.5s3.8,0,5.1,0s1.3,1.3,2.5,1.3c1.3,0,3.8,0,5.1,0s1.3-2.5,2.5-3.8c1.3-1.3,0-2.5,1.3-3.8s3.8-2.5,7.6-2.5
    c2.8,0,3.8-2.5,3.8-3.8s-1.3-3.8-2.5-5.1c-1.3-1.3-6.4-1.3-6.4-2.5c0-1.3-2.5-3.8,1.3-7.6c3.8-3.8,3.8-7.6,3.8-7.6s-1.3-2.5-2.5-2.5
    s-3.3-1.3-5.1-1.3c-1.3,0-2.5,0-3.8-1.3s-2.5-3.8-1.3-5.1s2.5-3.8,3.8-5.1c1.3-1.3,3.8-2.5,3.8-2.5l3.8-2.5c0,0,3.8-2.5,3.8-3.8
    s-1.3-7.6,0-8.9c1.3-1.3,0-5.1,0-5.1s1.3-1.3,0-3.8c-1.3-2.5-2.5-5.1-3.8-5.1s-6.4-1.3-7.6-3.8c-1.3-2.5-2.5-2.5-2.5-5.1
    c0-2.5,1.3-5.1,5.1-6.4s2.5-2.5,5.1-3.8c2.5-1.3,5.1-3.8,7.6-2.5c2.5,1.3,5.1,0,5.1-1.3s1.3-2.5,1.3-3.8s-2.5-3.8-3.8-5.1
    c-1.3-1.3-3.8-5.1-2.5-7.6c1.3-2.5,1.3-5.1,3.8-5.1s1.3-1.3,2.5-2.5c1.3-1.3,2.5-1.3,3.8-3.8c1.3-2.5,1.3-3.8,0-5.1
    C136,34.6,132.4,34.6,132.4,32.1z"/>
</svg>
