<svg viewBox="0 0 180 167" stroke-dasharray="640" stroke-dashoffset="640">
<path d="M114.3,165.1c0,0,1.7-1.7,5.1-3.4s1.7-3.4,1.7-5.1s3.4-5.1,5.1-5.1s1.7-3.4,0-5.1s1.7-5.1,1.7-6.8s5.1-1.7,6.8-3.4
    c1.7-1.7,5.1,0,6.8-1.7c1.7-1.7,5.1-1.7,3.4-5.1c-1.7-3.4,5.1,0,6.8,0c1.7,0,3.4-1.7,6.8-5.1c3.4-3.4,1.7-3.4,3.4-6.8
    c1.7-3.4-1.7-3.4,0-5.1c1.7-1.7,0-3.4,3.4-6.8s3.4-5.1,3.4-6.8s1.7-6.8,3.4-8.5s3.4,0,3.4-3.4s0-6.8-1.7-8.5c-1.7-1.7,3.4-5.1,0-6.8
    c-3.4-1.7,0-6.8,0-8.5s1.7-3.4,3.4-3.4s0-3.4,0-3.4s1.7-6.8,0-10.2c-0.7-1.2-0.1-3.8,0.8-6.3c-1.2-0.5-2.5-0.5-3.6-1.3
    c-1.2-1-1.2-2.9-1.7-4.5c-0.4-1.2-1-2.1-1.3-3.3c-0.7-2.1-0.1-4.1-0.1-6.2s-0.7-4.5-2.5-5.3c-0.7-0.4-1.3-0.4-2.1-0.7
    c-0.5-0.4-0.8-1-1.2-1.6c-1-1.8-2.2-4.1-2.1-6.3c0-1.7,0.7-3.8-0.7-4.7c-0.5-0.4-1.2-0.5-1.6-1c-0.5-1,0.7-2.5-0.1-3.3
    c-1.6,1.8-3.9,3-6.3,3c0.5,1.2,0.8,2.8,0.1,3.6c-0.4,0.4-0.7,0.5-1,0.8c-1,1-1.2,2.5-0.5,3.8v0.5c-0.5,2.1,1.7,4.1,1,5.9
    c-0.1,0.4-0.4,0.5-0.4,0.8c-0.5,1.2,0.4,2.8-0.4,3.9c-0.1,0.5-0.7,0.8-1,1.2c-0.5,0.7-1,1.6-1.2,2.4c-0.1,0.5-0.1,1.2-0.5,1.6
    c-0.1,0.1-0.5,0.4-0.8,0.4c-1.7,0.4-3.4,0.4-5.1,0.5c-1.7,0.1-3.6,0.5-4.7,1.8c-0.1,0.1-0.5,0.5-0.7,0.7c-0.1,0.1-0.5,0.1-0.8,0.1
    c-2.1,0.1-4.2-0.7-5.8-1.8c-0.7-0.7-1.3-1.3-2.2-2.1c-2.1-1.7-5.3-2.4-6.4-4.7c-0.1-0.4-0.4-0.5-0.5-0.7c-0.1-0.1-0.5-0.1-0.7-0.1
    c-1.3,0-2.8,0-3.8,0.8c-0.1,0.1-0.5,0.5-0.8,0.7c-0.7,0.4-1.6-0.1-2.1-0.5s-1-0.7-1.7-1c-0.8-0.5-2.1-1.2-2.9-0.7l-0.4,0.1
    c-1.2,0-2.1,1.3-2.2,2.8c-0.1,1.3,0.1,2.5,0.1,3.8c0,1.2-0.2,2.2-1.6,2.5c-0.5,0.1-1,0.1-1.2,0.5c-0.1,0.1-0.1,0.5,0,0.7
    c0.1,1,0.1,2.2-0.1,3.3c-0.1,1-0.8,2.1-1.3,2.9c-0.1,0.5-0.5,0.8-1,1.2c-0.7,0.4-1.3,0-2.2,0c-0.7-0.1-1.7,0-2.1,0.5
    c-0.4,0.7,0.1,1.3-0.1,2.1c-0.4,1-1.7,0.8-2.8,1c-0.7,0.1-1.2,0.7-1.8,1c-0.8,0.4-1.8,0.4-2.9,0.1c-4.6-0.4-9.2-0.8-13.7-1.2
    c-0.5,0-0.8-0.1-1.3-0.4c-0.4-0.1-0.5-0.7-0.8-0.8c-0.5-0.4-1.2,0-1.8,0c-2.1,0.4-3.8-1-5.5-2.2s-3.8-2.2-5.6-1.2
    c-0.5,0.4-1,0.7-1.6,0.5c-0.4,0-0.7-0.4-1-0.5c-0.7-0.1-1.3,0.5-1.8,1.2S57.7,42,57,41.5l-0.4,0.4c-1.3,0.1-2.5,1.2-3.8,1.8
    c-1.3,0.5-3.3,0.4-3.6-1c-1.6,1.6-3.3,3.3-4.7,4.7c-1.2,1.2-2.4,2.5-1.7,4.1c0.1,0.5,0.7,1.2,0.4,1.7c-0.1,0.4-0.5,0.5-0.8,0.5
    c-1.8,0.8-3.6,1.6-5.5,2.4c1.6,1.2,1.3,3.6,0.1,5.1c-1.2,1.6-3,2.2-5,2.8c-2.1,0.5-4.6,0.8-6.3-0.5c-0.8-0.7-1.6-1.7-2.4-2.2
    c-0.8-0.5-2.5-0.4-2.8,0.8c0,0.4,0.1,0.8-0.1,1.2c-0.1,0.4-0.5,0.4-1,0.4c-1.2,0.1-2.4,0.4-3.6,0.5c0.7,1.2-0.5,2.5-1.8,2.9
    s-2.5-0.1-3.9-0.7c-0.8-0.4-1.7-0.5-2.8-0.7c0.7,0.4,0.5,1.8-1,3.3c-1.9,1.7-5.3,3.4-3.6,5.1s1,1.2,1.7,3.4c1.7,5.1,3.8,5.3,3.4,6.8
    C7.6,85.2,4.4,86,4.4,86s-3.4,0,0,1.7s0,1.7,0,3.4s0,3.4,1.7,3.4s1.7,0,3.4,1.7s1.7,0,1.7,3.4c0,1.7,1.7,3.4,0,3.4s0,1.7-1.7,3.4
    s0,1.7,0,3.4s5.1,3.4,5.1,3.4v3.4c0,0-1.7,1.7,1.7,3.4s3.4,0,3.4,3.4c0,3.4-3.4,3.4,0,5.1c3.4,1.7,1.7,1.7,3.4,3.4
    c1.7,1.7,3.4,3.4,6.8,3.4s8.5-3.4,8.5,0c0,3.4,1.7,1.7,3.4,3.4c1.7,1.7,3.4,5.1,3.4,5.1s0,1.7,3.4,1.7c3.4,0,3.4,0,5.1,1.7
    c1.7,1.7,3.4,3.4,5.1,1.7c1.7-1.7,3.4-1.7,5.1,0c1.7,1.7,1.7,0,5.1,3.4s0,1.7,3.4,3.4c3.4,1.7,1.7,1.7,3.4,1.7c1.7,0,5.1,1.7,5.1,0
    s1.7-1.7,1.7-1.7h3.4c0,0,3.4,3.4,5.1,0c1.7-3.4,1.7-3.4,3.4-3.4s3.4,1.7,5.1,1.7s5.1,3.4,5.1,3.4s0,3.4,1.7,3.4s1.7-1.7,3.4,0
    S114.3,163.4,114.3,165.1z"/>
</svg>
