<svg viewBox="0 0 188 188" stroke-dasharray="715" stroke-dashoffset="715">
<path d="M183.9,131.6c-0.1-0.4-0.1-0.7-0.1-1.1c-0.4-0.5-0.7-1.1-1.2-1.6c-1.4-1.4-1.4-1.4-2.6-1.4s-2.6,0-2.6-1.4
    c0-1.4,0-2.6,0-2.6s-1.4-1.4-3.9-1.4s-1.4-2.6-1.4-5.1c0-2.6,0-1.4,1.4-2.6c1.4-1.4-2.6-1.4-5.1-2.6c-2.6-1.4-1.4-1.4-1.4-2.6
    s0-2.6,0-3.9c0-1.4,0-2.6-1.4-2.6s-1.4-1.4-2.6-2.6c-1.2-1.2,0-2.6,0-3.9c0-1.4-1.4-1.4-2.6-2.6c-1.4-1.4-1.4,0-2.6,0
    c-1.2,0-1.4-2.6-1.4-2.6s-2.6-2.6-3.9-2.6s-2.6-1.4-3.9-1.4c-1.4,0-1.4,0-2.6,2.6c-1.4,2.6-3.9,0-3.9,0h-2.6c0,0-1.4,0-1.4,1.4
    c0,1.4-2.6,0-3.9,0s0,0-2.6-1.4c-2.6-1.4,0,0-2.6-2.6s-2.6-1.4-3.9-2.6c-1.4-1.4-2.6-1.4-3.9,0c-1.4,1.4-2.6,0-3.9-1.4
    c-1.4-1.4-1.4-1.4-3.9-1.4s-2.6-1.4-2.6-1.4s-1.4-2.6-2.6-3.9c-1.4-1.4-2.6,0-2.6-2.6c0-2.6-3.9,0-6.5,0s-3.9-1.4-5.1-2.6
    c-1.4-1.4,0-1.4-2.6-2.6c-2.6-1.4,0-1.4,0-3.9s0-1.4-2.6-2.6c-2.6-1.4-1.4-2.6-1.4-2.6v-2.6c0,0-3.9-1.4-3.9-2.6
    c0-1.4-1.4-1.4,0-2.6c1.4-1.4,0-2.6,1.4-2.6s0-1.4,0-2.6c0-2.6,0-1.4-1.4-2.6c-1.4-1.4-1.4-1.4-2.6-1.4C80,43.3,80,42,80,40.8
    c0-1.4,2.6-1.4,0-2.6c-2.6-1.4,0-1.4,0-1.4s2.4-0.7,2.6-1.4c0.3-1.2-1.4-1.4-2.6-5.1c-0.5-1.6,0-1.4-1.4-2.6
    c-1.4-1.4,1.4-2.6,2.6-3.9c1.2-1.2,1.4-2.2,0.8-2.4c-1.5-0.3-2.8-0.4-4.2-0.4c0.4-1.6-0.5-3.2-1.9-3.9c-1.1-0.4-2.6-0.4-3.1-1.5
    c-0.5-0.8,0-1.9-0.5-2.7c-0.7-1.5-2.7-1.2-4.3-1.2c-0.3,0-0.7,0-0.9-0.3c-1.2-0.7-0.1-2.6-0.7-4.1c-0.7-1.9-3.9-1.4-5-3
    c-0.3-0.4-0.3-0.8-0.7-1.1c-0.9-1.1-2.7,0.3-4.1-0.1c-1.1-0.3-2-1.6-3-1.2c-0.4,0.3-0.7,0.7-1.1,0.9c-0.3,0.3-0.7,0.3-1.1,0.4
    c-3.2,0.5-6.6,1.1-9.9,1.6l-0.4,0.1l0,0c0.1,0.5,0.1,1.2-0.5,1.8c-1.4,1.4-1.4,1.4-1.4,1.4s0,1.4-2.6,2.6c-2.3,1.2-2.6,0-2.6,1.4
    s0,2.6,0,2.6s0,2.6,1.4,2.6s-1.4,3.9,0,5.1c1.4,1.4,2.6,3.9,2.6,3.9s0,1.4-1.4,2.6c-1.4,1.4,1.4,2.6-1.4,2.6c-2.7,0-3.9,1.4-5.1,1.4
    s-3.9,1.4-6.5,0c-2.6-1.4-3.9-2.6-3.9-2.6s-1.4-1.4-1.4-2.6c0-1.4-1.4-2.6-2.6-2.6s0-2.6-2.6-2.6s-6.5-1.4-6.5,0
    c0,1.4-2.6,2.6-2.6,2.6s-2.6,1.4-2.6,2.6C1.7,29,3.1,29,3.1,29v2.6c0,0,0,3.9,1.4,3.9s0,2.6,0,3.9c0,1.4,0,3.9,1.4,3.9
    s2.6,1.4,2.6,1.4S7,46,8.3,48.6s2.6,3.9,3.9,5.1c1.4,1.4,1.4,2.6,1.4,3.9c0,1.4,1.4,6.5,0,7.8c-1.4,1.4,3,5.1,3,7.8
    c0,2.7-1.4,2.6-1.4,2.6s-2.6,0-2.6,1.4c0,1.4-1.4,3.9-1.4,5.1c0,1.4-2.6,2.6-2.6,2.6s0,1.4-1.4,2.6c-1.4,1.2-1.4,3.9,0,5.1
    s6.5,1.4,7.8,2.6s-1.4,1.4-1.4,2.6c0,1.4,1.4,1.4,2.6,2.6s5.1,1.4,5.1,2.6s0,0,0,2.6c0,2.6,0,3.9,1.4,3.9c1.4,0,2.6,0,2.6,1.4
    c0,1.4,2.6,1.4,2.6,2.6c0,1.4,0,1.4,1.4,2.6c1.4,1.4,2.6,3.9,2.6,3.9v1.4l1.4,2.6l1.4,2.6c0,0,1.4,1.4,1.4,2.6c0,1.4,0,2.6,1.4,3.9
    c1.4,1.4,3.9,1.4,3.9,2.6c0,1.2,3.9,0,3.9,0s5.1-1.4,5.1,0s2.6,0,3.9-1.4s2.6,0,2.6,0s1.4,1.4,2.6,0s3.9,2.6,3.9,2.6s0,1.4,1.4,2.6
    c1.4,1.4,2.6,3.9,2.6,3.9s-1.4,3.9,0,3.9c1.4,0-1.4,3.9-1.4,5.1c0,1.2-1.4,2.6-1.4,3.9s0,3.9,1.4,5.1c1.4,1.4-1.4,5.1,1.4,5.1
    c2.7,0,6.5,0,7.8,1.4c1.4,1.4,1.4,1.4,2.6,2.6c1.4,1.4,3.9,2.6,3.9,2.6s1.4,0,1.4,1.4s-1.4,2.6,0,3.9c1.4,1.4,1.4,2.6,2.6,3.9
    s11.6-1.4,14.3,0s5.1,1.4,5.1,1.4s5.1,1.4,6.5,2.6c1.4,1.4,3.9-1.4,6.5-1.4c2.6,0,2.6,3.9,6.5,0s5.1-6.5,5.1-6.5l2.6-2.6
    c0,0,2.6-2.6,1.4-3.9c-1.4-1.4-1.4-2.6-1.4-3.9s-1.4-3.9-1.4-5.1c0-1.4-2.6-5.1-1.4-6.5c1.4-1.4,2.6-5.1,2.6-5.1s1.4-1.4,3.9-1.4
    s3.9-2.6,3.9-2.6s2.6,0,3.9,0s3.9,1.4,5.1,2.6c1.2,1.2,2.6,1.4,3.9,2.6c1.4,1.4,5.1,2.6,6.5,1.4c1.4-1.2,5.1-2.6,5.1-2.6
    s0-1.4,2.6-1.4c2.6,0,3.9-2.6,6.5-2.6s5.1-1.4,6.5-1.4s3.9-2.6,3.9-2.6s2.6-1.4,2.6-3.9c0-2.6,0-2.6-1.4-3.9
    C184.3,134.6,184.1,133,183.9,131.6z"/>
</svg>
