<svg viewBox="0 0 235 140" stroke-dasharray="750" stroke-dashoffset="750">
<path d="M190.5,42.2c-0.8-0.8-3.3-0.8-3.3-2.5s-1.6-1.6-1.6-2.5c0-0.6-0.9-1.2-1.1-2.1l-0.2,0.1c-0.6,0.6-1.6-0.3-2.3,0.1
    c-0.3,0.2-0.4,0.6-0.7,0.7c-0.3,0.2-0.7,0.1-1.2-0.1c-0.9-0.4-1.8-0.7-2.8-0.8c-0.7,0-1.4,0.1-1.7,0.7c-0.4,0.7-0.2,1.6-0.7,2.1
    c-0.4,0.4-1.1,0.5-1.3,1c-0.1,0.2,0,0.6-0.2,0.8c-0.2,0.4-0.9,0.3-1.3,0.2c-2-0.6-3.9-1.2-5.9-2c-0.8-0.3-1.8-0.7-2.5-0.2
    c-0.6,0.4-0.7,1.3-1.4,1.6c-0.5,0.2-1.2,0-1.6,0.2c-0.4,0.2-0.7,0.6-1.1,0.7c-1.1,0.5-2.4-1-3.3-0.3c-0.7,0.4-0.5,1.5-1,2.1
    c-0.4,0.6-1.2,0.7-2,0.5c-0.7-0.2-1.3-0.6-2-0.8h0.1c-0.6-0.1-1.2-0.2-1.8-0.3c-0.7-0.1-1.5-0.2-2.1,0.2c-0.7,0.4-0.8,1.4-1.4,1.8
    c-0.4,0.3-1.1,0.3-1.6,0.3c-0.4,0-0.9,0-1.3,0c-0.3,0-0.7,0-0.9-0.2c-0.4-0.2-0.5-0.8-0.5-1.3c0-0.6,0-1.2,0.3-1.7
    c0.3-0.4,0.8-0.7,0.9-1.1s-0.1-0.8-0.2-1.2c-0.1-0.6,0.1-1.2,0.5-1.6c0.1-0.1,0.2-0.2,0.2-0.2c0.2-0.4-0.1-1-0.1-1.5
    c-0.1-0.6,0.2-1.2,0.7-1.5l0.1-0.2c0.3-0.1,0.6-0.2,0.8-0.5c-0.7-0.4-1.4-0.8-2.1-1.2c-0.1-0.1-0.2-0.2-0.2-0.2c0-0.1,0-0.2,0-0.2
    c0.3-0.9,1.4-1.3,2.3-1.7c0.9-0.4,1.9-1.2,1.6-2.1c-0.2-1-1.5-1.2-2.2-1.9c-0.3-0.3-0.5-0.7-0.8-1.1c-0.3-0.3-0.7-0.6-1.2-0.5
    c-0.2,0.1-0.3,0.2-0.5,0.2c-0.2,0-0.3,0-0.5,0c-1.5-0.2-3-0.4-4.5-0.7c-0.4-0.1-0.8-0.2-1.1-0.4c-0.4-0.6-0.1-1.4-0.4-2.1
    c-0.2-0.2-0.3-0.4-0.7-0.5c-0.6-0.2-1.2-0.2-1.7-0.7c-0.6-0.5-0.6-1.4-0.8-2.1c-0.2-0.6-0.5-1-0.7-1.6c-0.3-1-0.1-2-0.1-3
    s-0.3-2.1-1.2-2.5c-0.3-0.2-0.7-0.2-1-0.3c-0.2-0.2-0.4-0.5-0.6-0.7c-0.5-0.9-1.1-2-1-3c0-0.8,0.3-1.8-0.3-2.3
    c-0.2-0.2-0.6-0.2-0.7-0.5c-0.2-0.5,0.3-1.2-0.1-1.6c-0.7,0.9-1.9,1.5-3,1.5c0.2,0.6,0.4,1.3,0.1,1.7c-0.2,0.2-0.3,0.2-0.5,0.4
    c-0.5,0.5-0.6,1.2-0.2,1.8v0.2c-0.2,1,0.8,2,0.5,2.9c-0.1,0.2-0.2,0.2-0.2,0.4c-0.2,0.6,0.2,1.3-0.2,1.9c-0.1,0.2-0.3,0.4-0.5,0.6
    c-0.2,0.3-0.5,0.7-0.6,1.2c-0.1,0.2-0.1,0.6-0.2,0.7c-0.1,0.1-0.2,0.2-0.4,0.2c-0.8,0.2-1.6,0.2-2.5,0.2c-0.8,0.1-1.7,0.2-2.3,0.9
    c-0.1,0.1-0.2,0.2-0.3,0.3c-0.1,0.1-0.2,0.1-0.4,0.1c-1,0.1-2.1-0.3-2.8-0.9c-0.3-0.3-0.7-0.7-1.1-1c-1-0.8-2.5-1.2-3.1-2.3
    c-0.1-0.2-0.2-0.2-0.2-0.3c-0.1-0.1-0.2-0.1-0.3-0.1c-0.7,0-1.3,0-1.8,0.4c-0.1,0.1-0.2,0.2-0.4,0.3c-0.3,0.2-0.7-0.1-1-0.2
    c-0.2-0.2-0.5-0.3-0.8-0.5c-0.4-0.2-1-0.6-1.4-0.3l-0.2,0.1c-0.6,0-1,0.7-1.1,1.3s0.1,1.2,0.1,1.8s-0.2,1.3-0.9,1.5
    c-0.2,0.1-0.5,0.1-0.6,0.2c-0.1,0.1-0.1,0.2,0,0.3c0.1,0.5,0.1,1.1-0.1,1.6c-0.1,0.5-0.4,1-0.7,1.4c-0.1,0.2-0.2,0.4-0.5,0.6
    c-0.3,0.2-0.7,0-1.1,0c-0.3-0.1-0.8,0-1,0.2c-0.2,0.3,0.1,0.7-0.1,1c-0.2,0.5-0.8,0.4-1.3,0.5c-0.3,0.1-0.6,0.3-0.9,0.5
    c-0.4,0.2-0.9,0.2-1.4,0.1c-2.2-0.2-4.4-0.4-6.6-0.6c-0.2,0-0.4-0.1-0.7-0.2c-0.2-0.1-0.2-0.3-0.4-0.4c-0.2-0.2-0.6,0-0.9,0
    c-1,0.2-1.8-0.5-2.6-1.1c-0.8-0.6-1.8-1.1-2.7-0.6c-0.2,0.2-0.5,0.3-0.7,0.2c-0.2,0-0.3-0.2-0.5-0.2c-0.3-0.1-0.7,0.2-0.9,0.6
    c-0.2,0.3-0.7,0.7-1,0.4l-0.2,0.2c-0.7,0.1-1.2,0.6-1.8,0.9c-0.7,0.2-1.6,0.2-1.7-0.5c-0.7,0.7-1.6,1.6-2.3,2.3
    c-0.6,0.6-1.2,1.2-0.8,2c0.1,0.2,0.3,0.6,0.2,0.8c-0.1,0.2-0.2,0.2-0.4,0.2c-0.9,0.4-1.7,0.7-2.6,1.2c0.7,0.6,0.7,1.7,0.1,2.5
    c-0.6,0.7-1.5,1.1-2.4,1.3c-1,0.2-2.2,0.4-3-0.2c-0.4-0.3-0.7-0.8-1.2-1.1c-0.4-0.2-1.2-0.2-1.3,0.4c0,0.2,0.1,0.4-0.1,0.6
    C58.6,32,58.5,32,58.2,32c-0.6,0.1-1.2,0.2-1.7,0.2c0.3,0.6-0.2,1.2-0.9,1.4c-0.7,0.2-1.2-0.1-1.9-0.3c-0.4-0.2-0.8-0.2-1.3-0.3
    c-0.9-0.2-1.8-0.2-2.6-0.2c0.2-1-0.3-2.1-1.2-2.5c-0.7-0.2-1.6-0.2-2-0.9c-0.3-0.5,0-1.2-0.3-1.7c-0.4-0.9-1.7-0.7-2.7-0.7
    c-0.2,0-0.4,0-0.6-0.2c-0.7-0.4-0.1-1.6-0.4-2.5c-0.4-1.2-2.5-0.8-3.2-1.9c-0.2-0.2-0.2-0.5-0.4-0.7c-0.6-0.7-1.7,0.2-2.5-0.1
    c-0.7-0.2-1.3-1.1-1.9-0.7c-0.2,0.2-0.4,0.4-0.7,0.6c-0.2,0.2-0.4,0.2-0.7,0.2c-2.1,0.3-4.2,0.7-6.2,1l-0.2,0.1l0,0
    c0.1,0.3,0.1,0.7-0.3,1.2c-0.8,0.8-0.8,0.8-0.8,0.8s0,0.8-1.6,1.6c-1.5,0.7-1.6,0-1.6,0.8s0,1.6,0,1.6s0,1.6,0.8,1.6s-0.8,2.5,0,3.3
    c0.8,0.8,1.6,2.5,1.6,2.5s0,0.8-0.8,1.6c-0.8,0.8,0.8,1.6-0.8,1.6s-2.5,0.8-3.3,0.8s-2.5,0.8-4.1,0c-1.6-0.8-2.5-1.6-2.5-1.6
    s-0.8-0.8-0.8-1.6c0-0.8-0.8-1.6-1.6-1.6c-0.8,0,0-1.6-1.6-1.6S5,32.9,5,33.8c0,0.8-1.6,1.6-1.6,1.6s-1.6,0.8-1.6,1.6
    c0,0.8,0.8,0.8,0.8,0.8v1.6c0,0,0,2.5,0.8,2.5s0,1.6,0,2.5c0,0.8,0,2.5,0.8,2.5s1.6,0.8,1.6,0.8s-0.8,0.8,0,2.5s1.6,2.5,2.5,3.3
    c0.8,0.8,0.8,1.6,0.8,2.5c0,0.8,0.8,4.1,0,4.9c-0.8,0.8,1.6,3.3,1.6,4.9c0,1.6-0.8,1.6-0.8,1.6s-1.6,0-1.6,0.8s-0.8,2.5-0.8,3.3
    s-1.6,1.6-1.6,1.6s0,0.8-0.8,1.6s-0.8,2.5,0,3.3s4.1,0.8,4.9,1.6c0.8,0.8-0.8,0.8-0.8,1.6c0,0.8,0.8,0.8,1.6,1.6
    c0.8,0.8,3.3,0.8,3.3,1.6c0,0.8,0,0,0,1.6s0,2.5,0.8,2.5s1.6,0,1.6,0.8s1.6,0.8,1.6,1.6c0,0.8,0,0.8,0.8,1.6
    c0.8,0.8,1.6,2.5,1.6,2.5v0.8l0.8,1.6l0.8,1.6c0,0,0.8,0.8,0.8,1.6s0,1.6,0.8,2.5c0.8,0.8,2.5,0.8,2.5,1.6s2.5,0,2.5,0
    s3.3-0.8,3.3,0s1.6,0,2.5-0.8c0.8-0.8,1.6,0,1.6,0s0.8,0.8,1.6,0c0.8-0.8,2.5,1.6,2.5,1.6s0,0.8,0.8,1.6c0.8,0.8,1.6,2.5,1.6,2.5
    s-0.8,2.5,0,2.5c0.8,0-0.8,2.5-0.8,3.3s-0.8,1.6-0.8,2.5c0,0.8,0,2.5,0.8,3.3c0.8,0.8-0.8,3.3,0.8,3.3s4.1,0,4.9,0.8
    c0.8,0.8,0.8,0.8,1.6,1.6c0.8,0.8,2.5,1.6,2.5,1.6s0.8,0,0.8,0.8c0,0.8-0.8,1.6,0,2.5c0.8,0.8,0.8,1.6,1.6,2.5c0.8,0.8,7.4-0.8,9,0
    c1.6,0.8,3.3,0.8,3.3,0.8s3.3,0.8,4.1,1.6c0.8,0.8,2.5-0.8,4.1-0.8c1.6,0,1.6,2.5,4.1,0c2.5-2.5,3.3-4.1,3.3-4.1l1.6-1.6
    c0,0,1.6-1.6,0.8-2.5c-0.8-0.8-0.8-1.6-0.8-2.5c0-0.8-0.8-2.5-0.8-3.3c0-0.8-1.6-3.3-0.8-4.1c0.8-0.8,1.6-3.3,1.6-3.3
    s0.8-0.8,2.5-0.8c1.6,0,2.5-1.6,2.5-1.6s1.6,0,2.5,0s2.5,0.8,3.3,1.6c0.8,0.8,1.6,0.8,2.5,1.6c0.8,0.8,3.3,1.6,4.1,0.8
    c0.8-0.8,3.3-1.6,3.3-1.6s0-0.8,1.6-0.8c1.6,0,2.5-1.6,4.1-1.6c1.6,0,3.3-0.8,4.1-0.8s2.5-1.6,2.5-1.6s1.6-0.8,1.6-2.5
    c0-1.6,0-1.6-0.8-2.5c-0.6-0.6-0.7-1.6-0.8-2.5c-0.1-0.2-0.1-0.4-0.1-0.7c0,0,0,0,0.1,0c0-0.1,0-0.2,0-0.2c0-0.8,2.5-0.8,2.5-0.8
    s1.6-1.6,3.3-0.8c1.6,0.8,3.3,0,4.1,0.8c0.8,0.8,0.8,1.6,1.6,2.5c0.8,0.8,1.6,0.8,2.5,1.6c0.8,0.8,1.6,1.6,1.6,2.5s-0.8,2.5,0.8,3.3
    c1.6,0.8,1.6,1.6,1.6,2.5c0,0.8,0,3.3,1.6,4.1c1.6,0.8,0.8,1.6,2.5,1.6s4.1,0.8,4.1,0.8s1.6,0,2.5,0.8c0.8,0.8,1.6,0,2.5,0.8
    c0.8,0.8,0,0.8,0.8,2.5c0.8,1.6,0,2.5,1.6,2.5c1.6,0,3.3-0.8,4.1,0c0.8,0.8,2.5,2.5,2.5,2.5s1.6,0,2.5,0.8s2.5,1.6,4.1,1.6
    c1.6,0,2.5,0,3.3,0c0.8,0,0.8,0.8,1.6,0.8c0.8,0,2.5,0,3.3,0c0.8,0,0.8-1.6,1.6-2.5s0-1.6,0.8-2.5c0.8-0.8,2.5-1.6,4.9-1.6
    c1.8,0,2.5-1.6,2.5-2.5s-0.8-2.5-1.6-3.3s-4.1-0.8-4.1-1.6s-1.6-2.5,0.8-4.9c2.5-2.5,2.5-4.9,2.5-4.9s-0.8-1.6-1.6-1.6
    s-2.1-0.8-3.3-0.8c-0.8,0-1.6,0-2.5-0.8c-0.8-0.8-1.6-2.5-0.8-3.3c0.8-0.8,1.6-2.5,2.5-3.3c0.8-0.8,2.5-1.6,2.5-1.6l2.5-1.6
    c0,0,2.5-1.6,2.5-2.5s-0.8-4.9,0-5.8c0.8-0.8,0-3.3,0-3.3s0.8-0.8,0-2.5c-0.8-1.6-1.6-3.3-2.5-3.3c-0.8,0-4.1-0.8-4.9-2.5
    c-0.8-1.6-1.6-1.6-1.6-3.3c0-1.6,0.8-3.3,3.3-4.1c2.5-0.8,1.6-1.6,3.3-2.5c1.6-0.8,3.3-2.5,4.9-1.6c1.6,0.8,3.3,0,3.3-0.8
    s0.8-1.6,0.8-2.5c0-0.8-1.6-2.5-2.5-3.3c-0.8-0.8-2.5-3.3-1.6-4.9c0.8-1.6,0.8-3.3,2.5-3.3s0.8-0.8,1.6-1.6c0.8-0.8,1.6-0.8,2.5-2.5
    C190.7,43.5,191.4,43,190.5,42.2z"/>
<path d="M215.2,85.7c-1.6,0.8-2.5,0.8-2.5,2.5c0,1.6,0,3.3,0,4.1s0,2.5-1.6,3.3s-2.5,0.8-3.3,1.6c-0.8,0.8-0.8,2.5-2.5,2.5
    c-1.6,0-4.9,0-4.9,0.8c0,0.8-0.8,2.5,0,3.3c0.8,0.8,0.8,1.6,0.8,2.5s0,2.5-0.8,3.3c-0.8,0.8,0,1.6,0,2.5c0,0.8-0.8,4.1,0,4.9
    c0.8,0.8,0.8,0,2.5,0.8c1.6,0.8,2.5,3.3,3.3,3.3c0.8,0,1.6,1.6,2.5,2.5c0.8,0.8,0.8,2.5,1.6,2.5c0.8,0,2.5-0.8,2.5,1.6
    c0,1.2,0,1.6,0,2.5c0,0.8,2.5,3.3,1.6,4.1c-0.8,0.8,0.8,2.5,1.6,2.5c0.8,0,2.5-1.6,3.3-0.8c0.8,0.8,3.3,1.6,4.1,0.8s0.8-4.1,1.6-4.1
    c0.8,0,1.6-1.6,1.6-3.3c0-1.6-1.6-4.1,0-4.1c1.6,0,1.6-3.3,3.3-3.3s3.3-1.6,3.3-2.5c0-0.8-0.8-1.6-0.8-3.3c0-1.6,1.6-3.3,0.8-4.1
    c-0.8-0.8,0-4.9-2.5-4.9c-2.5,0-4.9-0.8-4.9-1.6c0-0.8-2.5-1.6-2.5-3.3c0-1.6,0-3.3,0.8-4.1c0.8-0.8,2.5-2.5,1.6-3.3
    c-0.8-0.8,0-2.5-0.8-3.3c-0.8-0.8-2.5-2.5-3.3-1.6c-0.8,0.8-2.5,0-2.5-0.8c0-0.8-0.3-2.2-0.8-3.3C217.7,84.1,216.8,84.9,215.2,85.7z
    "/>
</svg>