<svg viewBox="0 0 235 207" stroke-dasharray="800" stroke-dashoffset="800">
<path d="M38.7,6.6c0,0-4.6,0-4.6,2.3c0,1.1,0,4.6-1.1,4.6c-1.7,0,1.7,3.4,1.1,4.6c-1.1,2.3-1.1,4.6,0,6.9c1.1,2.3,1.1,4.6-1.1,5.7
    c-2.3,1.1-9.2,1.1-8,3.4c1.1,2.3,1.1,5.7-1.1,6.9s0,3.4-3.4,5.7c0,5.7-8,1.1-9.2,2.3C10,50.2,6.6,52.5,7.8,56
    c1.1,3.4-2.3,5.7-1.1,5.7s9.9,0.5,8,2.3c-1.1,1.1,0.9,3.4,1.1,4.8c0.3,2,3.4,4.4-1.1,5.5c-2.3,2.3,0,6.9-2.3,6.9
    c-0.9,0-4.7-1.4-6.9-1.1c-1.1,1.1-4.1,2.1-3.4,3.4c0.5,0.9,2.2,2.1,2.3,3.4c-2.3,1.1-0.9,4.9,1.1,4.6c2.3-1.1,5.7,3.4,9.2,3.4
    c1.1,2.3,2.3,5.7,1.1,6.9s-4.6,0-3.4,4.6c0.5,1,2.6,1.4,3.4,2.3c-1.1,2.3,0.7,2.8,0,3.4c-1.1,1.1,0,3.4,2.3,4.6
    c2.3,4.6,4.6-2.3,6.9,0c0,2.3,4.6,4.6,8,2.3c1.6,0,2.6,0.7,3.4,1.7c0.9,1.1,2.3,2.9,0,4c0,4.6,5.7,6.9,2.3,8c-2.3-1.1-2.5,2.5-4.1,3
    c-1.6,0.5-1.6,2.8-2.8,3.9c-1.6,1.6,1.1,3.4,3.4,4.6c2.3-1.1,3.4-3.4,6.9-2.3c0,1.1,2.3,2.3,3.4,2.3c1.4,0,1.6,2.2,2.3,3.4
    c0.3,0.8,2.3,2.3,3.4,1.1c1.5,1.8,2.6,3.1,1.1,4.6c-3.4,1.1-3.4,5.7-1.1,5.7c3.4-1.1,2.3,2.3,4.6,1.1c1-0.5,1.1-3.4,3.6-2.6
    c1.6-1.1,3.3,0.3,4.5-0.8c0.8,0.8,1.5,1.6,2,2.4c0.9,1.5,2.6,4.5,0.3,4.5c-1.1,2.3,3.4,2.3,5.7,3.4s5.7,0,5.7,1.1s2.1,3.2,2.3,4.6
    c-1.1,0-1.1,2.3-2.3,3.4c-0.9,0.9,1.1,3.4-2.2,3.1c-3.6,1.5-0.9,3.6-0.1,4.9c-2.3,3.4,2.3,4.6,3.6,4.2c2.1-0.5,1,6.1,4.5,2.6
    c1,0,3.4-0.2,5.7-0.2c2.6,0,4.6-4.4,5.7,1.4c1.1,2.3,2.3,3.4,4.6,3.4c1.4,0,3.6-1.3,6.1-2.3c-0.3-4.6,3.6-1.1,5.4-1.1
    c4.6,0,1.1-9.2,6.9-3.4c3.4-1.1,4.6-3.4,3.4-8c-2.3-2.3,4.6-6.9-2.1-5.9c-3.3-0.2-0.5-6.3,0.9-5.6c1.1,2.3,4.6,3.4,6.9,0
    c-0.5-1-0.2-3.4,1.1-3.4c1.1,0,0.5-3.4,1.1-3.4c1.1,0,1.1-3.4,4.6-2.3c1.6,0.6,3.9-0.6,5.7,0c1.1,3.4,3.4,2.9,4.6,2.3
    c2.3-1.1,4.6,0,6.9-1.1c-3.4-5.7,2.3-3.4,1.1-4.6c-0.7-0.7-1.5-3.7-1.3-6.1c0.1-1.5-2.2-3.1,1.3-3.1c2.4,0.8,4.6-1.1,5.7-3.4
    c-2.3-3.4,0.9-3.1,0.6-4.8c-0.3-1.6-4-3.2-2.9-4.4c1.4-1.4-2.6-2.3-3.2-3.6c-0.6-1.4-0.3-2.8,0.9-3.3c2.3-1.1-2.3-6.9,2.3-6.9
    c1.1-2.3,4,0.6,6.9-2.3c3.4-3.4-2.3-8,1.1-6.9c2.3-1.1,1.1-5.7,4.6-4.6c1.6,0.6,3.3-0.7,4.8-2.1c-0.2-4.8,3.2-3.1,4.4-2.5
    c1.6,0.8-1-2.3-2.3-4.6c-0.6-1,0.3-2,0-2.3c-1.1-1.1-0.9-4.6-3.4-4.6c-2.3,0-0.8-2.1-1-3.1c-0.5-1.5-1-2.6-2.4-2.6
    c-1.3,0-3.4,3.4-6.4,0.6c-1.8,0.5-3.4,1.4-3.9,2.9c-0.6,1.7-3.4,4.6-4.6,2.3c-0.8-1.6-4.7,1.8-6.2,1.5c-1.1-0.2-3-0.3-3-3.8
    c0-2.2-2.4-1-3.2-2.5c-0.9-1.8-1.4-5.5-3.7-3.2c-4.6,1.1-6.9-1.1-6.9,2.3c0,1.6-1.8,0.9-4-0.6c-0.8-0.6-2.9,0.6-1.7-2.9
    c0.3-1-2.4-0.3-3.2-0.9c-0.6-0.5-1-1-1.4-1.4c-2.3-2.3-5.7,0-5.7,0s-2.3,3.4-4.6,4.6c-1,0.6-1.1,4.6-4,0.7c-1.6-0.1-2.9-0.7-2.9-1.8
    c0-1,0-2.8-0.1-4.5c3.6-2.4-0.5-4-1-4.7c-0.6-0.6-5.7,0-3.6-3.1c-1.6-1.1-3.3-2.1-4.5-1.5c-2.3,1.1-5.7,0-5.7-2.3
    c0-1.1,3.4-2.3,0.8-4.8c0.6-1.7,1.5-3.2,2.6-3.2c1.4,0,3.6-0.8,4.8-2.2c0.9-0.9,1.4-2.2,0.9-3.6c-0.7-2.1-3.4-5.7-0.1-5.2
    c0.3-1,0.8-2,1.3-2.9c1.1-2.3,3.4-4.6,1.1-4.6c-1.3,0-6.9,1.1-5.9-1.8c-1.5-0.8-2.9-1.8-3.3-2.8c-1.1-2.3-4.6,0-3.4-3.4
    c0.6-1.6,0.3-3.3-0.3-4.7c-0.7-1.5-2-2.2-2-4.5c0-1-3.4,0.3-4.8,0.1c-1.8-0.5-3.7-1-4.4-2.4c-1.1-2.3-4.6,1.1-5.7-1.1s4.6-5.7,2.3-8
    c-1-1,0-5.7-3.3-3.9C67,9.3,65.8,6,64,6.6c-2.3,0.8-4.5,0.9-5.7,0c-0.7-0.5,0-2-1.1-2.3C53.7,3.1,54.8,2,52.5,2
    c-2.3,0-1.1,5.7-4.6,5.7c-1.1,2.3-4.6,1.1-4.6-0.3C41,3.1,38.7,6.6,38.7,6.6z"/>
<path d="M202.9,167.3c0,0,3.4-3.4,3.4-4.6s-1.1-4.6,0-5.7s2.3-5.7,0-6.9s-1.1-6.9-1.1-6.9s1.1-5.7,2.3-5.7s2.3,2.3,3.4,1.1
    s0-4.6,2.3-4.6c2.3,0,3.4-1.1,4.6-2.3s-1.1-3.4,0-4.6s4.6-2.3,3.4-3.4s0-3.4,0-3.4s1.1-1.1,2.3-1.1s0,1.1,1.1,2.3
    c1.1,1.1,1.1,1.1,1.1,2.3s0,5.7,0,5.7s2.3,1.1,3.4,1.1s1.1,0,1.1,1.1s0,2.3,1.1,3.4s2.3-1.1,2.3,1.1s-3.4,4.6-3.4,5.7
    s-5.7,2.3-4.6,3.4s-1.1,4.6,1.1,4.6s3.4,1.1,3.4,1.1s0,2.3-1.1,2.3s-2.3,1.1-2.3,2.3s-2.3,2.3-1.1,3.4s0,4.6-1.1,4.6
    s-2.3,1.1-3.4,1.1s-6.9,1.1-5.7,2.3s-3.4,1.1-4.6,5.7s-4.6,1.1-6.9,0S201.8,169.6,202.9,167.3z"/>
<path d="M189.1,166.2c0,0,0,2.3-1.1,3.4c-1.1,1.1-1.1,5.7,0,5.7c1.1,0,1.1,2.3,2.3,2.3s4.6,0,4.6-2.3s-2.3-3.4-2.3-5.7
    s-1.1-3.4-2.3-3.4S189.1,166.2,189.1,166.2z"/>
<path d="M171.9,186.8c-1.1,1.1,2.3,2.3,2.3,3.4c0,1.1,0,3.4,1.1,2.3s4.6-5.7,3.4-5.7s-1.1-3.4-2.3-4.6s-1.1-1.1-2.3,0
    S173.1,185.7,171.9,186.8z"/>
<path d="M155.8,183.4c0,0-1.1,3.4-2.3,3.4s-6.9,1.1-5.7,2.3s2.3,3.4,2.3,4.6s-2.3,2.3-2.3,2.3s-1.1,2.3,0,2.3s2.3,2.3,3.4,2.3
    s4.6,1.1,4.6,2.3s3.4,3.4,4.6,2.3s1.1-3.4,2.3-3.4c1.1,0,0-2.3-3.4-2.3c-3.4,0,0-1.1-1.1-2.3s-2.3-5.7-1.1-5.7s1.1-4.6,0-4.6
    S158.1,183.4,155.8,183.4z"/>
</svg>
