<svg viewBox="0 0 231 148" stroke-dasharray="820" stroke-dashoffset="820">
<path d="M67.5,126.8c-0.8,0.8,2.5,0.8,0.8,2.5s1.7,3.4,1.7,4.2c0,0.8,5.9,1.7,6.8,0.8c0.8-0.8,2.5-0.8,3.4,0c0.8,0.8,5.9,0,6.8-0.8
    c0.8-0.8,4.2-0.8,5.9-0.8s1.7-0.8,3.4-1.7c1.7-0.8,3.4-0.8,5.1-0.8s0-4.2,0-5.1s-0.8-2.5,0-3.4s1.7-2.5,3.4-1.7s2.5,0,3.4-1.7
    s2.5-0.8,3.4-0.8s3.4-1.7,5.1-1.7s2.5,1.7,3.4,2.5s3.4,0.8,4.2,1.7s0.8,2.5,2.5,3.4c1.7,0.8,0,5.9,0,6.8c0,0.8,2.5,2.5,3.4,3.4
    c0.8,0.8,2.5,1.7,3.4,0.8c0.8-0.8,1.7,0.8,2.5,0.8c0.8,0,0,3.4-1.7,3.4s-0.8,3.4-0.8,5.1s2.5,0,3.4,0.8c0.8,0.8,0.8,1.7,2.5,1.7
    s2.5-1.7,4.2-1.7s3.4,0.8,5.1,0.8s2.5-1.7,4.2-1.7s1.7-1.7,2.5-2.5c0.8-0.8,2.5-1.7,1.7-2.5c-0.8-0.8,1.7-2.5,2.5-3.4
    c0.8-0.8,0.8-0.8,0-2.5s1.7-1.7,2.5-1.7c0.8,0,2.5,0.8,3.4,0.8c0.8,0,0,1.7,0.8,3.4c0.8,1.7,1.7,1.7,3.4,2.5
    c1.7,0.8,1.7,0.8,1.7-0.8s3.4,0,3.4-0.8c0-0.8,2.5,0.8,2.5-0.8s1.7-2.5,2.5-2.5c0.8,0,3.4,0,4.2-0.8c0.8-0.8,2.5,0.8,3.4,0.8
    c0.8,0,1.7,0,2.5,0.8c0.8,0.8,5.1,0,5.9,0c0.8,0,0-2.5,2.5-2.5c2.5,0,1.7,0.8,2.5,0.8c0.8,0,3.4,1.7,4.2,2.5c0.8,0.8,2.5,0.8,3.4,0
    c0.8-0.8,4.2,1.7,5.9,3.4s2.4,0.3,5.1,1.7c2.1,1,3.6,2.7,4.3,3.9c0.1,0,0.1,0,0.2,0s0.3-0.1,0.3-0.2c0.2-0.1,0.3-0.2,0.4-0.3
    c0.1,0,0.1-0.1,0.1-0.1c0-0.1,0-0.2,0.1-0.2l0.1-0.1c0.2-0.1,0.4-0.3,0.6-0.3c-0.1-0.1-0.2-0.2-0.2-0.3c-0.8-0.8,0-2.5-0.8-3.4
    c-0.8-0.8-0.8-3.4-0.8-5.1c0-1.7,0.8-2.5,0-4.2c-0.8-1.7-1.7-0.8-2.5-2.5c-0.8-1.7,4.2-2.5,5.1-4.2c0.8-1.7,0-1.7-0.8-3.4
    c-0.8-1.7,1.7-1.7,2.5-2.5c0.8-0.8,1.7-4.2,1.7-5.9s-2.5-3.4-2.5-5.1c0-1.7-1.7-3.4-2.5-4.2c-0.8-0.8-3.4-1.7-4.2-1.7
    c-0.8,0-1.7-2.5-3.4-1.7s-4.2-1.7-5.1-2.5c-0.8-0.8-4.2-1.7-5.1-2.5c-0.8-0.8-5.1,0.8-5.9,0.8c-2.5,0-3.4-0.8-5.1-0.8
    c-0.8,0,0-1.7,0.8-3.4s0-4.2-0.8-5.1c-0.8-0.8-0.8-0.8-1.7-1.7c-0.8-0.8-0.8-5.9,0-5.9c0.8,0,0.8-5.1,0.8-6.8s-1.7-3.4-2.5-4.2
    c-0.8-0.8-2.5-0.8-3.4-1.7c-0.8-0.8-5.1-0.8-5.9-1.7c-0.8-0.8-1.7,0-0.8-0.8c0.8-0.8-0.8-4.2-1.7-4.2c-0.8,0-0.8-3.4-1.7-4.2
    c-0.8-0.8,2.5-2.5,3.4-4.2c0.8-1.7-1.7-4.2-0.8-5.9c0.8-1.7-0.8-4.2-1.7-5.1c-0.8-0.8,0-4.2,0.8-5.1c0.8-0.8,0.8-3.4,0.8-5.1
    c0-1.7-1.7-3.4-3.4-4.2c-1.7-0.8-4.2-0.8-5.9-1.7c-1.7-0.8-1.7-2.5-4.2-3.4c-2.5-0.8-2.5-2.5-3.4-4.2c-0.8-1.7,0-2.5,0-4.2
    s-3.4-1.7-4.2-2.5c-0.8-0.8-3.4-0.8-5.1-1.7s-6.8-0.8-8.5-0.8s-1.7-1.7-2.5-2.5c-0.8-0.8-1.7,0-2.5,0.8s0.8,3.4,2.5,3.4
    s0.8,3.4,2.5,3.4s2.5,2.5,3.4,4.2c0.8,1.7,0.8,3.4,1.7,5.9c0.8,2.5-0.8,2.5,0.8,5.9s0.8,5.1,1.7,7.6c0.8,2.5-0.8,4.2-1.7,5.1
    s-1.7,3.4-4.2,4.2c-2.5,0.8-2.5,1.7-4.2,2.5s-2.5,3.4-3.4,3.4c-0.8,0-2.5,0.8-3.4,2.5c-0.8,1.7-4.2,3.4-5.9,4.2
    c-1.7,0.8-4.2,0-4.2-0.8s-3.4-0.8-5.1-0.8s-4.2-5.1-5.1-5.9c-0.8-0.8-5.1-0.8-5.9-1.7s-2.5,0-4.2,1.7c-1.7,1.7-6.8,5.1-8.5,5.1
    s-3.4,0.8-5.1,1.7c-1.7,0.8-5.9-0.8-7.6-0.8s-1.7-2.5-2.5-4.2s-3.4-1.7-4.2-1.7s-3.4-0.8-5.1-2.5s-2.5-0.8-3.4-0.8
    c-0.8,0,0-3.4,0.8-4.2s0-4.2-0.8-5.9c-0.8-1.7-3.4-0.8-4.2-0.8s-2.5-1.7-3.4-0.8s-6.8-0.8-6.8-1.7c0-0.8-0.8-1.7-2.5-1.7
    s-2.5-2.5-3.4-4.2c-0.8-1.7-2.5-2.5-4.2-2.5c-1.7,0-1.7,1.7-2.5,2.5s-2.5,0.8-0.8,3.4s0,5.9,0,7.6c0,1.7-3.4,2.5-4.2,3.4
    s-1.7,2.5-4.2,2.5c-2.5,0-2.5,5.1-0.8,5.9c1.7,0.8,1.7,5.9,0.8,7.6c-0.8,1.7-2.5,2.5-5.1,1.7s-5.1,0-5.9,0.8
    c-0.8,0.8-4.2,1.7-5.9,1.7c-1.7,0-4.2,0.8-5.9,1.7s-2.5,0.8-5.1,0.8s-2.5,4.2-4.2,6.8s0,5.1,1.7,5.9s1.7,3.4,3.4,4.2
    s3.4,2.5,3.4,4.2c0,1.7,2.5,2.5,4.2,3.4s2.5,3.4,2.5,5.1s-0.8,3.4-1.7,4.2c-0.8,0.8,0,3.4-0.8,4.2c-0.8,0.8,2.5,1.7,3.4,3.4
    c0.8,1.7,0.8,4.2,0,6.8s0.8,3.4,0.8,4.2s-0.8,4.2-0.8,5.9s5.1,0.8,6.8,1.7c1.7,0.8,5.9-1.7,7.6,0s5.9-4.2,7.6-4.2
    c1.7,0,2.5-2.5,4.2-3.4c1.7-0.8,2.5,0.8,3.4,0s1.7,1.7,3.4,2.5c1.7,0.8-0.3,3.3-0.8,5.1c-0.8,2.5,5.1,0.7,5.1,2.5
    c0,1.7,3.4,0,4.2-0.8s2.5-1.7,3.4-3.4s1.7,0.8,3.4,1.7S68.4,126,67.5,126.8z"/>
</svg>
