<svg viewBox="0 0 50 50"><path d="M47.8 7.6c-.5-1.2-1.5-2.8-3-4-.9-.7-1.9-1.3-3.3-1.7-1.6-.4-3.4-.6-5.8-.6H14.3c-2.4 0-4.2.1-5.7.6a9.02 9.02 0 0 0-3.4 1.7c-1.5 1.2-2.6 2.8-3.1 4-.9 2.4-.9 5.1-.9 6.7v21.4c0 1.7 0 4.4.9 6.7.5 1.2 1.5 2.8 3 4 .9.7 1.9 1.3 3.3 1.7 1.5.4 3.4.6 5.7.6h21.4c2.4 0 4.2-.1 5.7-.6 1.4-.4 2.5-1.1 3.3-1.7 1.5-1.2 2.6-2.8 3-4 .9-2.4.9-5.1.9-6.7V14.3c.3-1.7.3-4.4-.6-6.7zM29 33.5c-.1 1.4-.4 3.4-.7 5.3-.2 1.4-.4 2.2-.6 2.7-.2.9-1.3 1.6-2.8 1.6s-2.5-.8-2.8-1.6l-.6-2.7-.7-5.3c-.1-1.5-.2-2.5-.1-3.6 0-.6.3-1 .6-1.3.7-.8 2-1.3 3.4-1.3s2.7.5 3.4 1.3c.4.4.6.8.6 1.3.5 1.1.4 2.1.3 3.6zm-10.2-3.7c.1.1.2.3.2.5v1.9c0 .2-.2.3-.3.2-3-2-5-5.5-4.9-9.4.1-5.9 4.8-10.8 10.7-11 6.4-.2 11.7 4.9 11.6 11.2 0 3.9-1.9 7.2-4.9 9.2-.1.1-.4 0-.3-.2v-1.9c0-.2.1-.4.2-.5 1.8-1.7 2.9-4 2.9-6.6 0-5.1-4.2-9.2-9.4-9.1-4.8.2-8.6 4-8.7 8.8 0 2.8 1.1 5.2 2.9 6.9zm10.1-7.9a3.84 3.84 0 0 1-3.9 3.9 3.84 3.84 0 0 1-3.9-3.9A3.84 3.84 0 0 1 25 18a3.84 3.84 0 0 1 3.9 3.9zM30.5 39c-.1 0-.3 0-.3-.2.1-.6.1-1.2.2-1.7a.55.55 0 0 1 .3-.5c5.2-2.3 8.8-7.4 8.8-13.4C39.6 15 33 8.5 24.9 8.5 17 8.6 10.5 15 10.4 23c-.1 6.1 3.6 11.3 8.8 13.6.2.1.3.2.3.5 0 .6.1 1.2.2 1.7 0 .1-.1.3-.3.2-6.6-2.3-11.3-8.6-11.2-16 .1-9.1 7.5-16.5 16.6-16.5 9.2 0 16.8 7.5 16.8 16.7.1 7.3-4.5 13.5-11.1 15.8z"/></svg>