<svg viewBox="0 0 50 50"><path d="M40.9 9c.4-2.5 1.1-4.1 1.8-4.1h0c1.3 0 2.4 5.5 2.4 12.3S44 29.5 42.7 29.5c-.5 0-1-.9-1.4-2.5-.6 5.7-2 9.7-3.5 9.7-1.2 0-2.2-2.4-3-6.1-.5 7.1-1.7 12.1-3.1 12.1-.9 0-1.7-2-2.3-5.2-.8 6.7-2.4 11.4-4.4 11.4s-3.6-4.7-4.4-11.4c-.6 3.2-1.4 5.2-2.3 5.2-1.4 0-2.6-5-3.1-12.1-.7 3.7-1.8 6.1-3 6.1-1.5 0-2.8-3.9-3.5-9.7-.4 1.6-.9 2.5-1.4 2.5-1.3 0-2.4-5.5-2.4-12.3S6 4.9 7.3 4.9C8 4.9 8.6 6.5 9.1 9c.7-4.3 1.8-7.2 3.1-7.2 1.5 0 2.9 4 3.5 9.8.6-4.2 1.5-6.9 2.6-6.9 1.5 0 2.7 5.3 3.2 12.7.9-3.8 2.1-6.2 3.5-6.2s2.6 2.4 3.5 6.2C29 10 30.2 4.7 31.7 4.7c1 0 2 2.7 2.6 6.9.6-5.8 2-9.8 3.5-9.8 1.3 0 2.4 2.9 3.1 7.2zM1.5 16c0-3 .6-5.5 1.4-5.5.7 0 1.4 2.5 1.4 5.5s-.6 5.5-1.4 5.5S1.5 19 1.5 16zm44.3 0c0-3 .6-5.5 1.4-5.5.7 0 1.4 2.5 1.4 5.5s-.6 5.5-1.4 5.5-1.4-2.5-1.4-5.5z"/></svg>