<svg viewBox="0 0 50 50"><path d="M25 1C11.7 1 .9 11.7.9 25S11.7 49.1 25 49.1 49.1 38.3 49.1 25 38.3 1 25 1zm11 34.7c-.4.7-1.4.9-2.1.5-5.6-3.4-12.8-4.2-21.1-2.3-.8.1-1.6-.4-1.8-1.2s.3-1.6 1.1-1.8c9.2-2.1 17-1.2 23.4 2.7.7.4 1 1.4.5 2.1zm3-6.6c-.5.9-1.7 1.2-2.6.6-6.5-4-16.3-5.1-24-2.8-1 .3-2-.3-2.3-1.2-.3-1 .3-2 1.3-2.3 8.7-2.7 19.6-1.4 27 3.2.8.5 1.1 1.6.6 2.5h0zm.2-6.8c-7.8-4.6-20.5-5-27.9-2.8-1.2.4-2.4-.3-2.8-1.5s.3-2.4 1.5-2.8c8.5-2.6 22.6-2.1 31.5 3.2 1.1.6 1.4 2 .8 3.1s-2 1.4-3.1.8h0z"/></svg>