<svg viewBox="0 0 200 200"><path d="M73.5 91.9l10.9-11.2-10.9-11.2H23.2L12 80.7l11.2 11.2zm-4-69.3l15-15.4L77.4 0H19.2L12 7.3l15.2 15.3zm18.1-12.2L72.7 25.8v36.5l14.9 15.2 7.4-7.2V17.8zM27.1 138.8l-15 15.4 7.1 7.2h58.2l7.2-7.3-15.2-15.3zm-3.2-39.7L9 83.9l-7.4 7.2v52.5L9 151l14.9-15.4zM121.5 0l-7.1 7.2 15.2 15.4H172l15-15.4-7.1-7.2h-58.4zm53.7 62.3l15 15.2 7.3-7.2V17.8l-7.3-7.4-15 15.4v36.5zm-71 8l7.1 7.2 15.2-15.2V25.8l-15.2-15.4-7.1 7.4v52.5zm71 65.4l15 15.4 7.3-7.4V91.1l-7.3-7.2-15 15.1v36.7zm-71 7.9l7.1 7.4 15.2-15.4V99.2L111.3 84l-7.1 7.2v52.4zm10.2 10.6l7.3 7.2h58.1l7.1-7.2-14.9-15.4h-42.4l-15.2 15.4zM32 198.9c.1-2.7.1-6.4.1-10.7 0-2.3-1.2-3.4-3.8-3.4-2.7 0-4.9 1.2-4.9 4.6l.1 9.5H17c.1-2.7.1-5.8.1-10.7 0-2.2-1.1-3.4-3.8-3.4s-4.9 1.2-4.9 4.6l.1 9.5H2c.1-2.7.1-5.4.1-9.4l-.1-9.7h6.7c0 1.2-.1 2.2-.2 3.4l.2.1c1.4-2.6 3.8-3.8 7.4-3.8 3.9 0 6.3 1.4 6.9 4h.3c1.4-3 4.2-4 7.8-4 4.9 0 7.3 2.4 7.3 6.6l-.1 6.9c0 2.1 0 4.2.1 6H32v-.1zm13.4 0c.1-3.1.1-6.1.1-9.9l-.1-9.2h6.9c-.1 3.1-.1 5.6-.1 9.4l.1 9.7h-6.9zm31.1-9.5c0-3.4-1.3-4.7-4.9-4.7-3.4 0-6.1 1.5-6.1 5.4l.1 8.8h-7.1c.1-2.7.1-4.9.1-9.3l-.1-9.8h7.1c0 1.5-.1 2.5-.1 3.9h.2c1.4-3.1 4.4-4.3 8.9-4.3 5.6 0 8.9 2.4 8.9 8.4 0 2.2-.1 3.5-.1 5 0 2.2 0 4.2.1 6.2h-7.1l.1-9.6zm38.6-.4l.1 9.8h-7.1c0-1.5.1-2.5.1-3.9h-.2c-1.4 3.1-4.3 4.3-8.8 4.3-5.6 0-8.9-2.4-8.9-8.2v-5.2c0-2.2 0-4.2-.1-6.2h7.1c-.1 2.3-.1 5.9-.1 9.8 0 3.4 1.3 4.6 4.9 4.6 3.4 0 6.1-1.5 6.1-5.5l-.1-8.9h7.1l-.1 9.4zm5.5-4.1v-5.1h2.6v-4c1.1 0 5.6.1 6.7 0 0 1.3-.1 2.6-.1 4h10.4c-.1 1.5-.2 3.8-.1 5.4-2.3-.1-6.4-.1-10.4-.2v5.6c0 2 .8 2.9 3.9 2.9 2.7 0 4.7-.4 6.2-.9.3 1.9.6 4 1 5.7-2.5.5-4.8.8-8 .8-7.8 0-9.7-3.3-9.7-7.3v-6.9h-2.5 0zm30.7 2.8c3.9.1 8.2.1 11.6 0v-.7c0-2.3-1.5-3.3-5.3-3.3-4.2 0-5.9.8-6.3 4m17.8 4.9c.2 4.5-2.1 6.9-11.4 6.9-8.2 0-12.8-3.2-12.8-10.3 0-7 4.8-10.1 12.8-10.1 8.4 0 11.4 3 11.4 8.2 0 1.6-.1 2.6-.1 3.6-2.2-.1-6.2-.1-9.9-.1h-7.8c.4 3 2.3 3.9 6.4 3.9 3.8 0 5.1-.8 5.2-2.3.9.1 5.4.3 6.2.2m11.5 0c0 1.4 1.2 2 6.1 2 4.2 0 5.2-.4 5.2-1.4 0-.9-.7-1.6-6.7-1.8-8.2-.3-10.5-2.6-10.5-6.2 0-4 2.9-6.1 11.4-6.1 7.6 0 11.5 1.5 11.5 6.2v.8c-.7-.1-5.3-.1-5.9 0v-.3c0-1.3-1.2-1.9-5.6-1.9-4.3 0-5.1.5-5.1 1.4 0 .8.6 1.5 7 1.8 8.2.4 10.1 2.3 10.1 6.1 0 4-2.8 6.3-11.5 6.3-9.2 0-11.8-2.3-11.8-6.3v-.8c.7.1 5.8.2 5.8.2zM52.5 173.3c0 2-1.6 3.6-3.6 3.6s-3.6-1.6-3.6-3.6 1.6-3.6 3.6-3.6c1.9 0 3.6 1.6 3.6 3.6"/></svg>