<svg viewBox="0 0 104 30"><path d="M8.18 3.16a4.52 4.52 0 0 0-1.46-2.12A3.72 3.72 0 0 0 4.43.35H0v.2h.17A.65.65 0 0 1 .7.86a1.39 1.39 0 0 1 .22.78v9.33a1.46 1.46 0 0 1-.22.77.62.62 0 0 1-.53.32H0v.2h4.43a3.65 3.65 0 0 0 2.28-.73 4.59 4.59 0 0 0 1.46-2 8.69 8.69 0 0 0 .52-3.18 8.84 8.84 0 0 0-.51-3.19zm-1.32 7h0a2.72 2.72 0 0 1-2.48 1.44H1.75V.93h2.68a2.72 2.72 0 0 1 2.49 1.42 7.45 7.45 0 0 1 .88 3.92 7.45 7.45 0 0 1-.93 3.94zm10.75.45a2.1 2.1 0 0 1-.66.79 1.81 1.81 0 0 1-1.07.29h-2v-5.1h2.26a.43.43 0 0 1 .41.25 1.24 1.24 0 0 1 .14.58v.26h.15V4.9h-.23v.26a1.24 1.24 0 0 1-.14.58.43.43 0 0 1-.41.25h-2.17V.94h2.72a.55.55 0 0 1 .48.3 1.35 1.35 0 0 1 .17.72v.3h.15V.01a2.66 2.66 0 0 1-.63.21 3.85 3.85 0 0 1-.88.11h-3.81v.2h.19a.65.65 0 0 1 .55.3 1.34 1.34 0 0 1 .22.76v9.38a1.4 1.4 0 0 1-.22.76.63.63 0 0 1-.55.32h-.19v.2h5.4l.72-2.9h-.14a6.81 6.81 0 0 1-.46 1.26zm7.94-3.45l-2.68-3.1a2.58 2.58 0 0 1 0-2.9 1.56 1.56 0 0 1 2.31-.07 2 2 0 0 1 .35 1.26h.16V.24h-.62l-.46-.09a2.19 2.19 0 0 0-1.75.38 3 3 0 0 0-1.09 2.51 3.25 3.25 0 0 0 .65 2.15l2.41 2.77a2.91 2.91 0 0 1 .15 3.32 1.71 1.71 0 0 1-2.26.31c-.69-.45-.95-.71-.84-2.49h-.16a9.36 9.36 0 0 0-.11 2.46 3 3 0 0 0 2.3.93c.89 0 1.56-.4 2.1-1.59a4.06 4.06 0 0 0-.46-3.74zm17.89 4.8a.83.83 0 0 1-.58-.2 2.26 2.26 0 0 1-.5-1L39.1.05h-.12l-3.24 10.72a2.32 2.32 0 0 1-.48.92.83.83 0 0 1-.57.29h-.08v.2h2.48v-.2h-.06q-.24 0-.42-.32a1.24 1.24 0 0 1 0-.87l.74-2.66h3.26l.72 2.63a1.24 1.24 0 0 1 0 .88q-.19.32-.41.32h-.11v.2h2.72v-.2zm-6-4.34l1.54-5.42 1.49 5.42zM51.61.35v.2h.15a.56.56 0 0 1 .45.25 1 1 0 0 1 .19.61v6.64a5 5 0 0 1-.63 2.88 2.28 2.28 0 0 1-2 1.05 2 2 0 0 1-1.8-1.12 6 6 0 0 1-.66-3V1.35a1 1 0 0 1 .2-.61.56.56 0 0 1 .45-.25h.2V.35h-2.44v.2h.2a.53.53 0 0 1 .45.25 1.08 1.08 0 0 1 .24.55v6.78a5.3 5.3 0 0 0 .85 3.22 2.88 2.88 0 0 0 2.48 1.24 2.84 2.84 0 0 0 2.48-1.24 5.4 5.4 0 0 0 .86-3.25V1.35a1.05 1.05 0 0 1 .2-.61.55.55 0 0 1 .43-.25h0V.35zM63.15.26a3.49 3.49 0 0 1-.6 0h-4.27a3.61 3.61 0 0 1-.57 0 3.81 3.81 0 0 1-.55-.12l-.4-.14v2.23h.15v-.31a1.24 1.24 0 0 1 .17-.71.6.6 0 0 1 .53-.3h2.41v10.06a1.34 1.34 0 0 1-.24.76.66.66 0 0 1-.55.32h-.16v.2h2.73v-.2h-.19a.66.66 0 0 1-.55-.32 1.34 1.34 0 0 1-.24-.76V.91h2.41a.6.6 0 0 1 .48.31 1.32 1.32 0 0 1 .17.71v.32h.15V0l-.37.14a4.12 4.12 0 0 1-.51.12zm9.6 10.35a2.1 2.1 0 0 1-.66.79 1.81 1.81 0 0 1-1.07.29h-2v-5.1h2.25a.43.43 0 0 1 .41.3 1.24 1.24 0 0 1 .14.58v.26h.15V4.9h-.15v.26a1.24 1.24 0 0 1-.21.59.43.43 0 0 1-.41.25H69V.94h2.74a.55.55 0 0 1 .48.3 1.35 1.35 0 0 1 .17.68v.3h.15V.01a2.66 2.66 0 0 1-.63.21 3.85 3.85 0 0 1-.88.11h-3.84v.2h.19a.65.65 0 0 1 .55.3 1.34 1.34 0 0 1 .22.76v9.38a1.4 1.4 0 0 1-.21.76.63.63 0 0 1-.55.32h-.19v.2h5.41l.69-2.9h-.14a6.81 6.81 0 0 1-.41 1.26zM82.41.35v.2h.2a.56.56 0 0 1 .45.25 1 1 0 0 1 .19.61v6.64a5 5 0 0 1-.72 2.88 2.28 2.28 0 0 1-2 1.05 2 2 0 0 1-1.8-1.12 6 6 0 0 1-.66-3V1.35a1 1 0 0 1 .2-.61.56.56 0 0 1 .45-.25h.2V.35h-2.48v.2h.17a.53.53 0 0 1 .45.25 1.08 1.08 0 0 1 .2.61v6.72a5.3 5.3 0 0 0 .9 3.22 2.88 2.88 0 0 0 2.45 1.27 2.84 2.84 0 0 0 2.51-1.27 5.4 5.4 0 0 0 .94-3.25V1.35a1.05 1.05 0 0 1 .2-.61.55.55 0 0 1 .43-.25h.2V.35zm12.41 11l-.51-.79-.53-1-.62-1.21a8.56 8.56 0 0 0-.55-1 2 2 0 0 0-.52-.62 2 2 0 0 0 1.07-.56A3.11 3.11 0 0 0 93.95 5a4.42 4.42 0 0 0 .26-1.55 4.53 4.53 0 0 0-.26-1.35 2.88 2.88 0 0 0-.53-1 2.32 2.32 0 0 0-.81-.6 2.77 2.77 0 0 0-1.1-.23h-3.39v.26h.19a.63.63 0 0 1 .53.3 1.3 1.3 0 0 1 .21.67v9.55a1.38 1.38 0 0 1-.21.67.62.62 0 0 1-.53.32h-.19v.2h2.72v-.2h-.17a.62.62 0 0 1-.53-.32 1.4 1.4 0 0 1-.27-.76v-10h.41a10.51 10.51 0 0 1 1.09 0 1.61 1.61 0 0 1 .72.2 1.74 1.74 0 0 1 .55.5 2.38 2.38 0 0 1 .36.76 3.93 3.93 0 0 1 .14 1 4.69 4.69 0 0 1 0 .62 3.56 3.56 0 0 1-.07.52 2.64 2.64 0 0 1-.51 1.24 1.24 1.24 0 0 1-.69.42 5.66 5.66 0 0 1-.74.09 7.15 7.15 0 0 1-.76 0v.2a1 1 0 0 1 .73.4 4.86 4.86 0 0 1 .61.92l.22.47.41.87.42.88.25.51a8.28 8.28 0 0 0 .51.78 2.48 2.48 0 0 0 .77.68 2.35 2.35 0 0 0 1.24.27h.41v-.2a1.53 1.53 0 0 1-1.12-.74zm7.79-4.19l-2.68-3.1a2.58 2.58 0 0 1 0-2.9 1.56 1.56 0 0 1 2.31-.07 2 2 0 0 1 .37 1.26h.16V.24h-.62l-.45-.09a2.19 2.19 0 0 0-1.75.38 3 3 0 0 0-1.09 2.51 3.25 3.25 0 0 0 .65 2.15l2.41 2.77a2.91 2.91 0 0 1 .15 3.32 1.71 1.71 0 0 1-2.26.31c-.69-.45-.95-.71-.84-2.49h-.16a9.36 9.36 0 0 0-.12 2.47 3 3 0 0 0 2.3.93c.89 0 1.56-.4 2.1-1.59a4.06 4.06 0 0 0-.48-3.75zm-86 13.04a4.5 4.5 0 0 0-1.48-2.12 3.72 3.72 0 0 0-2.26-.73H8.43v.2h.12a.65.65 0 0 1 .53.31 1.38 1.38 0 0 1 .24.78v9.33a1.46 1.46 0 0 1-.22.77.62.62 0 0 1-.53.32h-.14v.2h4.44a3.65 3.65 0 0 0 2.27-.72 4.58 4.58 0 0 0 1.47-2.04 8.69 8.69 0 0 0 .53-3.15 8.84 8.84 0 0 0-.53-3.15zm-1.33 7h0a2.72 2.72 0 0 1-2.48 1.44h-2.58V17.97h2.64a2.72 2.72 0 0 1 2.48 1.44 7.45 7.45 0 0 1 .88 3.94 7.44 7.44 0 0 1-.94 3.9zm10.79.45a2.11 2.11 0 0 1-.66.79 1.81 1.81 0 0 1-1.07.29h-2v-5.1h2.27a.43.43 0 0 1 .41.25 1.24 1.24 0 0 1 .14.58v.26h.15v-2.78h-.15v.26a1.24 1.24 0 0 1-.14.58.43.43 0 0 1-.41.25h-2.28v-5.05h2.75a.55.55 0 0 1 .48.3 1.36 1.36 0 0 1 .17.72v.3h.19v-2.25a2.66 2.66 0 0 1-.63.21 3.85 3.85 0 0 1-.88.11h-3.8v.2h.19a.65.65 0 0 1 .55.3 1.34 1.34 0 0 1 .22.76v9.38a1.41 1.41 0 0 1-.22.76.63.63 0 0 1-.55.32h-.19v.2h5.32l.68-2.89h-.1a6.92 6.92 0 0 1-.44 1.25zm7.96-3.45l-2.68-3.1a2.58 2.58 0 0 1 0-2.9 1.56 1.56 0 0 1 2.26-.08 2 2 0 0 1 .41 1.23h.16v-2.08h-.57l-.48-.09a2.19 2.19 0 0 0-1.75.38 3 3 0 0 0-1.09 2.51 3.25 3.25 0 0 0 .65 2.15l2.41 2.77a2.91 2.91 0 0 1 .09 3.36 1.71 1.71 0 0 1-2.26.31c-.69-.45-.95-.71-.84-2.49h-.16a9.36 9.36 0 0 0-.12 2.47 3 3 0 0 0 2.3.93c.89 0 1.56-.4 2.1-1.59a4.06 4.06 0 0 0-.43-3.78zm15.31 3.45a2.11 2.11 0 0 1-.66.79 1.81 1.81 0 0 1-1.07.29h-2V18.64a1.24 1.24 0 0 1 .24-.77.68.68 0 0 1 .55-.31h.16v-.21h-2.77v.2h.16a.67.67 0 0 1 .56.31 1.33 1.33 0 0 1 .24.77v9.36a1.41 1.41 0 0 1-.22.76.63.63 0 0 1-.55.32h-.19v.2h5.39l.74-2.88h-.14a6.92 6.92 0 0 1-.44 1.26zm5.65-9.77a.79.79 0 0 1 .63-.31h.17v-.22h-3v.2h.19a.79.79 0 0 1 .63.31 1.24 1.24 0 0 1 .27.77v9.36a1.24 1.24 0 0 1-.27.76.78.78 0 0 1-.63.32h-.19v.2h3v-.2h-.08a.78.78 0 0 1-.63-.32 1.24 1.24 0 0 1-.27-.76v-9.35a1.24 1.24 0 0 1 .19-.76zm10.07-.31h.1c.16 0 .3.11.42.32a1.24 1.24 0 0 1 0 .87l-2.48 8.69-2.37-8.69a1.24 1.24 0 0 1 0-.88q.19-.32.41-.32h.11v-.21h-2.71v.2h.07a.83.83 0 0 1 .56.29 2.26 2.26 0 0 1 .5 1h0l3.25 10.75h.12l3.4-10.81a2.3 2.3 0 0 1 .48-.91.83.83 0 0 1 .57-.29h.12v-.23h-2.45zm12.03 10.78l-.48-.78-.53-1-.65-1.22a8.46 8.46 0 0 0-.51-.93 2 2 0 0 0-.52-.62 2 2 0 0 0 1.07-.56 3.11 3.11 0 0 0 .73-1.17 4.42 4.42 0 0 0 .26-1.55 4.54 4.54 0 0 0-.19-1.35 2.9 2.9 0 0 0-.53-1 2.32 2.32 0 0 0-.86-.63 2.77 2.77 0 0 0-1.12-.19h-3.34v.26h.19a.63.63 0 0 1 .53.3 1.32 1.32 0 0 1 .21.67v9.55a1.4 1.4 0 0 1-.21.67.62.62 0 0 1-.53.32h-.2v.2h2.72v-.2h-.17a.62.62 0 0 1-.53-.32 1.4 1.4 0 0 1-.22-.76v-10h.4a10.52 10.52 0 0 1 1.09 0 1.61 1.61 0 0 1 .72.2 1.72 1.72 0 0 1 .55.5 2.39 2.39 0 0 1 .36.76 3.93 3.93 0 0 1 .14 1 4.69 4.69 0 0 1 0 .62 3.64 3.64 0 0 1-.07.52 2.63 2.63 0 0 1-.51 1.24 1.24 1.24 0 0 1-.69.42 5.66 5.66 0 0 1-.74.09 7.12 7.12 0 0 1-.76 0v.2a1 1 0 0 1 .73.41 5 5 0 0 1 .61.92l.22.47.41.87.42.88.25.51a8 8 0 0 0 .51.78 2.48 2.48 0 0 0 .77.68 2.33 2.33 0 0 0 1.24.27h.41v-.2a2 2 0 0 1-1.18-.83zm9.4-.7a2.11 2.11 0 0 1-.66.79 1.81 1.81 0 0 1-1.07.29h-2v-5.1h2.26a.43.43 0 0 1 .41.25 1.24 1.24 0 0 1 .14.58v.26h.15v-2.78h-.15v.26a1.24 1.24 0 0 1-.14.58.43.43 0 0 1-.41.25h-2.27v-5.05h2.74a.55.55 0 0 1 .48.3 1.36 1.36 0 0 1 .17.72v.3h.16v-2.25a2.66 2.66 0 0 1-.63.21 3.85 3.85 0 0 1-.88.11h-3.84v.2h.19a.65.65 0 0 1 .55.3 1.34 1.34 0 0 1 .22.76v9.38a1.41 1.41 0 0 1-.22.76.63.63 0 0 1-.55.32h-.19v.2h5.36l.74-2.88h-.14a6.92 6.92 0 0 1-.42 1.24zm7.98-3.45l-2.68-3.1a2.58 2.58 0 0 1 0-2.9 1.56 1.56 0 0 1 2.31-.07 2 2 0 0 1 .36 1.22h.15v-2.08h-.62l-.48-.09a2.19 2.19 0 0 0-1.75.38 3 3 0 0 0-1.09 2.51 3.25 3.25 0 0 0 .65 2.15l2.41 2.77a2.91 2.91 0 0 1 .15 3.36 1.71 1.71 0 0 1-2.26.31c-.69-.45-.95-.71-.84-2.49h-.17a9.36 9.36 0 0 0-.12 2.47 3 3 0 0 0 2.3.93c.89 0 1.56-.4 2.1-1.59a4.06 4.06 0 0 0-.42-3.78z"/></svg>