<svg viewBox="0 0 256 75"><path d="M92.1 31h0c2.3-3.6 3.6-7.7 3.5-12C95.6 9.9 90.4.6 80.4.6H66v59.7h8.4V37.1h6.1l7.4 23 .1.2h8.7l-8.2-25.8c1.4-.9 2.6-2.1 3.6-3.5zm-5-12c.1 2.5-.6 5-2 7.1-.6 1-1.6 1.8-2.7 2.3h-.2c-.6.2-1.2.3-1.8.3h-6V9h5.9c5.1 0 6.8 6 6.8 10h0zM47.6.6H41L26.4 60.3h8.5l2.5-9.6h14l2.4 9.6h8.6L47.6.6zM49.4 43H39.3l5-20.6L49.4 43zM14.5.8H.4V60h7.9V36.9h6.2c4.6.1 8.9-2.2 11.5-6 2.3-3.5 3.5-7.6 3.4-11.8C29.4 10 24.3.8 14.5.8zm5 25.5c-1.1 1.7-3 2.7-5 2.6H8.3V8.7h6.2c5.1 0 7 6.2 7 10.3a14.3 14.3 0 0 1-2 7.3zM102.6.6h8.4v59.7h-8.4zm32.3 25.5c-2.8-1.9-5.4-3.6-6.9-5.8l-.1-.2c-.5-.7-.8-1.5-1.1-2.3-.5-2.2-.1-4.6 1.1-6.5 1-1.7 2.9-2.7 4.9-2.7 6 0 6.3 4.5 6.3 4.7v.2h8.4v-.3c0-.2-.5-13.1-14.7-13.1-6.9 0-10.4 3.7-12.2 6.8-3.2 5.7-2.6 13.3-.2 17.3 1.3 2.3 3.1 4.3 5.3 5.9.2.2.4.3.5.5 2 1.5 3.6 2.6 5.1 3.6 1.3.8 2.3 1.5 3.2 2.3l1.1.9h0c1.3 1.3 2.4 2.8 3.2 4.6 1 2.4.9 5-.4 7.3a5.87 5.87 0 0 1-5.3 2.8h-.2c-2.9.2-5.6-1.8-6.1-4.7V47h-8.3v.3c0 .1.5 13.1 14.7 13.1 7.1 0 10.7-3.8 12.4-7 3.2-5.9 2.5-13.8 0-17.7-3.1-4.4-7.1-7.2-10.7-9.6zm106 25.2c14.6 0 14.6-15.5 14.6-27.9 0-6.3 0-22.9-14.6-22.9-15 0-15 18.8-15 25 0 7.8 0 25.8 15 25.8zm-6.5-25.8c0-11.1 2.1-16.8 6.2-16.8 1.9 0 6.4 0 6.4 14.7 0 14-1.9 19.7-6.4 19.7-3.1 0-6.2-2.1-6.2-17.6zm-26.2 25.8c11 0 13.3-8.9 14.1-15.6v-.3l-8-.5v.3c-.7 5.4-2.5 7.7-6.1 7.7-3.1 0-6.5-1.3-6.5-17.3S205.8 9.2 208 9h.2c2.3-.2 5.3.3 6.5 6.4v.5l7.7-.4v-.3C221 5.5 216.2.6 208.2.6c-15 0-15 18.8-15 25 0 7.7 0 25.7 15 25.7zm41.7 5c-.3.2-.6.5-.9.7-.1.1-8.7 10.1-26.6 9.8-14-.2-26.1-7.1-35.8-16.3 2.1-3.5 3.5-7.4 4.1-11.4l-8-.7c-.3 2.1-1 4.1-1.9 6-3.7-4.4-7-9-9.9-14 5.2-4.5 11-9.7 11-17.7.2-5-2.7-9.6-7.3-11.6-4.9-2.1-10.5-1-14.4 2.6-4.3 4-5.2 10.3-2.6 17.3 1 2.6 2 5.1 3.2 7.5-3.9 3.8-7.4 8.3-8.1 14.6-.7 6.1 1.4 11.4 5.9 14.6 5.1 3.6 12.2 4 18.5 1 1.5-.6 2.9-1.5 4.1-2.4 11.5 10.7 25.7 18.2 41 18.4h.9c21.1 0 31.5-12.2 31.9-12.7.2-.2.3-.4.4-.7l-5.5-5zM165.8 9.5c1-.9 2.3-1.4 3.7-1.4.7 0 1.4.1 2 .4 1.6.7 2.4 2.1 2.4 4.2 0 3.9-3 7-6.8 10.4-.8-1.6-1.4-3.2-2-4.8-1.4-3.9-1.2-7 .7-8.8zm8 42.2c-3.7 1.7-7.7 1.6-10.4-.3-2.1-1.5-3-4-2.6-7.2.5-3.1 1.9-6 4.2-8.2 3.1 5.2 6.7 10.1 10.7 14.6-.6.4-1.2.8-1.9 1.1z"/></svg>