<svg viewBox="0 0 424 424"><path d="M267.6 211.6l-.1-76.5c0-4 1.2-4.9 5-4.9l58.5.1c15.9.2 31.5 2.9 46.1 9.6 24.5 11.2 38 30.4 41.5 56.9 2.7 21.3.3 41.6-12 59.8-14 20.6-34.7 30.3-58.5 34.6-7.2 1.3-14.5 1.6-21.9 1.6h-52c-7.6 0-6.5.6-6.5-6.3l-.1-74.9zm38.7-.7v44c0 2.1-.1 3.9 3 3.8 8.3-.2 16.7.3 25-.4 25.5-2 40.9-15.8 43.7-39.8 3.1-27.1-8.3-48.6-38.7-53.3-9.6-1.5-19.3-.5-28.9-1-3.4-.2-4.1 1.1-4.1 4.2v42.5zm-207.2-3.4c9.8 2.5 17.3 6.3 23.5 12.8 14.2 15.1 13.9 51.7-15.8 65.3-10.8 4.9-22.2 7.1-33.9 7.2l-63.5.1c-3.7 0-4.7-1-4.7-4.7V134.7c0-3.4.8-4.5 4.4-4.5l64.5.1c10.9.1 21.5 2.2 31.3 7.3 14 7.3 20.4 19.3 20.2 34.7s-7.6 26.5-21.7 33l-4.3 2.2zm-56.4 34.8v15.5c0 2.1.2 3.5 2.9 3.5 9.5-.2 19 .5 28.4-.9 11.4-1.7 17.8-8.2 18-17.9.2-10.1-4.9-15.5-17.2-17.5-9.7-1.6-19.6-.4-29.4-.7-2.4-.1-2.7 1.2-2.7 3.1v14.9zm0-63.9v13.5c0 2.1.7 3 2.9 3 8.5-.2 17 .6 25.4-.5 9-1.2 14.9-6.7 15.7-14.2 1-10.2-4-16.1-15.1-17.6-8.6-1.2-17.3-.3-25.9-.5-2.2-.1-2.9.9-2.9 3-.1 4.3-.1 8.8-.1 13.3zm155.9 118.1c-32.5 0-58-20.1-63-49-6.9-39.7 19.9-72 60.2-72.7 12.4-.2 24.2 1.9 35.2 7.8 23.5 12.6 34.4 36.8 29.6 65.3-4 23.9-24.5 43.6-49.2 47.5-4.6.6-9 1.2-12.8 1.1zm-.4-32c15.4 0 26.9-12.5 26.9-29.2s-11.5-29-27.1-29c-15.7 0-26.8 12-26.7 29.1.1 17 11.3 29.1 26.9 29.1z"/></svg>