<svg viewBox="0 0 60 32">
    <path d="M37.5,4.6c0-0.6,0.2-0.7,0.7-0.7h8.2c2.2,0,4.4,0.4,6.4,1.4c3.4,1.5,5.3,4.2,5.8,7.9c0.4,3,0.1,5.8-1.7,8.3
        c-1.9,2.9-4.8,4.2-8.2,4.8c-1,0.2-2,0.2-3,0.2h-7.2c-1,0-0.9,0.1-0.9-0.9L37.5,4.6z M43,21.3c0,0.3,0,0.6,0.4,0.6
        c0,0,2.3,0.1,3.4-0.1c3.5-0.2,5.7-2.2,6.1-5.5c0.4-3.8-1.1-6.7-5.4-7.4c-1.4-0.2-4-0.2-4-0.2c-0.5,0-0.6,0.2-0.6,0.6V21.3z"/>
    <path d="M14.1,14.7c1.4,0.3,2.4,0.9,3.3,1.8c2,2.1,1.9,7.2-2.2,9.1c-1.5,0.7-3.1,1-4.7,1H1.7c-0.5,0-0.6-0.2-0.6-0.6V4.6
        C1.1,4.2,1.2,4,1.7,4h9c1.5,0,3,0.3,4.3,1c1.9,1,2.8,2.7,2.8,4.8c0,2.2-1,3.7-3,4.6L14.1,14.7z M6.3,21.7c0,0.3,0,0.5,0.4,0.5
        c0,0,2.6,0.1,3.9-0.2c1.6-0.2,2.5-1.1,2.5-2.5c0-1.4-0.7-2.2-2.4-2.4c-1.4-0.2-4.1-0.1-4.1-0.1c-0.3,0-0.4,0.2-0.4,0.4L6.3,21.7
        L6.3,21.7z M6.3,12.6c0,0.3,0.1,0.4,0.4,0.4c0,0,2.4,0.1,3.5-0.1c1.3-0.2,2.1-1,2.2-2c0.2-1.4-0.6-2.2-2.1-2.5
        C9.1,8.2,6.7,8.3,6.7,8.3c-0.3,0-0.4,0.2-0.4,0.4L6.3,12.6z"/>
    <path d="M28,27.1c-4.5,0-8.1-2.8-8.7-6.8c-1-5.5,2.8-10,8.4-10.1c1.8,0,3.4,0.2,4.9,1.1c3.3,1.8,4.8,5.1,4.1,9.1
        c-0.6,3.4-3.4,6.1-6.8,6.6C29.1,27.1,28.5,27.1,28,27.1z M27.9,22.7c2.2,0,3.8-1.8,3.8-4.1s-1.6-4-3.8-4s-3.8,1.7-3.7,4.1
        C24.2,21,25.8,22.7,27.9,22.7z"/>
</svg>