<svg viewBox="0 0 50 50"><path d="M21.4 22.5h4.9c5 0 7.4-2.2 7.4-6.5 0-2.6-1.1-4.9-3.2-6.7s-4.7-2.7-7.8-2.7c-1.4 0-2.3.2-2.7.6s-.6 1.2-.6 2.3V21c0 .7.1 1.1.3 1.3.2.1.8.2 1.7.2zm5.4 2H21c-.7 0-1.2.1-1.3.2-.2.1-.3.4-.3.9v13.2l-.1 1.3.2 1.1c.3.8 1 1.4 2.2 1.8s2.9.5 5.3.5c3.1 0 5.5-.8 7.2-2.4s2.6-3.8 2.6-6.6c0-2.9-.9-5.3-2.8-7.2s-4.3-2.8-7.2-2.8zM0 0v50h50V0H0zm37.1 41.7c-2.7 2.3-6.1 3.4-10.2 3.4l-2.3-.1-2.8-.1-2.4-.1c-1.6-.1-2.8-.1-3.8-.1-.9 0-1.7 0-2.4.1-1 .1-1.6.2-2 .2-.6 0-.8-.2-.8-.6 0-.3.3-.5.9-.6 1.7-.2 2.7-1.1 3-2.7.3-1.4.4-3.1.4-5.1V13.8c0-2.5-.4-4.4-1.2-5.6s-2-1.8-3.6-1.8c-.8 0-1.2-.2-1.2-.6s.4-.6 1.2-.6a11.45 11.45 0 0 1 1.5.1c.6 0 1.4.1 2.5.1 1.5 0 2.6 0 3.4-.1l3.4-.3c1-.1 2-.1 3-.1 4.4 0 7.8.8 10.3 2.5s3.7 4 3.7 6.9c0 3-1.3 5.4-3.9 7.1l-1.3.9c-.3.2-.4.3-.4.4 0 .2.5.4 1.5.6 2.2.5 4 1.6 5.4 3.4s2.1 3.9 2.1 6.2c0 3.6-1.3 6.5-4 8.8z"/></svg>