<svg viewBox="0 0 132 30"><path d="M1.3 22.5v-15c0-3 2-5.7 5-6.5s6 .5 7.6 3.1c.3.6.1 1.5-.5 1.9s-1.5.1-1.9-.5c-1-1.3-2.8-2.1-4.5-1.6-1.7.4-2.9 2-2.9 3.7v15c0 1.7 1.2 3.3 2.9 3.7s3.5-.3 4.4-1.8c.4-.6 1.3-.9 1.9-.5s.9 1.3.5 1.9c-1.5 2.6-4.6 3.9-7.6 3.1a6.78 6.78 0 0 1-4.9-6.5zM30.8.9c.8 0 1.4.6 1.4 1.4v25.5c0 .8-.6 1.4-1.4 1.4-.7 0-1.4-.6-1.4-1.4V16h-7.7v11.8c0 .8-.6 1.4-1.4 1.4-.7 0-1.4-.6-1.4-1.4V2.3c0-.8.6-1.4 1.4-1.4s1.4.6 1.4 1.4v10.9h7.7V2.3c0-.8.7-1.4 1.4-1.4zm22.3 26.6a1.395 1.395 0 0 1-2.7.7L49 23h-8.5l-1.4 5.2c-.2.7-1 1.2-1.7 1s-1.2-1-1-1.7L43.5 2c.2-.6.7-1 1.3-1s1.2.4 1.3 1l7 25.5zm-4.9-7.2L44.7 7.6l-3.5 12.7h7zM58.7 1H64a6.7 6.7 0 0 1 6.7 6.7v2.5a6.7 6.7 0 0 1-6.7 6.7h-3.9v10.9c0 .8-.6 1.4-1.4 1.4s-1.4-.6-1.4-1.4V2.5c0-.8.6-1.5 1.4-1.5zm5.2 2.9H60v10.2h3.9c2.1 0 3.9-1.7 3.9-3.9V7.7c0-2-1.7-3.8-3.9-3.8zm11 24V2.3c0-.8.6-1.4 1.4-1.4s1.4.6 1.4 1.4v25.5c0 .8-.6 1.4-1.4 1.4-.8.1-1.4-.6-1.4-1.3zM94.8 1c.8 0 1.4.6 1.4 1.4s-.6 1.4-1.4 1.4h-4.3v23.9c0 .8-.6 1.4-1.4 1.4-.7 0-1.4-.6-1.4-1.4V3.9h-4.3c-.7 0-1.4-.6-1.4-1.4s.6-1.4 1.4-1.4L94.8 1h0zm14.9 15.4l4.1 10.9c.2.7-.1 1.5-.8 1.8-.7.2-1.5-.1-1.8-.8L107 16.9h-3.6v10.9c0 .8-.6 1.4-1.4 1.4-.7 0-1.4-.6-1.4-1.4V2.5c0-.8.6-1.4 1.4-1.4h5.3a6.7 6.7 0 0 1 6.7 6.7v2.5c-.2 2.8-1.9 5.1-4.3 6.1zm1.3-6.2V7.7c0-2.1-1.7-3.9-3.9-3.9h-3.9V14h3.9c2.2.1 3.9-1.6 3.9-3.8zm7.7-7.7c0-.8.6-1.4 1.4-1.4h8.8c.8 0 1.4.6 1.4 1.4s-.6 1.4-1.4 1.4h-7.4v9.3h6.5c.8 0 1.4.6 1.4 1.4s-.6 1.4-1.4 1.4h-6.5v10.2h7.4c.8 0 1.4.6 1.4 1.4s-.6 1.4-1.4 1.4h-8.8c-.8 0-1.4-.6-1.4-1.4V2.5z"/></svg>