<svg viewBox="0 0 50 50"><path d="M19.6 46.7C16.7 45.3 7.1 40.5 5 39.3c-2.6-1.4-3.9-3.6-4-6.5V19.5c.1-2.9 1.4-5 3.9-6.4l14-7.1c2.7-1.3 5.4-1.3 8.1 0l7.5 3.7c2.6 1.4 5.4 2.5 7.9 4.2 0 .1.2.1.2.2 1.6 1.6 2.3 3.5 2.3 5.8v12.5c0 3.1-1.5 5.4-4.2 6.8l-13.2 6.7c-1.8.9-3 1.1-5 1.2-.6.2-2.2-.1-2.9-.4zm5.5-6.8c.7 0 1.6 0 2.3-.1 3-.5 5.5-1.7 7.4-4.1.2-.3.3-.5 0-.8-.5-.4-1-.8-1.5-1.3-.4-.4-.6-.4-1 .1-3.8 4.4-10.8 4.4-14.7 0-3.8-4.3-3.9-11.2-.1-15.6 4-4.7 10.9-4.5 14-.5.2.2.3.2.6 0 .7-.5 1.4-1.1 2.1-1.6.3-.2.3-.4 0-.6-.3-.3-.6-.7-1-1-2.3-2-5-2.8-8-2.8-4.1 0-7.6 1.3-10.4 4.3-2.8 3.1-3.9 6.8-3.6 11 .5 7.7 6.6 13.2 13.9 13zm24.7-17.6c0-3.2-1.6-5.4-4.3-6.9-.2-.1-.8-.6-1.8-.9a6.57 6.57 0 0 1 1.2 1.7c.6 1.2.8 2.5.8 3.8v12.5c0 3.4-1.6 6-4.7 7.6l-13.2 6.7c-1.3.7-2.6 1.1-4 1.2-.6 0-1 .1-1.6 0 .5.2 1 .5 1.5.8a8.49 8.49 0 0 0 3.8.9c2 .1 3.8-.5 5.6-1.5l12.8-6.5c2.5-1.4 3.9-3.5 3.9-6.4v-13zM.7 18.5c0-1.7.5-3 1.4-4.2l.2-.2a8.88 8.88 0 0 1 2.2-1.6c4.1-2.2 8.6-4.4 14-7.1 1.4-.7 2.9-1.1 4.4-1.1s3 .3 4.4 1c2.4 1.1 17.2 8.8 17.5 8.8 0-.4-.1-1.4-.3-2.6-.6-3-2-5.2-5-6.2-4.9-1.5-9.7-3.1-14.6-4.7-2.8-.9-5.4-.5-7.7 1.2L3.7 11.6c-2.4 1.7-3.4 4-3.4 6.8 0 1.8.2 3.6.5 5.3-.1-1.7-.1-3.4-.1-5.2z"/></svg>