<svg viewBox="0 0 121 30"><path d="M119.8 14.6c-.5-.9-1.8-1.7-3.4-1.8-.5-.1-1.1-.1-1.6-.1l-2.3.4c-.2.1-.4.2-.5.4s-.2.3-.2.5v.2c0 .2.1.4.2.4.1.1.3.1.4.1h.2s.3-.1.8-.1v.1c0 .2.1.5.1.9.1 1.8 0 5.3-2.5 8.1-2 2.3-4.3 3.5-7.2 3.8-.3 0-.5.1-.8.1-2.6.2-5.3-.3-7.8-1.6-2.9-1.5-5-3.7-5.9-4.7-.1-.2-.3-.3-.4-.4s-.2-.2-.4-.2c-.1 0-.2.1-.3.1-.2.2-.3.4-.4.8-.1.3-.2.7-.2 1h0c.1.6.2 2.9 2.3 4.7.8.7 1.6 1.2 2.4 1.5.7.3 1.3.5 1.6.5h.1a.76.76 0 0 0 .4-.2c.1-.1.1-.2.1-.4 0-.5-.3-1-.3-1l-.1-.1s-.2 0-.3-.1c-.3-.1-1.1-.4-2.1-1-1.4-.9-2.1-2.3-2.4-3.2 1.4 1.6 3.8 3.6 5.6 4.5 2.3 1.1 5.6 2.2 9.1 1.9h0c1.7-.1 3.5-.6 5.2-1.5 2.5-1.3 4.5-3.2 5.7-5.7 1.5-2.8 1.5-6 1.4-7.4v-.4c.4.1 1.1.5 1.8 1.4 0 0 .1.2.4.3h.2c.2 0 .3-.1.4-.1h0c.2-.1.4-.3.6-.5s.4-.5.3-.8c-.2-.3-.2-.4-.2-.4M12.9 2.9c6.1-.4 9.4 2.8 9.4 2.8l-1.9 3.5s-3-2.4-7-2.1c-5.2.4-8.1 4.5-7.7 9.1.3 4.7 3.8 8.7 9 8.3 4.3-.3 7-3.7 7-3.7l2.6 3.1s-3.1 4.3-9.5 4.7c-7.7.6-13.3-4.7-13.8-12C.5 9.4 5.5 3.4 12.9 2.9m10.9 6.7l4.4-.3.7 10.6c.2 2.2.8 3.6 3 3.4 3.2-.2 4.8-3.2 4.6-6.4L36 8.8l4.4-.3 1.2 17.9-4.3.3-.1-2c-.1-.7 0-1.3 0-1.3h-.1c-.7 1.9-2.9 3.9-5.9 4.1-3.8.3-6.3-1.5-6.7-6.4M41.9 1.3l4.4-.3 1.3 18.6c.1 1.9.8 2.4 2 2.3.4 0 .7-.1.7-.1l.3 3.9s-.7.2-1.4.2c-2.5.2-5.5-.2-5.9-5.4"/><path d="M73.2 6.2l.6 8.2c.2 3.2-1.4 6.1-4.6 6.4-2.2.2-2.9-1.3-3-3.4l-.7-10.7-10 .7-.3-4.9-4.3.3.3 4.9-2.4.2.2 3.5 2.3-.2.5 7.8c.4 6 5.4 6.4 7.9 6.2.8-.1 1.4-.2 1.4-.2l-.3-3.9s-.3.1-.8.1c-1.2.1-3.6-.2-3.8-3.1l-.4-7.1 5.5-.4.6 8c.4 4.9 2.9 6.6 6.7 6.4 3-.2 5.2-2.2 5.9-4.1h.1v1.3l.1 2 4.3-.3-1.3-18m2.3-.2l4.3-.3.2 3.1c.1.7 0 1.3 0 1.3h.1c.6-2.6 2.6-4.8 5.4-5h.8l.3 4.4H90c-1.9.1-3.9 1.4-4.6 4.1-.2.9-.2 1.9-.2 2.9l.5 7.1-4.4.3m20-12.7h.6v-.2c-.2-2.4-1.7-3.1-3.7-2.9-2.6.2-4.8 2.1-4.8 2.1l-1.9-3.1s2.6-2.4 6.8-2.7c4.7-.3 7.6 2.1 7.9 6.6l.8 11.2-4 .1-.1-1.5c-.1-.7 0-1.3 0-1.3h-.1s-1.1 3.2-5.2 3.5c-3.2.2-6.2-1.6-6.4-5.1-.4-5.6 7.2-6.5 10.1-6.7m-2.8 8.4c2.3-.2 3.8-2.8 3.7-5v-.4l-.8.1c-2.3.2-5.9.7-5.8 3.2.1 1.1 1.1 2.2 2.9 2.1"/></svg>