<svg viewBox="0 0 50 50"><path d="M43.9 34.3v-4c0-.4-.2-.8-.2-1.3 0 0 .1-.1.2-.1h5.8c.1 0 .1 0 .2.1V.2H.5V29c1.5.1 3-.1 4.4.2 1.5.2 2.4 1.4 2.4 2.9.1 1.9-.7 3.1-2.2 3.6-.7.2-1.3.3-1.9.3-1 .1-2 0-3 0v13.8h49.4V36h-6.3c.6-.6.6-1.1.6-1.7zm-29.4 1.6H8c.1-.4.3-.8.3-1.3.1-1.5.1-3 0-4.4 0-.4-.2-.8-.3-1.2h6.5c.2.6.3 1.2.5 1.8-1.6-.9-3.3-.5-4.9-.6v1.5h3.6l-.6 1c-.2.2-.5.3-.8.3-.7.1-1.4 0-2.2 0v1.7c1.8-.1 3.5.3 5.2-.8-.4.8-.6 1.4-.8 2zm3.5-2.1c.3.6.8.9 1.5 1s1.4.1 2.1-.3c.2-.1.4-.2.7-.3v1.9c-1.2.1-2.2.2-3.4.1-2.3-.2-3.3-2-3-4.2.3-1.9 1.8-2.9 3.6-3 .7-.1 1.5.1 2.2.2.3 0 .5.1.9.1a13.14 13.14 0 0 0-.5 1.5c-.7-.2-1.3-.5-1.9-.5-2.5-.1-2.9 2.1-2.2 3.5zm5.7 2.1c.5-.5.4-1.2.4-1.9v-3.6c0-.4-.2-.9-.2-1.4h2.2c-.1.5-.2.9-.2 1.4-.1 1.4-.1 2.8 0 4.2 0 .4.2.8.2 1.3h-2.4zm7.9-5.2v3.8c0 .4.2.9.3 1.3h-2.3c.1-.4.2-.8.2-1.2v-4.4c-.9-.2-1.7.1-2.5.5.2-.7.3-1.2.4-1.8h6c.2.6.3 1.2.4 1.6-.8-.2-1.6-.3-2.6-.5.1.4.1.6.1.7zm8.7 5.2c.2-.8-.3-1.4-.8-1.9-.6-.6-1.4-.7-2.2-.6.1.9-.2 1.7.4 2.5h-2.6c.5-.6.4-1.3.4-2v-3.5c0-.4-.2-.9-.3-1.4-.1 0-.1 0 0 0l5.2.1c.9 0 1.6.7 1.8 1.5.2 1-.2 1.8-1.1 2.2-.1.1-.2.2-.3.2.7.9 1.3 1.9 2 3-.9-.1-1.7-.1-2.5-.1zm2.1-20.5c-.4.1-.5-.1-.7-.4l-1.6-4c-.1-.1-.1-.2-.2-.3l-3.6 3.6c-.3.3-.7.3-.9-.2-.1-.2 0-.5.2-.6l2.8-3.6a1.38 1.38 0 0 0 .3-.4l-3.3-1c-.5-.2-1-.3-1.5-.5-.3-.1-.5-.3-.4-.7s.3-.4.7-.4l4.7.8h.4l-.5-2.5-.5-2.1c-.1-.4.1-.5.3-.6.3-.1.5-.1.7.3l1.6 4.1c.1.1.1.1.1.3L43.2 5l1.5-1.4c.2-.3.4-.3.7-.1.2.2.3.4.1.7l-2.8 3.6c-.1.2-.2.3-.4.5.4.1.7.3 1.1.4l3.8 1.2c.4.1.4.4.4.8-.1.3-.3.4-.6.3l-5-.9.5 2.2.5 2.4c0 .4-.3.6-.6.7zM2 34.8v-4.5c.9-.1 1.8-.1 2.6.4.1.1.1.1.2.1.8.7.7 1.6.5 2.6-.1.8-.7 1.2-1.5 1.3-.6 0-1.2 0-1.8.1zm35.3-4.5c.8 0 1.5-.1 2.3 0 .6.1.9.4.9.9-.1.5-.3.8-.9.8-.6.1-1.2 0-1.8.1-.3 0-.4-.1-.4-.4-.1-.4-.1-.9-.1-1.4zm12.4 4.2l-2.5.3c-.5.1-1 0-1.6 0v-1.7h1.8c1.2 0 1.4-.2 1.8-1.3h-3.5v-1.5c1.4 0 2.7-.1 4.1.2-.1 1.3-.1 2.6-.1 4z"/></svg>