<svg viewBox="0 0 152 30">
    <path d="M21.8,14c-0.1-4.3-2.8-7.9-7.4-8.7C10,4.7,5.5,4.9,0.9,4.8c0,7,0,13.9,0,20.9c3,0,6,0.1,9,0c1.8,0,3.5-0.4,5.2-0.9
        C19.8,23.3,22.1,19.6,21.8,14z M16.1,17.7c-0.4,2.4-2.3,3.6-4.5,4C9.8,22,8,22,6,22.1C6,17.4,6,13,6,8.4c2.8-0.3,5.4-0.3,7.8,1.1
        c0.1,0.1,0.4,0.3,0.5,0.4C16.8,12.1,16.6,15,16.1,17.7z"/>
    <path d="M30.5,16.9c0,1.8,0,3.4,0,5.2c5.3-0.3,10.7,1,15.8-2.4c-0.8,2.1-1.4,4-2.1,6c-6.5,0-13.3,0-19.9,0c0.3-1.3,0.8-2.5,0.8-3.8
        c0.1-4.5,0.1-9,0-13.6c0-1.1-0.6-2.4-0.9-3.6c6.5,0,13.3,0,20,0c0.5,1.8,0.9,3.5,1.4,5.5c-5-2.6-10.1-1.5-15.1-1.8c0,1.6,0,3,0,4.6
        c3.6,0,7.2,0,10.9,0c-0.6,1-1.1,2.3-1.9,3C39,16.6,38,17,37.2,17C35,17,32.8,16.9,30.5,16.9z"/>
    <path d="M68.7,4.9c-0.6,1.8-1.3,3.4-1.8,4.8c-2-0.5-3.8-1.5-5.7-1.5c-7.2,0-8.5,6.7-6.4,10.9c0.9,1.9,2.5,2.6,4.5,2.9
        c2.3,0.3,4.4,0.1,6.4-1c0.6-0.4,1.4-0.6,2.1-1c0,1.9,0,3.6,0,5.7c-3.4,0.1-6.9,0.5-10.3,0.3c-7.2-0.6-10.1-6.2-9.2-12.7
        C49.3,7.3,54,4.4,59.3,4c2.3-0.1,4.4,0.4,6.7,0.5C66.8,4.8,67.6,4.8,68.7,4.9z"/>
    <path d="M79.8,4.7c-0.3,1.5-0.6,2.9-0.8,4.3c-0.1,4.3-0.1,8.5,0,12.8c0,1.3,0.5,2.5,0.8,3.8c-2.1,0-4.6,0-7.4,0
        c1.5-1.6,1.3-3.8,1.3-5.7c0-3.6,0-7.4,0-11.1c0-1.4-0.5-2.8-0.8-4.1C75.1,4.7,77.6,4.7,79.8,4.7z"/>
    <path d="M103,4.5c0.5,1.9,0.9,3.5,1.3,5c-2.5-0.5-5-1-7.9-1.6c0,1,0,1.4,0,1.9c0,3.9-0.1,7.8,0,11.8c0,1.4,0.6,2.6,0.9,4
        c-2.3,0-4.8,0-7,0c0.3-1.1,0.6-2.4,0.6-3.6c0.1-4.4,0-8.9,0-13.4C88,8.2,85.7,8.8,83,10.2c0.5-2,0.9-3.6,1.4-5.5
        C90.7,4.5,96.8,4.5,103,4.5z"/>
    <path d="M130.5,25.6c-2.1-3.1-4.1-6.2-6.2-9c0.3-0.1,0.8-0.4,1.4-0.5c2.8-1.4,3.9-3.5,3.3-6.7c-0.5-2.6-2.6-4.6-5.4-4.8
        c-5.5,0-10.8,0-16.1-0.1c-0.1,0-0.4,0.1-0.1,0c0.4,1.5,0.9,2.8,0.9,4.1c0.1,3.5,0,7.2,0,10.8c0,2.1,0.4,4.4-1.3,6.2
        c2.8,0,5.3,0,7.9,0c-1.9-2.5-1-5.2-1.3-7.7c2.8-0.3,5,0,6.9,1.9c1.5,1.6,3,3.3,2.4,5.9C125.5,25.6,127.9,25.6,130.5,25.6z
        M120.5,13.8c-1.9,0.1-3.8,0-5.7,0.1c-0.8,0-1.1-0.3-1.1-1.1c0-1.4,0-2.9,0-4.4c2.4,0,4.8-0.1,6.9,0c1.9,0.1,2.8,1.3,2.6,2.9
        C123.2,13,122.3,13.7,120.5,13.8z"/>
    <path d="M151.7,8.8c0-1.4,0-2.8,0-4.1c-0.1,0-0.4-0.1-0.5-0.1c-5.8,0-11.7,0-17.5,0c-0.3,0-0.6,0.1-0.5,0.1c0.3,1.4,0.8,2.6,0.8,3.9
        c0.1,4,0,8.2,0,12.2c0,1.6,0.1,3.4-1.3,4.8c6.5,0,12.8,0,19.2,0c0-1.5,0-2.9,0-4.4c-2.5,0.3-5,0.6-7.5,0.8c-1.6,0.1-3.3,0-4.9,0
        c0-1.8,0-3.3,0-5.2c1.8,0,3.5,0,5.3,0c3.5,0,4.3-0.6,5.4-4c-3.5,0-7.2,0-10.8,0c0-1.4,0-2.9,0-4.5C143.5,8.4,147.6,8.1,151.7,8.8z"
        />
</svg>