<svg viewBox="0 0 50 50"><path d="M28.5 20.2c0 1 1 1.2 2 1.2 1.1 0 3-.4 3-3-.5.4-2.1.4-3.1.5-.9.2-1.9.3-1.9 1.3zm-13.6-6.7h1.3v1.3h0c.7-1.1 2.8-1.5 4-1.5 3 0 4.8 1.5 4.8 3.9V23h-2.8v-5.4c0-1.5-1.6-2.3-2.9-2.3-1.5 0-3 .8-3 2.7v4.9h-2.8v-7.7H9.2V23H6.6v-7.7H5.4L1 42.7l41.3 7.1 4.4-28.2c-1 1.1-2.5 1.6-4.5 1.6-3.5 0-5.8-2-5.8-4.8 0-2.9 2.2-5.1 5.9-5.1 2.4 0 4.6.9 5.3 2.8L49 7.3 7.7.3 5.6 13.5h.9v-.7c0-1.7 1.5-3.6 4.7-3.6 2.2 0 4.9.6 4.9 3.5h-2.5c0-1-1.6-1.4-2.3-1.4-1.1 0-2.1.9-2.1 1.7v.5h4.4 1.3 0zm21.4 9.6h-2.8V22c-1 .9-2.6 1.2-4.1 1.2-2.3 0-4-.9-4-2.8 0-2.2 2-2.6 4-2.9 2-.2 3.8-.2 3.8-1.2 0-1.1-1-1.3-2.1-1.3-1.2 0-2 .4-2.2 1.4h-3.3c.2-2.4 2.7-3.2 5.4-3.2 2.3 0 5.2.8 5.2 3.1v6.8h.1zm6-8c-2 0-2.7 1.7-2.7 3.1 0 1.3.7 3 2.6 3 1.5 0 2.3-.8 2.5-1.9H47l.4-2.5h-2.8c-.2-1.1-1.1-1.7-2.3-1.7z"/></svg>