<svg viewBox="0 0 94 30"><path d="M29.4 9.5c-3 .8-4.2 2-4.7 2.7V9.6H9c-.4-5.1 4.7-5 4.7-5 5.1-.1 5.3 3.2 5.3 3.2h5.7c0-5.9-8.2-6.6-8.2-6.6C8.6.6 5.8 3.3 5.8 3.3 3.3 5.4 3.3 8.8 3.4 9.6H.8l.1 3.9h2.6v15.3h5.7V13.5h10v15.3h5.7V18c.3-1.8 1.5-4.3 5.9-4.7 0 0 6.4-1.1 7.3 4.7v10.7h5.7V15.8c-1.5-9.2-14.4-6.3-14.4-6.3zm38.5 7.7c.5-6.7-6.5-7.6-6.5-7.6-6.3-1-9.9 0-9.9 0-6.1 1.4-6.1 6.3-6.1 6.3h5.8s0-3.8 6.3-3.3c0 0 4.5.2 4.7 2.2 0 0 1.5 2.4-4.7 2.8s-13.7.3-12.9 6.1c0 0-.2 5.6 10 5.4 0 0 5.4.2 7.7-2.6v.1l.2 2.2h5.7l-.3-11.6h0zm-6.4 6.4c-1.4 1.7-3.1 2.3-5.1 2.3-1.8.1-5.5.4-5.6-2.5-.1-2.7 4.6-2.6 7.7-2.8 0 0 3.1 0 3.7-.9 0 0 0-.1 0 0 0 .2.5 2.4-.7 3.9zm26-1.3c-.9 1.8-2.3 2.9-6 2.9-1.6 0-6.6-.5-6.9-6V19c.2-5.4 5.3-6 7-6 3.1-.1 4.9.9 5.8 2.7h5.8c0-.7-.2-1.1-.5-1.8-1.2-2.2-4.1-4.9-11.4-4.6-2.1.1-4.5.4-6 1-2.5 1-6.8 3.7-6.6 9.3h0c.3 5.9 4.4 7.6 6.7 8.6 1.5.6 3.5.8 6 .9 7.4.1 10.2-2.7 11.3-4.9.4-.8.4-1.1.5-1.9.2 0-5.7 0-5.7 0z"/></svg>