<svg viewBox="0 0 50 50"><path d="M42.5 0h-35C3.4 0 0 3.4 0 7.5v35C0 46.6 3.4 50 7.5 50h35c4.1 0 7.5-3.4 7.5-7.5v-35C50 3.4 46.6 0 42.5 0zm-5.4 31.2c-.1 1.6-.2 3.1-.6 4.7-1 4.3-3.8 6.7-8.1 7.4-3.3.6-6.6.4-9.8-1.2-2.6-1.3-4.3-3.3-4.5-6.4h3.2c2.1 4.8 7.6 6.6 12.3 4.2 2.1-1.1 3.1-3 3.5-5.3.3-1.8.4-3.6.5-5.5-.4.5-1 1-1.6 1.5-1.1 1-2.6 1.8-4.2 2.1-4.9 1.4-11-.7-13.2-5.6-2.1-4.7-2.1-9.4-.2-14.1 3-7.2 13.9-9.6 19.1-2.2V7.1h3.4 0c.2 7.2.3 15.3.2 24.1zm-8-21.3C28.6 9.7 27 8.8 25 9h-.1c-3.8.1-6.8 2.6-7.9 6.8-.7 2.8-.7 5.8.3 8.6 1.2 3.4 3.8 5.5 7.3 5.7h.1 1.1c2.4-.1 4.1-1.3 4.4-1.5 1.4-1 2.4-2.3 3-4.1h0c1-2.8.9-5.8.2-8.7-.6-2.8-2.2-4.9-4.3-5.9z"/></svg>