<svg viewBox="0 0 63 30"><path d="M17.9 23c-1.2 1.2-2.7 1.8-4.3 1.8-2.4 0-6-2-8-2L5.4.5.5 1.3v26.3s.6-.5 3.2-.5c3.5 0 5.1 2.3 10 2.3 5.5.2 4.2-6.4 4.2-6.4m-4.1-3.2h-3.1V8.9h3.1v10.9z"/><circle cx="12.2" cy="5.7" r="1.8"/><path d="M24.4 11.6s-.8-.3-1.9-.3c-.7 0-1.6.2-1.6.2v8.3h-3.1V9.5s1.3-.4 2-.5a10.68 10.68 0 0 1 2.5-.3c1.1 0 2.5.3 2.7.4l-.6 2.5zm2.6 2.9c0-2.5 1.1-3.8 1.6-4.3s1.8-1.4 3.6-1.4c1.5 0 2.8.5 3.7 1.4.9 1 1.4 2.3 1.4 4.2v1.2h-7c.1.6.3 1.2.9 1.5.9.5 2.6.9 5.1 0l.5 2.5c-1.2.5-2.8.7-4.6.5-2.1-.2-3.2-1.1-3.7-1.6-.5-.6-1.5-1.8-1.5-4zm7.3-1.3s0-.4-.1-.7c-.1-.5-.6-1.3-1.8-1.4-.5 0-1.2.1-1.6.6s-.5 1.2-.5 1.4l4 .1zm9.9-.4L47.5 9h3.7l-2.4 2.6-2 2.2c.5.5 1.3 1.4 2.4 2.8.7.9 2.2 3.4 2.2 3.4h-3.5c-.2-.4-1.3-2.2-1.8-2.8-.4-.5-1.4-1.7-1.9-1.9V20h-3.1V4.2l3.1-.5v9.1zm13.6-4.2c.8 0 1.5.1 2.3.3.5.2 2.4.7 2.4 4.2v6.4c-1.2.3-3.7.6-4.7.6-1.4 0-3-.5-3.4-.8s-1.4-1-1.4-2.8c0-.5.1-1.8 1.4-2.7.4-.3 1.5-.7 3.2-.7.4 0 1.4.1 2.1.2 0 0 0-1.1-.5-1.5-.4-.3-1.1-.5-1.9-.5-1.4 0-2.4.3-2.9.5L54 9.3c-.1-.1 1.8-.7 3.8-.7zm.6 9.1c.7 0 1.3-.1 1.3-.1v-2.3s-.3-.1-1.3-.1c-.9 0-1.3.2-1.4.3-.5.2-.6.7-.6 1 0 .5.2.8.5 1 .2.1.8.1 1.5.2z"/></svg>