<svg viewBox="0 0 156 30"><path d="M3.8 6.2h2.4c1.7-.1 3.1 1.2 3.1 2.9.1 1.7-1.2 3.1-2.9 3.1h-.2-2.4v-6zm0 15.8v-6h2.6l4.5 6h4.6L10 14.7c3-2.1 3.7-6.3 1.6-9.4-1.3-1.8-3.3-2.8-5.5-2.8h-6V22h3.7zm17.3-3.4c-2 0-3.4-2-3.4-4.4s1.5-4.4 3.4-4.4 3.4 2 3.4 4.4-1.4 4.4-3.4 4.4zm3.4-12.2v.7c-1-.7-2.1-1.1-3.3-1.1-4 0-7.1 3.7-7.1 8.2s3.1 8.2 7.1 8.2c1.2 0 2.4-.4 3.3-1.1v.7H28V6.4h-3.5zm12.3 7.3l6.1-7.3h-5l-4.2 5.4V1.2H30V22h3.7v-6.4l5.2 6.4h5l-7.1-8.3zm16-7.3v9.2c0 1.7-1.2 3.2-2.9 3.2S47 17.3 47 15.6V6.4h-3.5v9.2c0 3.7 2.6 6.8 6.3 6.8 1.1 0 2.1-.4 3-1v.6h3.5V6.4h-3.5zm13.1 11.9c-.3.2-.8.4-1.2.4-.6 0-1.7-.4-1.7-1.9v-6.7h3V6.4h-3V2.5h-3.6v3.9h-1.9v3.7h1.9v6.7c0 3.5 2.6 5.6 5.3 5.6 1.2 0 2.4-.4 3.5-1l-2.3-3.1zm11.3-6.1h-6.4c.8-3.7 5.7-3.9 6.4 0zM74.1 6c-4.1 0-7 3.6-7 8.2 0 4.8 3.7 8.2 7.4 8.2 1.9 0 4.3-.6 6.3-3.5l-3.1-1.8c-2.4 3.6-6.5 1.8-6.9-1.8H81c.8-5.6-2.8-9.3-6.9-9.3zm11.7 16v-9.2c0-1.7 1.2-3.2 2.9-3.2s2.9 1.5 2.9 3.2V22h3.5v-9.2c0-3.7-2.6-6.8-6.3-6.8-1.1 0-2.1.4-3 1v-.6h-3.5V22h3.5zm-9.2 2.9H19.1l4.6 4.6 52.9-4.6zM101 .5h3.5v12.3l4.8-5.6h4.1l-5.4 6.4 5.9 8.4h-4.1l-5.2-7.5h-.1V22H101V.5zm12.6 14.1c0-4.9 2.3-7.8 6.5-7.8s6.5 2.9 6.5 7.8-2.3 7.8-6.5 7.8-6.5-3-6.5-7.8m6.6 5.3c2.5 0 2.9-2.5 2.9-5.3s-.4-5.3-2.9-5.3-2.9 2.5-2.9 5.3.4 5.3 2.9 5.3M132.1 9h0c.9-1.4 2.3-2.2 3.9-2.1 3.6 0 5.1 3 5.1 7.8 0 4.1-1.4 7.8-6.3 7.8-3.9 0-6.2-2.2-6.2-6.6V.5h3.5V9h0zm2.7 10.9c2.2 0 2.6-2.9 2.6-5.3 0-2.7-.3-5.5-2.6-5.5-2.1 0-2.7 3.1-2.7 5.5 0 3.7.5 5.3 2.7 5.3m8-5.3c0-4.9 2.3-7.8 6.5-7.8s6.5 2.9 6.5 7.8-2.3 7.8-6.5 7.8-6.5-3-6.5-7.8m6.5 5.3c2.5 0 2.9-2.5 2.9-5.3s-.4-5.3-2.9-5.3-2.9 2.5-2.9 5.3.4 5.3 2.9 5.3"/></svg>