<svg viewBox="0 0 126 30"><path d="M15 13.2l-4 7.6-4-7.6c-1.5-2.7-3.8-3.4-6.9-2l9.2 17.4c.4.7 1.1 1.1 1.7 1 .7 0 1.3-.3 1.7-1 3.1-5.6 9.2-17.4 9.2-17.4-3.1-1.4-5.3-.7-6.9 2zm12.1 16.5h-.5c-1.4 0-2.5-1.1-2.5-2.5V12.9c0-1.4 1.1-2.5 2.5-2.5h3v16.8c0 1.3-1.1 2.5-2.5 2.5zm0-21.8h-.5c-1.3 0-2.4-1.1-2.4-2.4v-.9c0-1.3 1.1-2.4 2.4-2.4h.5c1.3 0 2.4 1.1 2.4 2.4v.9c0 1.3-1.1 2.4-2.4 2.4zm19.5 5.3l-4 7.6-4-7.6c-1.5-2.7-3.8-3.4-6.9-2l9.2 17.4c.4.7 1.1 1.1 1.7 1 .7 0 1.3-.3 1.7-1 3.1-5.6 9.2-17.4 9.2-17.4-3.1-1.4-5.4-.7-6.9 2zm11.8 16.5h.5c1.4 0 2.5-1.1 2.5-2.5V4c0-2-1.6-3.6-3.6-3.6h-1.9v26.8c0 1.3 1.1 2.5 2.5 2.5zm10.3 0h-.5c-1.4 0-2.5-1.1-2.5-2.5V12.9c0-1.4 1.1-2.5 2.5-2.5h3v16.8c-.1 1.3-1.2 2.5-2.5 2.5zm0-21.8h-.5c-1.3 0-2.4-1.1-2.4-2.4v-.9c0-1.3 1.1-2.4 2.4-2.4h.5C70 2.3 71 3.3 71 4.6v.9c0 1.3-1 2.4-2.3 2.4zm15.5 1.8c-5.6-.1-10.4 4.6-10.4 10 .1 5.5 4.5 9.8 10.1 9.9 5.7 0 10.4-4.4 10.4-9.9 0-5.3-4.6-9.9-10.1-10zm.1 15.2c-3.1 0-5.4-2.1-5.5-5s2.5-5.5 5.3-5.6c2.7 0 5.3 2.6 5.3 5.4.1 2.7-2.4 5.2-5.1 5.2zm41.6-14.4l-12.2 17.8c-1.1 1.6-2.6 1.9-3.9.5-4.2-3.9-7.5-7.6-10.2-11.9-2.4-4-1.4-8 1.8-10.5 2.9-2.4 6.9-2.3 9.7.2.7.6 1.3 1.3 2 2 1.6 1.7 1.7 2.2-.1 4-1.5 1.5-2.5.5-3.4-.5-2.4-2.6-3.6-3-5.2-1.8-1.5 1.2-1.5 2.9.3 5.6 1.6 2.3 3.5 4.7 6.3 7.9l6.4-9.7c2.3-3.6 4.6-4.5 8.5-3.6z"/></svg>