<svg xmlns="http://www.w3.org/2000/svg" viewBox="0 0 730 352">
    <path d="M137.2 245.5c2.7 9.7 4 19.3 2.5 27.7-2.3 13-.7 30.2-7.2 31.8-8.5 2-17.9 7.8-12.4 17s34.7 5.2 37.3 1.4 4.1-6.8 7.2-23.2c1.7-8.9 8.4-18.9 12.4-33.2-15.1-6.8-28.6-13.3-39.8-21.5z" fill="#d3d3d3"/>
    <path d="M121.9 311.7s-5.5-1.6-6.5 4.3c1.8-1.7 4.6-2.4 5.5-2.3.2-1.2 1-2 1-2zm.8 3.6s-6.4-1.5-6.4 5c1.7-1.8 4.7-3 5.6-3 .1-1.2.8-2 .8-2zm.6 3.5s-5.6-.3-5.3 5.8c1.4-2 4.2-3.6 5.1-3.7 0-1.2.2-2.1.2-2.1z" fill="#676766"/>
    <path d="M370.3 302.5s87.8 20.8 68.8 22.8-70.5 6-91.8 5c-22.2-1-44-.1-50-5.3s-10.5-15.5 9.3-17.7c15.2-1.6 49.4 3.6 63.7-4.8z" fill="#d3d3d3"/>
    <path d="M297 311.1s-5.4-1.9-6.7 3.9c1.9-1.6 4.7-2.2 5.6-2.1.2-1.1 1.1-1.8 1.1-1.8zm.6 3.6s-6.3-1.8-6.7 4.6c1.8-1.8 4.8-2.7 5.7-2.7.2-1.1 1-1.9 1-1.9zm.4 3.5s-5.6-.6-5.6 5.5c1.5-2 4.4-3.3 5.3-3.4 0-1.1.3-2.1.3-2.1z" fill="#676766"/>
    <path d="M76.8 33.3s14-18 19-14 11.2 7.8 11.2 7.8-10.5 13.4-10.5 14.2-19.7-8-19.7-8z" fill="#d3d3d3"/>
    <path d="M93.8 116.3s-7.8-6.9-33.1-8.9-43-17.6-44.7-19.9c-1.1-1.4-6-13.3-2.6-15.3 0 0 2.5-1.3 6-3.7 9.3-6.1 17-10.1 19.6-13.4s9.6-9.3 22.6-15 38.6-21.8 77.9-6.9 46.8 52.8 50.8 76.6 12.7 46.3 18.2 48.5c19 7.7 47.9 13.4 92.1 7.7 74.7-9.7 122.7 37.1 133.4 44.8 10.3 7.5 18.5 18.8 34.8 69.2 7.7 8.5 16.2 18 72.7 3 41.5-11 92.1-7.2 92.1-7.2s36.1 19.7 23.4 20.2c-28.3 1-62.8 12.8-100 19.5s-62 15.7-94.7 3.3c-8.8.9-60.9-11.6-89.8-13-69-3.3-153.7-19.1-183.5-32.2-41.7-18.3-73.3-31.3-83.7-72.7s-1-41.6-11.5-84.6z" fill="#f2f2f2"/>
    <path d="M91.9 39.7s8-17.4 32.1-15c9.6 2.9 32 28.5 4.5 54.2-12-34.9-36.6-39.2-36.6-39.2z" fill="#fff"/>
    <path d="M705.5 281.9l16.2-7.5c-4.2-.9-17.6-4.1-17.6-4.1s5.4-5 10-12.7c-2.8 3-19.9 9.8-19.9 9.8s5-8.8 7.7-17.7c-4.7 6.7-21.2 16.3-21.2 16.3s5.3-7.4 7.9-16c-4.6 6.7-19.7 13.1-19.7 13.1l4.8-18.2c-5.7 8.7-19.8 17.8-19.8 17.8s1.9-7.9 2.2-18.8c-3.1 8.2-13.5 19.8-13.5 19.8s.4-4.8-.6-18c-2.1 7.5-11.8 23.8-11.8 23.8s1-3.9 1.4-16.7c-1.9 9.3-11.8 20.4-11.8 20.4s1.1-7.9.2-15.2c-1.6 6.5-9.4 17.3-9.4 17.3 11.1 3.9 18.5 10.7 30.7 10.6-11.9 2.9-16.5 10.4-26.3 16.9 0 0 9.1 7.1 12.2 13-.9-7.3-3.9-14.7-3.9-14.7s12.3 8.3 16.5 16.9c-3.5-12.3-5.5-15.9-5.5-15.9s13.4 13.4 17.3 20.1c-2.3-13.1-3.9-17.6-3.9-17.6s12.9 8.7 18 15.8c-3-10.5-6.8-17.7-6.8-17.7s15.9 5.4 23.6 12.4l-9.2-16.4s16.2 2.4 22.3 7.8c-4.6-7.8-11.6-13.6-11.6-13.6s18.3 5.2 24.6 10.6c-4.8-7.9-11.8-15.2-11.8-15.2s18.3 2.3 21.7 4.5c-6.5-6.6-13-10.9-13-10.9z" fill="#1c1c1c"/>
    <path d="M140.4 198.1s17.9 52.9 6.4 83.9c-4.6 12.4-6 29.6-12.8 30-8.8.5-19 4.5-15.3 14.5s31 13.4 38.5 5.8c3.2-3.3 3.2-3.8 9.2-19.3s26.8-29.7 28.8-74c2.3-52 2.7-60-9.1-70.3s-51-3.1-45.7 29.4z" fill="#fff"/>
    <path d="M122.2 316.7s-5.4-1.9-6.7 3.9c1.9-1.6 4.7-2.2 5.6-2.1.2-1 1.1-1.8 1.1-1.8zm.6 3.7s-6.3-1.8-6.7 4.6c1.8-1.8 4.8-2.7 5.7-2.7.2-1.1 1-1.9 1-1.9zm.4 3.5s-5.6-.6-5.6 5.5c1.5-2 4.4-3.3 5.3-3.4 0-1.2.3-2.1.3-2.1z" fill="#1c1c1c"/>
    <path d="M378.7 312s-52.8-46-20.5-93 80.9-10.1 90.1.8c20.4 24.1 20.3 53.2 20.4 59.7.1 8.8-2.2 53.3-21.2 55.3s-70.5 6-91.8 5c-22.2-1-44-.1-50-5.3s-10.5-15.5 9.3-17.7c15.1-1.6 49.3 3.5 63.7-4.8z" fill="#fff"/>
    <path d="M305.3 320.5s-5.4-1.9-6.7 3.9c1.9-1.6 4.7-2.2 5.6-2.1.3-1 1.1-1.8 1.1-1.8zm.7 3.7s-6.3-1.8-6.7 4.6c1.8-1.8 4.8-2.7 5.7-2.7.1-1.1 1-1.9 1-1.9zm.3 3.5s-5.6-.6-5.6 5.5c1.5-2 4.4-3.3 5.3-3.4.1-1.1.3-2.1.3-2.1z" fill="#1c1c1c"/>
    <path d="M13.2 72.2S9.6 73.7 9.9 75s.9 8.3 5.2 10.7c4.1-1.3 7.3-5.1 8-6.6-3.8-2.7-8.1-7.1-9.9-6.9z" fill="#222323"/>
    <path d="M53.5 66.1s6-10.7 14-7.6-1.3 10.3-4.1 10.5c-2.7.3-3.4.4-9.9-2.9z" fill="#1c1c1c"/>
    <path d="M33.4 80.9a291.18 291.18 0 0 1 22.9 2.4c7.6 1.1 15.1 2.5 22.6 4.3 7.4 1.8 14.8 4 21.9 6.8a82.06 82.06 0 0 1 10.4 4.9c3.3 1.9 6.6 4 9.5 6.5-2.9-2.5-6.2-4.5-9.5-6.3-3.4-1.8-6.8-3.4-10.4-4.8-7.1-2.8-14.5-4.8-22-6.5s-15-3-22.6-4-15.2-1.8-22.8-2.1h0a.47.47 0 0 1-.5-.5c-.1-.5.2-.7.5-.7zm.4 3.2c4.8.8 9.5 1.9 14.2 3.2s9.3 2.9 13.8 4.7c4.5 1.9 8.9 4 12.9 6.6 4.1 2.6 7.8 5.8 10.7 9.8-2.9-3.9-6.7-7-10.8-9.5-4.1-2.6-8.5-4.6-13-6.4s-9.1-3.2-13.8-4.4-9.4-2.3-14.2-3h0c-.3 0-.5-.3-.4-.6 0-.3.3-.5.6-.4zm-1.6 5.6c2.7 2.5 5.2 5.2 7.5 8s4.5 5.8 6.4 8.9 3.5 6.4 4.9 9.8c1.3 3.4 2.1 7 2.6 10.6-.5-3.6-1.5-7.1-2.8-10.5-1.4-3.3-3.1-6.6-5.1-9.6s-4.2-5.9-6.5-8.7c-2.4-2.7-4.9-5.4-7.6-7.7h0c-.2-.2-.2-.5 0-.7 0-.2.3-.3.6-.1zm1.5-2.6a78.85 78.85 0 0 1 11.5 5.1c3.7 2 7.2 4.2 10.5 6.8s6.4 5.4 9 8.7c1.3 1.6 2.5 3.3 3.6 5.1s2 3.7 2.8 5.6c-.8-1.9-1.8-3.8-2.9-5.5s-2.3-3.4-3.7-5c-2.7-3.2-5.8-5.9-9.1-8.4s-6.9-4.6-10.6-6.5-7.5-3.6-11.4-4.8h0c-.3-.1-.4-.4-.3-.6.1-.4.3-.6.6-.5z"/>
</svg>