<svg xmlns="http://www.w3.org/2000/svg" viewBox="0 0 763 343">
    <path d="M757.3 150.9c-22.7-17.2-45.2-31.1-61.6-40.6l49.4 26.5c7.5 2.5 11-1.3 9.8-3.3-47.3-29.2-89.3-45.7-89.3-45.7s-91.1 6.1-252.4 64.9c-.3 7.9 2.2 24 4.3 51 .6 5.9 9.4 10.8 10.6 4.3l-.3-6.4.8 10c.6 5.9 9.4 10.8 10.6 4.3l-.3-6 .7 5.3c.9 5.8 9.9 10.3 10.8 3.8-.1-.6-.1-1.2-.2-1.9.2 1 .3 2.1.5 3.2 1 5.3 7.3 2.4 8.9-3.2.2 1.2.3 2.3.5 3.5 1 5.8 8.9 4 8.2-2.6l-.3-3.3 1.4 9.4c3.6 12.5 10.4 11.8 10.2-2l2.1 10.7c1.1 5.1 9.6-1.4 8.8-9.7l-1.2-7.4 2.7 10.4c1.4 5 9.5-2 8.2-10.2l-3.9-17.3 6 21.8c1.5 5 9.4-2.1 8.1-10.3-.5-2-1-4-1.4-6l3.2 8.7c1.9 4.9 8.1-2.4 6.2-8.2.5 1.3.9 2.5 1.3 3.7 1.9 4.9 8.1-2.4 6.2-8.2-.1-.3-.2-.7-.3-1 .1.2.1.3.2.5 3.9 8.5 11.2 3.7 9.4-.4-.3-.6-.5-1.2-.8-1.8 4 4.9 9.5.8 7.9-2.9l-1.5-3.6c3.8 5.6 9.7 2.4 9.1-.1-.6-1.7-1.3-3.4-1.9-5 3.7 6.9 10.1 5 9.6.7l-4.4-11.6c.8 1.9 1.5 3.7 2.1 5.4 3.4 8.7 11.4 6.7 10.2 2.3-.5-1.5-1.1-2.9-1.6-4.4 3.8 7.3 12.1 5 11 .8-.4-1-.7-1.9-1.1-2.9 4.2 5.6 12.4 2.7 11.4-1.3l-3.8-10.5 3.1 7.6c3.5 8.6 14 5.3 12.8.9l-10.5-26.9 10.6 23.6c3.9 8.5 15.2 4.6 13.8.3l-19.1-42.4 19.6 40.5c4.1 8.4 14.3 4.3 12.8-.1l-12-25.3 12.6 24.2c4.6 9.5 19.7 7.5 16.3 2l-10.7-19 10.8 17.8c5.3 9.2 19.7 7.4 16 2.1l-13.4-20.5 14.9 20.4c6.1 8.7 22.2 4.4 18-.5l-22.3-27.6 23.2 25.8c6.9 8.1 20.5 4.8 16.2-.1-6.1-7.1-12-13.7-17.7-19.9 6.8 6.5 12.9 12.5 17.3 17.1 7.3 7.7 20.7 3.7 16.1-.9L690 143.3c14.2 12.6 26.5 23.2 29 25 8.5 6.3 19.7 4.2 19 2-19.5-18.9-37.6-35-51.5-47l48.7 38.8c9.2 5.3 16.3 3 15.4.8-18-16.3-38.9-31.8-55.2-43.2l47.9 31.5c7.5 3.3 15.1 1.8 14-.3zm-408.9 1.4C169 87.9 96.9 87.9 96.9 87.9s-42 16.5-89.3 45.7c-1.3 2 2.3 5.8 9.8 3.3 4-1.3 27-14.3 49.4-26.5-16.4 9.4-38.9 23.4-61.6 40.6-1.1 2.1 6.5 3.6 13.8.5 4-1.7 26.5-17.3 47.9-31.5-16.3 11.4-37.1 26.9-55.2 43.2-.9 2.2 6.3 4.5 15.4-.8 4-2.3 27.5-22.1 48.7-38.8-13.9 12-32 28.1-51.5 47-.6 2.3 10.5 4.4 19-2 2.5-1.9 14.9-12.5 29-25l-19.8 20.1c-4.5 4.6 8.9 8.6 16.1.9C73 160 79.1 154 85.9 147.5l-17.7 19.9c-4.3 4.9 9.3 8.2 16.2.1 5.7-6.7 14.1-16 23.2-25.8l-22.3 27.6c-4.2 4.9 11.9 9.2 18 .5l14.9-20.4-13.4 20.5c-3.7 5.3 10.7 7.1 16-2.1 2.8-4.9 6.5-11 10.8-17.8l-10.7 19c-3.4 5.6 11.7 7.6 16.3-2 3.1-6.4 7.6-15 12.6-24.2l-12 25.3c-1.5 4.3 8.7 8.4 12.8.1l19.6-40.5-19.1 42.4c-1.4 4.4 9.9 8.2 13.8-.3 2.8-6 6.5-14.4 10.6-23.6L165 173.1c-1.2 4.4 9.2 7.8 12.8-.9l3.1-7.6-3.8 10.5c-1 4 7.3 6.9 11.4 1.3-.4 1-.7 1.9-1.1 2.9-1.1 4.2 7.2 6.5 11-.8l-1.6 4.4c-1.2 4.4 6.8 6.4 10.2-2.3a154.29 154.29 0 0 0 2.1-5.4l-4.4 11.6c-.6 4.3 5.9 6.2 9.6-.7l-1.9 5c-.6 2.5 5.3 5.7 9.1.1l-1.5 3.6c-1.6 3.7 3.9 7.8 7.9 2.9-.3.6-.5 1.2-.8 1.8-1.8 4.2 5.5 8.9 9.4.4.1-.2.1-.3.2-.5-.1.3-.2.7-.3 1-1.9 5.8 4.3 13.1 6.2 8.2.4-1.2.9-2.4 1.3-3.7-1.9 5.8 4.3 13.1 6.2 8.2l3.2-8.7c-.5 1.9-.9 3.9-1.4 6-1.3 8.2 6.6 15.3 8.1 10.3 1.6-6.2 3.7-13.8 6-21.8l-3.9 17.3c-1.3 8.2 6.8 15.3 8.2 10.2L273 216l-1.2 7.4c-.8 8.3 7.7 14.8 8.8 9.7l2.1-10.7c-.1 13.8 6.6 14.5 10.2 2l1.4-9.4-.3 3.3c-.6 6.5 7.2 8.4 8.2 2.6.2-1.2.3-2.3.5-3.5 1.6 5.6 7.9 8.5 8.9 3.2.2-1.1.3-2.1.5-3.2-.1.6-.1 1.2-.2 1.9.9 6.5 9.9 2 10.8-3.8.2-1.8.5-3.6.7-5.3l-.3 6c1.2 6.5 10 1.5 10.6-4.3l.8-10-.3 6.4c1.2 6.5 10 1.5 10.6-4.3.4-3.1 3.7-53.3 3.6-51.7z" fill="#101316"/>
    <path d="M414.6 10.3s12.1 2.4 22.7-.6 17.5-7.1 22.5-4.4c4.1 2.2 4.9 4.9 5.8 8.3.3 1.2-1 2.6-1.9 1.2-1.1-1.6-4.4-1.5-7.5-.9-3.7.7-31.2 8.3-44.6 17.2-6.9-7.2-1.1-9.8 3-20.8z" fill="#303031"/>
    <path d="M673.7 91.6c-28.8-13-77-36.1-110.8-36.1-29.1 0-109.4 74.6-109.4 74.6-11.3 9.8-30.6 2.5-43.3-2.1-.6-.2-1.2-.3-1.8-.3 0-30.2-10.1-34.6-24.7-49.5-6.5-6.6 2.1-21.9 6.8-27.6 4.8-5.9 10.4-10.8 21-19.4-3.2-3.7-3.2-13 7.8-17.1 8.3-3.1 4.5-2.7-.1-2.9-5.8-.3-9.5-2.1-9.5-2.1s-32.9-15.6-53.6 18.4 5.7 70 9.3 74.6c3.6 4.5-11 25-11.5 25.8a4.53 4.53 0 0 0-1.6.3c-12.7 4.6-32.1 11.8-43.3 2.1 0 0-80.2-74.6-109.4-74.6-33.8 0-82 23.1-110.8 36.1s85.4 11.4 97.8 16.8c28.6 12.5 59.4 64.4 103.5 79.6 15 5.2 38.7 4.7 54 .9-3 29.3-3.7 62.6 4.5 84.1.1 0 .3.1.4.1-9.2 9.7-28.7 30.4-29.1 33.3-.5 4 1.2 7.1 1.2 7.1l7.4-8.4c-3.2 4.4-5.3 7.6-5.4 8.6-.1 4.1 1.9 7 1.9 7l12.3-16.1c-5.2 7.5-9.1 13.7-9.1 15 .1 4.1 2.5 6.4 3.4 5.2 3.5-4.6 8.1-11.2 12.8-18.1-4.9 8.9-8.8 16.4-8.6 17.8.5 4 3.1 6.1 3.9 4.8 2.5-4.2 5.8-9.8 9.1-15.9-2.9 7.1-5 12.7-4.7 13.8.9 4 3.7 5.7 4.4 4.4 2-4.2 4.4-9.7 7-15.7-2.1 7.5-3.4 13.3-3 14.4 1.4 3.8 4.4 5.2 4.9 3.8 1.5-4.4 3.2-10.2 5-16.4-1.2 7.7-1.9 13.6-1.3 14.7 1.9 3.6 5 4.7 5.3 3.2.7-3.2 1.4-7 2.1-11.3-.2 5.7-.1 9.9.5 10.6 2.2 3.4 6.6 3 6.7 1.5.3-2.6.5-5.7.7-9.2.2 2.9.4 5.5.7 7.7.4 2.9 4.6 3.7 6.9.4.5-.8.7-4.9.7-10.7l.9 11.6c.2 1.5 4.5 1.9 6.7-1.5.5-.8.6-4.9.5-10.6.7 4.2 1.5 8.1 2.1 11.3.3 1.5 3.5.4 5.3-3.2.5-1-.1-7-1.3-14.7 1.8 6.3 3.5 12.1 5 16.4.5 1.5 3.5 0 4.9-3.8.4-1.1-.9-6.9-3-14.4 2.5 6 5 11.5 7 15.7.7 1.4 3.5-.4 4.4-4.4.3-1.1-1.8-6.7-4.7-13.8l9.1 15.9c.8 1.3 3.4-.7 3.9-4.8.2-1.4-3.7-8.9-8.6-17.8 4.7 6.9 9.3 13.5 12.8 18.1.9 1.2 3.3-1.1 3.4-5.2 0-1.3-3.9-7.5-9.1-15l12.3 16.1s2-2.9 1.9-7c0-1.4-4.4-7.5-10.1-14.8l12.9 14.6s1.7-3.1 1.2-7.1c-.3-2.9-19.8-23.5-29-33.2 8.2-21.5 7.6-54.8 4.6-84.2 15.3 3.9 39.2 4.4 54.3-.8 44.1-15.2 74.9-67.1 103.5-79.6 12.7-5.7 126.8-4 98.1-17zM409.2 16.5c-3.4 4.1-7.2 2.3-9.4-.6 5.5-4.8 9.4.6 9.4.6zm-26.3 260.9c.1.6.1 1.2.1 2-.1-.8-.1-1.4-.1-2z" fill="#08090a"/>
</svg>