<svg xmlns="http://www.w3.org/2000/svg" viewBox="0 0 668 292">
    <path d="M6.8 96.3s1.2-3.2 2.4-4.7a18.95 18.95 0 0 0 .9 5.5l3.3-2.8v3.9l3.3-1.3v3.3l3.1-1.3v3l3.3-1.1.9 2.8 3.5-1.4 1.1 3.3 4.5-1.6.9 3.1 3.8-2.3.8 2.9 3.6-2.1 1.8 3 3.8-2.1 1.1 3 3.3-2.3 1.8 3.1 2.9-2 1.9 2.8 2.6-2.3L63 111l3.5-1.4 1.5 2.8 2.4-1.9 1.4 2.8 2.8-2.3 1.4 3.4 2.9-2.1 1 2.1s24.8 3.4 34.9-9.5c-.6 11.3-10.9 22.9-38 20.3s-60.4-16.6-60.4-16.6L6.8 96.3zM46 15.2l-3.2 7.3H46l-.7 3.7h4l-.9 3 3.7-.9v3.3h3.3l4 6.1-1.7 4.3h2.2l-.5 3.5h2.2V48l2.5-.7v3.2h3.2V53H71l-.7 3h3v2.3l2.8-.4s4 3 5.1 4.3C82.3 63.6 85 69 85 69l-.1 3.6H88v2.8h2.8l.7 3h2.7V81h4s7.8 1 10.2 0L50 12.5l-4 2.7z" fill="#e0e0e0"/>
    <path d="M202.4 207.9c-15 5.6-33.8 6.3-39.5 5.2 0 0-6 4.3-9.9 10.6-2.5-3.4-2.8-10.7.2-12.6-6.7 3.3-10.4 5-12.4 8.7-1.2-4.3.8-13.7 5-13.9-6.4-.2-14.3 9.1-14.3 9.1s-1-14.6 5-15.7c0 0-9.8-.8-11.7 4.3 2-6.1 7.9-14 14.9-13.4 7 .7 11.5 5.2 25.3.1 13.9-5.2 52.3 12.1 37.4 17.6z" fill="#31332a"/>
    <path d="M104.3 149s16.7 26.3 39.2 35.8 31 8.5 56.5 23.7 101.9 26.5 136.9 26 79.4-17.7 99.4-16.7 71.7-3.3 111.7-.8 89.3 11.2 89.3 11.2v-24.7l-458-73.5-75 19z" fill="#5e5e4b"/>
    <path d="M50 6.8s-11.5 6.3-1 17.4c7.8 5.8 10.2 9.3 10.2 9.3s-1 10.3 7.8 14c6.7 6 9.5 8.3 13 8.5s4.5 8 6.3 11.5 11.8 13.2 29.5 20.2c0 9.8-2.3 28.2-18.2 30-15.8 1.8-23.2 1.4-29.5-1.5-6.3-3-17.5-2.3-23.6-3.6S23 109 6.8 96.3c-.8 5.8-1.7 13.8 17.2 21 18.8 7.2 30.3 10.2 42 14s30.3 9.3 38.3 17.7c14.2 3 49.4 2 64.4-14s10.1-23.5 10.1-23.5L50 6.8z" fill="#4e4f3e"/>
    <path d="M656.3 179.8s-.1 0-.3-.1c.4-1.7-.5-4.5-2.7-6.1-2.8-2-7.6 1.6-7.6 1.6s.3-4.3-2.9-6.6-10.2 1.4-10.2 1.4-1.8-5.4-5.3-6.2-6.6 2.2-6.6 2.2 2.1-4.4-3.4-5.9-9.2 2.4-9.2 2.4-1.1-5.9-6.8-6.9-10.6 3.5-10.6 3.5 0-5-7.3-6c-6-.8-9.2 2.4-10.2 3.6-.2 0-.4 0-.5-.1-.7-1.3-2.9-4.9-8-5.8-6.3-1-8.4 3.6-8.4 3.6s-2.1-4.8-7.6-5.6-9.9 3.4-9.9 3.4-3.6-5.9-8.1-6.2-8 4.4-8 4.4-3.2-5.2-8.2-5.9-9.2 4.4-9.2 4.4-3-4.6-8.3-4.6-9.5 3.4-9.5 3.4-2.3-3.6-7.3-3.6c-3.6 0-6.2 1.9-7.5 2.9-.4 0-.9-.1-1.3-.1-1.1-1.5-3.7-4.6-6.7-4.8-4-.2-10.4 3.3-10.5 3.3h0s-2-4.1-6.5-4.4c-4.5-.2-10.5 2.2-10.5 2.2h0s-3-4.2-6.5-4.7-9.7 2-9.7 2-2-3.5-6-4.5-10.2 1-10.2 1.1h0s-1.6-3.1-5.5-4.6c-4-1.6-10.3 0-10.3 0s-1.7-3.4-5.4-5.1-8.9 0-8.9 0-2.8-2.8-6.3-4.3c-2.4-1-6.4-.6-8.6-.3-4.8-1.2-10-2.4-16.1-3.5-20.2-3.4-53.6-.2-60.8 1.5-13.2 3.2-27.8 9.6-41.8 8.3-13.3-1.3-30.8-11-47.8-25.4-8.8-8.3-19.5-19.9-21.2-23.6s-17.2-13.8-19.2-18.7c-.3-5.2-8.2-16-20.1-11.3-13.5 5.3-31-9.8-31-9.8S73.3 18 70 12.8s-8-9-20-6c0 0 15.8 42.8 64.8 61.5 12.3 15.5 25 25.5 38.5 32.5 9 12 17.5 20.8 15.5 33.3s62.3 80.8 111 88.5 106 4.5 141.5-10.3c39.5-.8 89.5-4.8 115-2.3l116 11.8 4-42zM144.7 69c-5.7 1.3-12 .2-18.3-8.5-.1 0 18.9-8.7 18.3 8.5z" fill="#21231e"/>
    <path d="M231.4 194.5s14.3-27.9 29.7-2.3 5.9 51.8-7.8 62.6c-13.8 10.8-33.2 17.8-39.5 18.7 0 0-4.9 6.5-6.8 14.3-3.8-2.7-6.5-10.3-4.1-13.2-5.9 5.7-9.2 8.7-10 13.2-2.7-4.1-3.8-14.6.5-16.2-6.8 1.9-11.9 14.3-11.9 14.3s-5.9-14.9 0-18.1c0 0-10.5 2.4-10.8 8.4 0-7 3.5-17.3 11.1-18.9s13.8 1.6 26.5-8.4 22.4-17.1 23.5-21.8c1.2-4.8-4-24.3-.4-32.6zm203.8 6.1s4.7-23.9-4.7-28.6-33.3-10.8-35.8 13.3 28.4 49.8 41.7 56.1c-4.1 8.5-8.1 19.7-7 26.2 7-3.3 12.7-9.1 12.7-9.1s1.4 9.8 4.3 14.1c6.9-8 9.8-12.3 9.8-12.3s5.1 7.2 5.8 10.5c4.3-5.4 6.5-12.3 4.3-15.9 4 2.5 5.6 9.1 5.6 9.1s7.3-12.3 2.3-19.2c-5.1-6.9-8.8-13.4-16.8-18.1-7.9-4.7-22.2-26.1-22.2-26.1zm221.1-20.8s-.2.3-.7.8h0s-5.1-2.6-6.3.1 0 7 0 7-3.8-2.1-6.5 0-.8 7.6-.8 7.6h0s-3.7-4-6-1.2-1.3 8.2-1.3 8.2-2.7-2.8-5.7 0-1.3 6.3-1.3 6.3h0s-5.7-3.2-8.5 0-1.2 7.8-1.2 7.8-4.6-1.9-7.8 0-2.7 7.1-2.7 7.1h0s-4.2-4.1-7.6-1.1c-3.4 3.1-2.5 6.1-2.5 6.1h0s-5.2-3.7-8-2-4.1 6.6-4.1 6.6-5.1-4.1-8.4-1.5-4.2 7.3-4.2 7.3-5.8-1.3-8.8 0-4.3 8.5-4.3 8.5-5.9.4-7.2 2.1-4.4 7.2-3.6 9.2c-2.7 0-6.5 3.2-4.8 9-3.6 3.1-5.1 7.8-3.6 10.8.2-.1.4-.2.7-.3-.3 1.7-.5 3.5-.7 5.3 7.3 1.3 42-12.8 70-22s43.7-17.3 47.2-31 8.7-42.5-1.3-50.7z" fill="#31332a"/>
</svg>