<svg xmlns="http://www.w3.org/2000/svg" viewBox="0 0 397 484">
    <path d="M373.1 72.8c-9.3-7-11.3-13-20.5-17.5-9.3-4.5-28.6-14.3-72.1-12-43.6 2.3-76.1 7.3-94.4 14-18.3 6.8-25.8 10.8-38.1 1.5S85.6 8 71.3 6.2s-5 5.5 0 13.3 40.6 55.3 38.8 68.4c-1.8 13-7 17.5-23.5 38.3s-37.1 60.1-39.3 123.7c-2.3 63.6 6.8 89.9 1.3 110.2-5.6 20.3-10.9 42.1-20.6 59.1s-3.8 22.5-7.8 33.3-11.5 24.3-10.3 25.8c1.3 1.5 13.3-7.8 19-21.8 5.8-14 12-22 12-22l11.8-22.3 4.8-25.8 30.1-32.8s17-41.1 22.3-57.1 33.5-76.6 33.5-76.6l86.6-49.5.1 33c.3 4.5 4 19.8 33.3-2.3s30.1-56.3 30.1-56.3l-10.2-4.8 91.1-52.1c-.1 0 8-8-1.3-15.1z" fill="#0e0e0e"/>
    <path d="M374.3 87.9s-1.4 17-83.2 57.6-116.7 59.4-127.9 67.9c-11.3 8.5-39.3 47.6-53.3 83.1-2-1.5 20.5-43.6 13.3-49.6-7.3-6-34.3 38.3-38.6 38.1-4.3-.3-21.2-34.4-3.4-72.3 12.3-26 59.5-2.3 72.2-2.1 12.8.3 33.1-27 48.3-39.6s86.9-51.8 86.9-51.8 11.6-22.6 34.9-27.3c23.3-4.8 46.6-5.3 50.8-4z" fill="#f2f2f2"/>
    <path d="M288.8 119c-1.9 5.9-10.4 39.4-36.6 57.3s-47.4 19.6-54 15.5c-6.6-4-4.3-16.9 1.5-23.9s23-18.3 36.3-25.7 40.9-20.4 44.9-23c3.8-2.5 9.1-3.8 7.9-.2z" fill="#1c1c1c"/>
    <path d="M87.6 353.6s-26 3-29.3 17S49 423.2 41 434.5c6.6-9 18.3-25.5 25.8-51.1 11.5-8.5 18.2-24.4 20.8-29.8zM328.3 72.9s-9-18.4-40.2-13.2-27.7 18-19.9 19.4c7.8 1.3 18.9 4.2 29.4 3.7s23.9-8.5 30.7-9.9z" fill="#f2f2f2"/>
</svg>