<svg xmlns="http://www.w3.org/2000/svg" viewBox="0 0 696 528">
    <path d="M137.3 503.4s-3.7 6.4-6.2 15.3c8 2.5 33 6.3 36.7-6 1.7-8.5 2.5-15.3 2.5-15.3l-33 6z" fill="#353535"/>
    <path d="M209.7 478.1l3 14.4c13.3.4 21.8-4.7 25.3-10.9 1.3-5.8-2-12.8-2-12.8s-26.1 4.3-26.3 9.3z" fill="#222323"/>
    <path d="M403.1 449.1l-8.3 15.8s21.3 7.5 31.3 2.8c4.8-7.6 7.4-13.2 7.4-13.2s-15.6-16.3-30.4-5.4z" fill="#1e1e1e"/>
    <path d="M571.7 467.8l3.7 18s24.4-2.3 29.4-14.2c0-5.9-1.5-14.1-1.5-14.1s-29.6 3.6-31.6 10.3z" fill="#282828"/>
    <path d="M686.9 180.5l4.2-7.5-5.7 4.8 4.2-9.8-6.9 8.8 1.3-8.1-4.9 9.1.2-5.3-2.2 5.5c-2.2 5.5-2.7 5.4-1.1 10.3-4.7 10.3-29.1 19.4-57.4 15.8-25.4-3.3-26.3-62-36-78.2-8.4-14-38.7-30.1-66-16.4s-51.2 17-51.2 17c-10.3.2-21.1 2.2-32.2 6.3-95 35.8-182.9 9.8-182.9 9.8s-12.1 4.9-39.1-18.6-68.8-25.3-68.8-25.3 27.4 20 13.7 39.1c-16.5 22.9-73.8 47.3-61.6 73.2 22.3 47.5 24 97.1 37.7 118.5s51.5 59.2 51.5 59.2 1.2 14.1 8.2 22.1 10.7 24.3 11 33.3c-1.7 8 5.3 13.7 6.7 19.3-2.3 3-3 8.7 0 14.7 14.3 4 29.7-7.3 25.7-10.7s-3-9.7-3-9.7 3.7-6.3 3.7-10.3c-28.7-32.3-27-78.7-27-78.7s34.7-28 92.7-32.7c36.4-2.9 78.3-18.5 111.7-24.9.7 8.8 7.5 11.8 11 13.4 4.4 30.4.4 68.4-3.7 89.9-2.3 8.2-8.5 22.4-8.5 22.4s-2.1 4.5-8.9 12.2c12.7 7.9 30.4 5.5 30.4 5.5l-.7-11.3s4.7.7 7.7-2.5c-2.6-22.9 7-52.9 11.2-60.1 4.2-7.3 7.4-19.1 9.1-31.6-2.3-3.1-2.2-17-1.5-29.2l7-1.9c25.6 19.1 47.3 48.5 47.3 48.5s14.7 18 25.3 22c16.7 30 23.3 58 23.3 58l9.3 21.3c21.3 1.5 31.7-10.3 31.7-10.3s0-5.7-6.7-14.3c-18-6.7-27-64.7-27-64.7s-3.3-19.3-11.3-30.4 21.3-89.9 13.3-123.3c1.9-22.9-18.1-59.7-50.4-81.2 0 0 10.9-21.1 24.9-20.6s23.3 12.9 26.5 17.2c3.8 5.1 12.6 37.3 15.1 45.4 3.3 10.8 12.4 23.6 29.9 27 16.4 3.1 38.3-2.1 46.3-6.1 8.4-4.2 13.1-10.2 16.1-15.6 4.8.7 7.7-7.9 7.7-7.9l4-4.5-4.9 2.1z" fill="#161616"/>
    <path d="M211.3 123.9s30.5 10 40 19.5 34 62 14.5 157.5c-6.6 16.5-14 37.5-15 43.5s-13 13-16.5 13-21 23.5-42.5 34c-4 10.5-9.5 21-16.5 26-5.5 15.5-8 43.5-5 59.5-1.3 4.5-4.5 7-4.5 7s2 10 4.5 13.5c-3.5 4-10 13.3-33 6 4.5-8.5 9.5-13.5 6.5-18.5s-8.5-13.5-.5-25 11.5-46 11.5-46-12-23.5 10.5-36c16.5-18.5 21.5-42.5 21.5-42.5s-58-36-11-97 35.5-114.5 35.5-114.5zm240.4 186.2s29.7-74.3 11.7-116.5c-5-3.9-2.2 17.1-2.5 21.6-1.1 17.8-6.8 59.7-17.2 70.6-15.2 16-42.9 28.1-42.9 28.1s29.6-8.1 50.9-3.8zm102-109.9S535 226.1 489 228.8c-3.3 8 42.8 4.4 54.1-7.6s10.6-21 10.6-21z" fill="#222323"/>
    <path d="M146.9 68.1s38.8.1 39.2-15.2c.3-11-16.5-42.3-24.8-49 19.4 11 50.3 40.5 49.5 54.3s-6.9 29.8-53.2 33c-13.3-7-10.7-23.1-10.7-23.1zm-78.9 0s-38.8.1-39.2-15.2c-.3-11 16.5-42.3 24.8-49-19.4 11-50.3 40.5-49.5 54.3S11 88 57.3 91.2C70.6 84.2 68 68.1 68 68.1z" fill="#e0cdcd"/>
    <path d="M158.3 94.4H56.6s-5.5 24.7-5.5 38.5c0 15 12.2 24.6 17.5 40.5 4 12.2 6 19.5 13 27.7h51.6c7-8.2 9-15.5 13-27.7 5.3-15.9 17.5-25.5 17.5-40.5.1-13.7-5.4-38.5-5.4-38.5zm-91.2 17.2c10-1.7 11.5 14.3 11.5 14.3-12.3-.3-17.8-8-11.5-14.3zm69.1 14.3s1.5-16 11.5-14.3c6.3 6.3.8 14-11.5 14.3z" fill="#222323"/>
    <path d="M136.7 131.2c.8 3.1 1 6.3.6 9.6-.2 1.6-.5 3.2-1.1 4.8-.2.8-.6 1.5-1 2.3l-1.3 2.1-2.9 3.8-2.9 3.7c-1.8 2.5-3.3 5.2-3.4 8.5-.4-1.6-.3-3.2.1-4.8s1.1-3.1 2-4.5c1.7-2.8 3.7-5.2 5.5-7.8.5-.6.8-1.3 1.2-1.9.3-.7.7-1.3.9-2 .6-1.4 1-2.9 1.3-4.4.7-3.1.9-6.3 1-9.4zm-57.2 0c0 3.2.3 6.3.9 9.3.3 1.5.7 3 1.3 4.4l.9 2 1.2 1.9 5.5 7.8c.8 1.4 1.6 2.9 2 4.5s.5 3.3.1 4.8c-.1-3.2-1.5-6-3.4-8.5l-2.9-3.7-2.9-3.8c-.5-.6-.9-1.4-1.3-2.1-.4-.8-.8-1.5-1-2.3-.5-1.6-.9-3.2-1.1-4.8-.3-3.2-.1-6.5.7-9.5z" fill="#353535"/>
    <path d="M189.7 90.9C176 101 159.9 93 157.8 92c-1.3-6.3-5.6-22.5-15.4-27-11.1-5.1-30.7-7-35-6.8-4.3-.2-24 1.7-35 6.8-9.8 4.5-14.1 20.8-15.4 27-2.3 1.2-18.2 8.9-31.8-1.1-18.4-13.5-12 6-3.3 20.4 6.6 10.8 16.8 8.4 20.2 7.3 7-2.2 10.9-4.5 10.9-4.5s6.2-12 5.6-18.9c7.6 2.9 34.1 13.9 36.1 25.5 2.9 16.6 1 38-.2 48.8-2.4.1-4.7.8-6.1 2.6-5 6.2-4.8 11.2-4.8 11.2s-3.5 3.3-3.5 8c-.1 9.7 3.7 15.3 8 18 4.3 2.6 12.9 3.3 19.5 2.2 6.5 1.1 15.2.4 19.5-2.2 4.3-2.7 8.1-8.3 8-18 0-4.7-3.5-8-3.5-8s.2-5-4.8-11.2c-1.5-1.8-3.7-2.5-6.2-2.6-1.3-10.8-3.1-32.2-.2-48.8 2.1-11.6 28.7-22.6 36.2-25.5-.6 6.9 5.6 19 5.6 19s3.9 2.2 10.9 4.5c3.4 1.1 13.6 3.4 20.2-7.3 8.4-14.5 14.8-34-3.6-20.5z" fill="#161616"/>
    <path d="M92.1 175.9s-1.5 3 .7 5.8 6.7 9.3 3 12.3c-3.7 3.1-16.4-7.7-3.7-18.1zm30.4 0s1.5 3-.7 5.8-6.7 9.3-3 12.3c3.7 3.1 16.4-7.7 3.7-18.1z" fill="#010202"/>
</svg>