<svg xmlns="http://www.w3.org/2000/svg" viewBox="0 0 275 491">
    <path d="M109 23.2s8.5 5.8 13.9 8.1 24.1 5 29.2 10 9.3 18.5 9.3 23-5.6 25.9-6.5 27.6-2.8 5.3-2.4 6.4 7-2.7 7-2.7L176.2 68l-3.3-37.7c0 0-63.9-7.1-63.9-7.1z" fill="#262626"/>
    <path d="M111.7 21.4s-1.9 10.4 1 14.9c.4-4.1.5-8.6 2.4-13.6-.9-1.6-3.4-1.3-3.4-1.3zm5.2 2.7s-1.8 7 0 10.3c.5-2.8.8-5.9 2.3-9.2-.7-1.2-2.3-1.1-2.3-1.1zm3.7.1s-1.8 7 0 10.3c.5-2.8.8-5.9 2.3-9.2-.6-1.2-2.3-1.1-2.3-1.1zm33.6 73.5s-6.4-8.4-5.7-13.8c2.2 3.5 4.3 7.5 8.2 11.1-.1 1.9-2.5 2.7-2.5 2.7zm3.5-3.9s-4.8-5.5-4.6-9.2c1.7 2.3 3.3 4.9 6.1 7.2 0 1.4-1.5 2-1.5 2zm2.8-3.1s-4.8-5.5-4.6-9.2c1.7 2.3 3.3 4.9 6.1 7.2.1 1.4-1.5 2-1.5 2z" fill="#e5e4e4"/>
    <path d="M266 74.7c-3.9-12.6-17-28.3-26.2-35.8-13.8-11.8-28.8-17.7-37.1-21-14.5-5.9-32.2-12.4-61-11.7-19.3.4-32.6 9.8-32.7 17 4.4 1.3 32 8.6 43.1 9.6s20.7 31.6 16.7 39.7-11.5 24.9-16.3 25.7c1.9 1.8 7.4 2.2 15.1-7.8 8.1-10.5 15.3-21.8 15.2-36 6.4 5.2 20.1 6 35.7 17.9 6.9 10.7 6.6 28 4.4 40-8.8 47.2-59.8 73-115 73.3s-104.5 3.9-104.5 46c0 41.5 57.5 57.5 76.7 62.7s61 22 6 34c-55.1 12-60.7 37.5-60.7 44.3s2.8 31.8 76.5 45.5 71 43.8 71 43.8c5.5-13 5.5-26.5-7.5-42.3s-64.2-30.8-83.7-36-34.5-17.5 4.3-24.3 61.7-15.8 61.7-45.5-42.2-47-66.9-55.7-39.6-17.9-38.8-26c1-9.5 22.2-6.9 81.6-9 48.4-1.8 103.2-16.8 126.2-58.8s23.8-65 16.2-89.6z" fill="#111110"/>
    <path d="M143.4 15.5c0-.8.5-1.8.8-2.3-2 .5-3.6 2.2-3.6 2.2s1.6 2.4 3.7 2.4c-.3-.4-.9-1.5-.9-2.3zm3-2.2c-.6-.2-1.2-.3-1.8-.2.3.5.9 1.5.9 2.3s-.6 1.9-.9 2.4h.2c2.2-.4 4.5-3.4 1.6-4.5z" fill="#e4e466"/>
    <path d="M81.7 383.6l13.9 3.9-1.5-88.5c-4.7-1.8-8-2.9-11.8-4.1l-1.6 88.4c.3.1.7.2 1 .3zM96.1 417c-5.8-1.2-11.1-2.4-16-3.7l-.7 38.5c-.7 12 8.7 35.7 8.7 35.7s9.3-23.7 8.7-35.7c-.1-1.8-.3-15.5-.7-34.8zM44.7 81c.9 1.9 3.6 17-4 35-7.7 18-2.7 29.7 9.3 32.7s25.2-.5 25.2-.5 3.1 7 4.2 15.8c.8 7 3.3 54.3 3.6 72.4.1 4.7 0 14.9-.1 22.5 3.3 1.2 6.8 2.5 10.5 4l-.1-26.8c.3-18 2.6-65 3.4-72 1-8.8 4.2-15.8 4.2-15.8s13.2 3.5 25.2.5 17-14.7 9.3-32.7-5.1-33.1-4.2-35c1.3-2.7 7.7 0 7.7 0s-10.7-23.7-12.3-38.3c-1.4 14.6-12 38.3-12 38.3s6.4-2.5 7.4 0c.6 1.6 1 5.2 2 24.3 1.2 24.7-9.3 29-19.7 19.7-10.3-9.4-11.3-60.8-11-68.4.3-7.7 9.7-2.7 15.3 0C92 32.3 88 3.3 88 3.3s-4 29-20.7 53.3c5.7-2.7 15-7.7 15.3 0s-.7 59-11 68.3-20.9 5.1-19.7-19.7c1-19.1 1.3-22.7 2-24.3 1-2.5 7.4 0 7.4 0s-10.6-23.8-12-38.3C47.7 57.3 37 81 37 81s6.4-2.7 7.7 0z" fill="#848383"/>
</svg>