<svg xmlns="http://www.w3.org/2000/svg" xmlns:xlink="http://www.w3.org/1999/xlink" viewBox="0 0 674 157"><path d="M303 16s-18.2 4.8-27.5 3-23.3-7.1-34.8-3-10.9 24.8-10.9 24.8-6.4-2.8-9.4-1.5-11.8 12.2-20.4 17.8l67.6 16.2c20.9-4.4 37.6 9.2 46.1 9.2s35.8-16.3 35.8-16.3L303 16z" fill="#7f7d7e"/><path d="M563.5 68.5S521 24 397.3 24s-234 60-234 60S54.7 88.3 7.7 142c47.8-8 123.7-14.7 135 2.7 11.3 17.3 29.3 1.3 30.3-5s1.8-29.6 4.8-36.4c6.3-1 62-39.5 175.9-35.6 78.3 2.7 142 27.5 142 27.5s66.8 12.4 67.8-26.7z" fill="#616160"/><path d="M397.7 6C274 6 205 52 179.7 71c-9.7 5-13.3 6-18.7 7S52.7 88 5.7 141.7c12.2 1.8 29.7-22 82.3-35.5 14.6-3.7 82-14 90.5-17.8 14.4-6.5 42.4-40.8 190.7-51.2 77-5.4 147.8 24.8 174.1 37.7-4.5-1.6-9.9-2.5-15.2-1-10.3 2.8-24.9 20.8-36.3 22.3-11.3 1.5-11-3-11-3s-9.2 10.5 4 18.9 26.5.7 32.5-2c5.9-2.7 36.9-29.5 36.9-29.5s26.1 20 27.1-19.1c0 0-60-55.5-183.6-55.5z" fill="#757273"/><path d="M667.3 130.3s-18.7-8.7-25-18.3c-6.1-9.2-26-34.1-55-50.5-2.3-1.3-5.3-1.1-7.2.8-9.9 10.4-29.1 19.9-29.1 19.9s102.6 58.6 108.9 55.1c0 0 7.4-2.3 7.4-7z" fill="#7f797b"/><path d="M605.7 100.6c-16.3-8.2-25.6-7.2-51.5-20.1-4.9 1.4-38.9 12.6-42.8 41.8-.5 4 2.9 7.4 6.9 6.9 24.8-13.7 123.3 18.2 141.6 8-33.6-12.5-35.1-26.5-54.2-36.6zm-7 21.8c-1.1 0-1.5-.5-2.4-1-1.5-1-3.1-2.5-3.1-4.4 0-3 2.4-5.4 5.4-5.4 1.1 0 2.6 1.2 3.5 1.7 1.4 1 2 1.8 2 3.7 0 3-2.4 5.4-5.4 5.4z" fill="#686466"/><path d="M659.9 137.3c-22.4 4.4-53.3-1.9-82.2-16.6-18.4-9.3-32.7-11.5-59.4 8.6 4.3-.5 18.7-2.1 33.3.1 10.5 1.5 20.4 6.6 30.3 7.7 13.1 1.4 23.5-.6 25.8 0 1.7.4 4.9 1.1 9.1 1.8 0 0 .3 1 .3 2 0 .6-1.8 3.7-3 4.3l-4.1 2.1c-1.4.7-2.8 1.5-4 2.7-1.5 1.5-2.1 3.6-2.2 4.4-.1 1.6.2 3.3.9 4.7s1.8 2.6 3.1 3.5c1.3.8 2.8 1.4 4.3 1.4-1.5-.1-2.9-.8-4.1-1.7s-2.1-2.1-2.7-3.5c-.5-1.3-.7-2.9-.5-4.2.2-1.4 1-2.6 2.1-3.5s2.4-1.5 3.8-2.1l4.2-1.8c1.5-.6 3.1-1.8 4-3.5 1-1.9.8-4.4.8-4.4 12.7 1.9 30.8 3.2 40.2-2z" fill="#bcbab7"/><g fill="#9c9b9b"><path d="M505.9 56.4s.7 2 2.1 3.2c-3 .2-4.3-.2-4.3-.2s1.3-.7 2.2-3z"/><use xlink:href="#B"/><use xlink:href="#B" x="-7.5" y="-2.4"/><use xlink:href="#B" x="-13.6" y="-4.4"/><path d="M477.2 47.2s.7 2 2.1 3.2c-3 .2-4.3-.2-4.3-.2s1.4-.6 2.2-3z"/><use xlink:href="#B" x="-28.5" y="-8.7"/><use xlink:href="#C"/><path d="M455.6 41.9s.9 1.9 2.5 2.9c-2.9.5-4.3.2-4.3.2s1.3-.7 1.8-3.1z"/><use xlink:href="#C" x="-13.1" y="-2.9"/><path d="M443.3 39.4s.9 1.9 2.5 2.9c-2.9.5-4.3.2-4.3.2s1.3-.7 1.8-3.1z"/><use xlink:href="#C" x="-25.6" y="-5.2"/><use xlink:href="#C" x="-32.3" y="-6.3"/><path d="M422.3 36.8s1.3 1.7 3.1 2.3c-2.7 1.2-4.1 1.2-4.1 1.2s1-1.1 1-3.5zm-6.7-.9s1.3 1.7 3.1 2.3c-2.7 1.2-4.1 1.2-4.1 1.2s1-1 1-3.5zm-6.7-.6s1.3 1.7 3.1 2.3c-2.7 1.2-4.1 1.2-4.1 1.2s1-1 1-3.5zm-7-.6s1.3 1.7 3.1 2.3c-2.7 1.2-4.1 1.2-4.1 1.2s1-1 1-3.5zm-6.7-.3s1.3 1.7 3.1 2.3c-2.7 1.2-4.1 1.2-4.1 1.2s1-1.1 1-3.5zm-7.5.1s1.5 1.6 3.2 2c-2.6 1.4-4 1.5-4 1.5s.9-1 .8-3.5zm-7.3 0s1.5 1.6 3.2 2c-2.6 1.4-4 1.5-4 1.5s1-1 .8-3.5zm-6.9.2s1.5 1.6 3.2 2c-2.6 1.4-4 1.5-4 1.5s.9-1.1.8-3.5z"/><use xlink:href="#D"/><path d="M358.6 35.7s1.5 1.6 3.2 2c-2.6 1.4-4 1.5-4 1.5s1-1 .8-3.5z"/><use xlink:href="#D" x="-15.1" y="1.3"/><use xlink:href="#D" x="-22.1" y="1.8"/><use xlink:href="#D" x="-29.7" y="2.6"/><path d="M328.1 38.5s1.5 1.6 3.2 2c-2.6 1.4-4 1.5-4 1.5s.9-1 .8-3.5zm-7.6 1s1.5 1.6 3.2 2c-2.6 1.4-4 1.5-4 1.5s1-1 .8-3.5z"/><use xlink:href="#E"/><use xlink:href="#E" x="-7.8" y="1"/><use xlink:href="#E" x="-15.6" y="2.3"/><path d="M288.7 44.4s1.5 1.5 3.3 1.8c-2.5 1.5-3.9 1.8-3.9 1.8s1-1.2.6-3.6zm-7.7 1.4s1.5 1.5 3.3 1.8c-2.5 1.5-3.9 1.8-3.9 1.8s1-1.2.6-3.6z"/><use xlink:href="#E" x="-38.5" y="6.3"/><use xlink:href="#E" x="-46" y="8.1"/><use xlink:href="#F"/><use xlink:href="#F" x="-6.9" y="1.8"/><use xlink:href="#F" x="-14.1" y="3.8"/><path d="M235.7 58s1.9 1 3.7.8c-2 2.2-3.3 2.8-3.3 2.8s.5-1.4-.4-3.6z"/><use xlink:href="#F" x="-30" y="8.9"/><path d="M220.3 63.3s1.9 1 3.7.8c-2 2.2-3.3 2.8-3.3 2.8s.6-1.3-.4-3.6z"/><use xlink:href="#F" x="-45" y="14.7"/><path d="M205.8 69.9s2 .8 3.8.4c-1.8 2.4-3 3.1-3 3.1s.4-1.4-.8-3.5zm-7.3 3.7s2 .8 3.8.4c-1.8 2.4-3 3.1-3 3.1s.4-1.3-.8-3.5zm-6.7 3.9s2 .8 3.8.4c-1.8 2.4-3 3.1-3 3.1s.4-1.4-.8-3.5zm-6.3 3.9s2 .8 3.8.4c-1.8 2.4-3 3.1-3 3.1s.4-1.4-.8-3.5z"/><use xlink:href="#B" x="14.6" y="5.4"/><use xlink:href="#B" x="21.1" y="8.2"/><use xlink:href="#B" x="27.7" y="11"/><path d="M533.3 68s.7 2 2.1 3.2c-3 .2-4.3-.2-4.3-.2s1.3-.7 2.2-3z"/></g><defs ><path id="B" d="M498.3 53.8s.7 2 2.1 3.2c-3 .2-4.3-.2-4.3-.2s1.4-.7 2.2-3z"/><path id="C" d="M462.5 43.5s.9 1.9 2.5 2.9c-2.9.5-4.3.2-4.3.2s1.2-.7 1.8-3.1z"/><path id="D" d="M365.4 35.2s1.5 1.6 3.2 2c-2.6 1.4-4 1.5-4 1.5s1-1.1.8-3.5z"/><path id="E" d="M312.2 40.8s1.5 1.5 3.3 1.8c-2.5 1.5-3.9 1.8-3.9 1.8s.9-1.2.6-3.6z"/><path id="F" d="M258.1 51.6s1.9 1 3.7.8c-2 2.2-3.3 2.8-3.3 2.8s.6-1.4-.4-3.6z"/></defs></svg>