<svg xmlns="http://www.w3.org/2000/svg" xmlns:xlink="http://www.w3.org/1999/xlink" viewBox="0 0 624 359"><path d="M327.7 218.1c-.7 15.3 4.6 67.4 4 82.4 1.3 20.3-3.8 30.3-11.8 35.3-13.3 5.3-62.9 4.7-68 1.9-16-8.6-10.4-27.1-2.3-26.3 11.7 1.2 18.4.6 21.3-3.3 11.2-15-28.7-111.4-28.7-111.4s90.5-37.1 85.5 21.4zM549.1 89s22.4 29.6 20.4 74.5c-1.6 34.3 4.3 56.2 17 70.1 12.6 13.9 44.4 38.5 18.8 68.7-23.2 27.4-29.7 29.5-37.6 35-6.2 4.3-14.8 3.4-19.7 1.4-4.1-1.6-21.2-12-9.3-21.9 13.3-11.1 16.5-13.4 15.5-22.5-.5-4.6-39.5-46-59.6-66.9S521 92.6 549.1 89z" fill="#150f0c"/><path d="M277.5 24.1s64 16 131.5 0 148.5 57.1 150.5 88.1 0 79.4-55 140.4c-2.5 14.5-9.7 46.9-10.4 61.9 1.3 20.3-3.8 30.3-11.8 35.3-13.3 5.3-62.9 4.7-68 1.9-16-8.6-10.4-27.1-2.3-26.3 11.7 1.2 18.4-.3 21.3-4.3 6-8.2-5.8-87-5.8-87s-95.9-5.3-129.9-9.8-67.6-32.2-67.6-32.2l47.5-168z" fill="#231813"/><path d="M427.5 234.1s-5.8-51.6-4.8-62.6c-2.8 26-14.3 59.6-27.8 60.7 23.6 1.9 32.6 1.9 32.6 1.9z" fill="#150f0c"/><path d="M286 23.4c-35.5-38.3-82.3 6-82.3 6s-21.7 5.1-30.8 3c-6.2 8.3 19 51.6-68.3 98.2 7-3.3 58.1 32.7 74.3 48.5 1.1 22.3-2.3 41.3-5.6 51.5-5.8 18.1-18.1 59.8-24.6 72.3-6.8 13.1-19.3 15.7-33.7 16.3-8.1.3-12.4 20.4 3.6 29 5.1 2.8 47.7 3.4 61-1.9 14.3-2.8 24.8-11.5 28.3-30.2 4.6-15.2 43.2-88.8 60.7-113.2C323 126.7 301.8 40.6 286 23.4z" fill="#281b17"/><path d="M18.8 101.4s3.4 1.6 4.9 1.5c1 1.1 3 3.1 3.6 2.9.5-.1.7-1.6.9-2.9.9.8 1.7 1.5 2.1 1.4.5-.1.8-2 1-3.5 1 1.1 2.4 2.3 2.9 2.1.5-.1.8-1.8.9-3.2.9.8 1.7 1.5 2.1 1.4s.6-1.1.8-2.3c.8.8 1.7 1.5 2.1 1.4.3-.1.6-1 .8-2 .8.7 1.5 1.3 1.9 1.2.3-.1.6-1 .7-1.9 6.9-1.7 14.7-2.3 14.7-2.3-9.8-6.8-37.8-.2-39.4 6.2zm59.9 10.8L69.6 124c-.9-.3-1.7-.5-1.9-.2-.3.3-.1 1.2.1 2.2-.9-.3-1.8-.5-2.1-.3-.3.3-.1 1.3.2 2.3 0 0 0 .1-.1.1-1-.4-2-.6-2.2-.3-.3.3-.1 1.3.2 2.5-1.3-.5-2.8-1.1-3.2-.7s.1 2.1.5 3.4c-1.4-.6-3.1-1.2-3.5-.8-.3.3-.1 1.4.2 2.5-1.2-.5-2.6-.9-2.9-.6-.4.4.3 2.9.8 4.3l-.2.2c-1 .9-1.2 5.2-1.2 5.2 6.5 1.5 29.5-23.8 24.4-31.6z" fill="#c4bdb5"/><path d="M104.7 130.6c-7 3.3-2.9-111.2 5.6-111.4 9-4.5 22-7.5 36.8-6.3 9-7 15.7-14.2 28.7-3.4 7.3 7.5 4.5 18.4-2.7 22.9 8.9 2 35.2 73.4-68.4 98.2z" fill="#301d19"/><path d="M8.9 87.6s-7.1-12.2.4-13.8c7.9-1.7 9.1-1.4 9.1-1.4s-.3 7.7-1.5 9.4c-1.4 1.9-3.2 4-8 5.8z" fill="#141414"/><path d="M110.3 19.1c-8.5.3-25 4-45.3 14s-15.3 22-19.5 27-28.7 12.8-28.7 12.8-9 7.6-7.8 15.3c.8 4.5 2 10.5 9.8 13.3 28-12.5 44-6.8 58 1 3.6 11-3.1 25.3-22.4 41.3 0 3.5 8 5.2 8 5.2 17-2.5 35.3-15 42.3-18.2 69.8-54.7 28.6-102.9 5.6-111.7zM58.8 62s-.4-7.9 4.6-8.9 6-1 6-1-2.1 6-10.6 9.9z" fill="#382321"/><g fill="#aea79e"><use xlink:href="#B"/><use xlink:href="#C"/><path d="M251.5 323.3s-7.3.1-6.9 12.4c1.8-2.4 5.1-7.2 6.2-7.1 1.9-2.3.7-5.3.7-5.3zm286.6-2s-6.2 3-1 13.5c.6-2.8 1.5-8.3 2.5-8.5.7-2.9-1.5-5-1.5-5zm3.7 3.3s-7.3 3.5-1.2 15.8c.7-3.2 1.8-9.7 2.9-10 1-3.3-1.7-5.8-1.7-5.8zm6.6 3.6s-6.8 3.3-1.1 14.6c.7-3 1.6-9 2.7-9.3.9-3.1-1.6-5.3-1.6-5.3z"/><use xlink:href="#B" x="162.5" y="14"/><use xlink:href="#C" x="162.5" y="14"/><path d="M414 337.3s-7.3.1-6.9 12.4c1.8-2.4 5.1-7.2 6.2-7.1 1.9-2.3.7-5.3.7-5.3z"/><use xlink:href="#B" x="-134.1" y="9.4"/><use xlink:href="#C" x="-134.1" y="10.4"/><path d="M117.4 333.7s-6.3.1-5.9 12.4c1.8-2.4 4.1-7.2 5.2-7.1 1.9-2.3.7-5.3.7-5.3z"/></g><defs ><path id="B" d="M245.2 313s-6.7.1-6.4 11.4c1.7-2.2 4.7-6.7 5.7-6.5 1.8-2.1.7-4.9.7-4.9z"/><path id="C" d="M247.8 316s-7.9.1-7.5 13.4c2-2.5 5.5-7.8 6.7-7.6 2.1-2.5.8-5.8.8-5.8z"/></defs></svg>