<svg xmlns="http://www.w3.org/2000/svg" viewBox="0 0 445 300">
    <path d="M85.3 292s240.3 9 265.7-19.7 33.3-55 33.3-55l-184.7 18.3L85.3 292z" fill="#dad4e0"/>
    <path d="M347.2 186.5c9.3-1 92.5-17.2 93.2-11.5s-40.3 48.4-60 54c-23.3 6.7-112 41.8-213.3 38.7-69-2.2 170.7-80.2 180.1-81.2z" fill="#e3e2e7"/>
    <path d="M40 34.4S60.1-.6 90.4 4.9c35.7 6.5 39.5 34.3 40 55.8s2.3 52.5-33 90.8-29.3 78-20.3 86.8 24.5-9.8 39.3-29 72-80.8 120-101.7S349.4 97 381.7 125s30.4 26.3-.6 43.1-108.3 60-145.8 72.2c-37.5 12.3-105 45.3-125 48.8s-47.5 8.8-64.8-17.5-23-68.8-3-94.8l43-57.5s25.3-39 8-59.8C85.8 52.9 72.5 57 58 56c-13-.8-18-21.6-18-21.6z" fill="#f3f2f4"/>
    <path d="M44.6 37.6s-12.8 9.7-25.8 15.3S4.1 66.3 5.9 71.3c1.5 1.1 1.9-3 4.4-4.6S54.8 55.9 58.1 52c3.2-4-3.1-16.6-13.5-14.4z" fill="#9f2d2d"/>
    <path d="M33.6 45s-.1-9.6 10.1-12 15.7 1.1 24.2-4.8c2.2-3 5.4-6.2 8.1-4.1s2.1 3.5-.3 5-6.5.4-6.5.4-7.2 7.9-5.9 16.3-8.2 7.9-8.2 7.9-3.2-15.2-21.5-8.7z" fill="#2b2b2b"/>
</svg>