<svg xmlns="http://www.w3.org/2000/svg" viewBox="0 0 515 532">
    <path d="M461.7 300c-.8-6.5-2.2-23.3-7.7-36.6 0 0-8.8-24.5-33.5-37.9-44.9 9.5-47.6 46.6-47.6 46.6 1.8-39.7 30.4-49.7 39.8-50.8-26.7-30.5-41.3-90.9-26.5-103.7 0 0 3.7-4.8 23.1-2.3 15.3 2 25.2-4.8 28.4-14.8-.1 0-6 .3-8.6-5.3 0 0 2.5-3.6 4.7-5-6.8-2.4-18.9-6.3-25.3-6-2.5-5.3-6.6-14.6-15-22.5-4.4-2.9-16-9.6-30.2-12.1-10.9-1.9-31.3 5-31.3 5s11.3-6 28.8-6.7c10.8-.4 26.5 6.8 32.5 11 3-12 12.9-24.9 16.1-33.6C394.9 32.7 360 46 360 46s-11-27.3-17-38.3c-21 9-33.9 66.7-33.9 66.7-2.2 3.3-14.6 28.4-19.3 33.3 3.7-1.5 5.4-2.5 6.3-3-1.8 4.1-8.3 14.1-13.9 19.6 4.5-1 9.1-1.7 9.1-1.7s-5.8 16.4-13.2 19c5.6 0 9-1.9 10.4-2.9-.7 3.6-8.6 16.1-11.1 18.5 5.3-.6 7.4-2.5 7.4-2.5s-5 12.1-13.8 22.3c5.9-.8 9.7-3.7 11.2-5.1-.2.9-.3 1.6-.5 2.3-6.2 29.1 23.6 110.6 23.6 110.6l30 17-10.1-52.7 25.2 105L461.6 320c.1.1.9-13.5.1-20zm-64-216.3c-12.7 4-20.7-2-23.6-12.5 16.5-.4 23.6 12.5 23.6 12.5zM341.5 27c-.1-.3-.3-.6-.4-1-.1 0 .1.3.4 1 6.5 14.5-3.2 21.1-8.1 23.6 11.8-10.9 9.3-20.6 8.1-23.6z" fill="#823c12"/>
    <path d="M462 302.1s-26 66.7-132-9.4c-42-30.2-80.6-51.2-116.2-62.9 0 0-48.7-21.4-95.7-26.3 27 5.8 34 15.1 34 15.1s-45.3-17.3-98.5-6.1c28 2.8 56.5 11.1 56.5 11.1s-66.3-3.2-82 7.4c42-5.7 52.7 3.5 52.7 3.5h0s-42 2.1-66.7 20.2c22.4-4.3 36.5 0 36.5 0s-21.6 5.7-45.2 31c17.3-6.7 23.8-6.1 25.9-5.5-20.3 39-11.4 90.3 33.5 127.1 62.8 51.5 48.2 87.5 27.2 118.5 50 6 60.6-40.4 91-57s49 7 49 7-.1-28.7 15-54.7c7.6-13 19.1-21.7 36.6-25 0 0-.7 1.8-1.1 5.7 4.3-4.8 17.2-7.2 17.2-7.2h.1l-7.7 10.7c4.5-5.2 22.2-10.1 22.2-10.1s-7.5 6-15.4 16.5c5.1-5 30.9-14.3 31.2-14.4-.1.1-5.8 5.4-17.5 15.3 6.1-4.2 24.2-10.5 33.1-12.2-2.6 3.6-16.6 12.9-16.6 12.9s13.8-5 31.7-9.2c-5.6 6.3-25.4 15.7-25.4 15.7s26.3-8.5 39.7-12.2c-3.3 4.5-26.4 15.7-26.4 15.7l43.7-11.9s-4.5 5.2-18.2 13.7c6.2-4 32.2-11.1 32.2-11.1s-6.9 4.3-18.4 14.1c4.6-3.8 34.2-11.9 34.2-11.9s-4.7 5.1-16 11.4c9.2-4.7 44.3-10.4 44.3-10.4 26.2-1.5 47-10.9 56.1-35 18.4-49.7-44.6-80.1-44.6-80.1z" fill="#9a4716"/>
    <path d="M189.3 244.6c7 10.1 6.7 14 6.7 14s-20.2-22.1-35-25.6c6.3 6.1 15 16.1 15 16.1s-27.7-21.4-39.7-21.4c13.3 7.3 17.5 13.8 17.5 13.8s-29.6-15.2-42.5-13.8c13.7 4 23.7 11.4 23.7 11.4s-32-4.4-38.7-1.4c10.8 1.2 15.3 3.3 16.6 4.1 0 0-30.1-1.4-36.9 2.8 8.3 1.4 19.1 4.1 19.1 4.1s-20.8.6-31.1 6c12.3 0 19 1.4 19 1.4s-26.7 5-34.3 14l22.8-3.9s-31.6 14.5-33.1 19.6l19.9-4.3s-23.6 11.4-26.6 23.3c13.7-7.7 17.8-8.9 17.8-8.9S30 314.7 30.3 324.7c7-6.7 12.6-11.1 12.6-11.1s-11.6 25.4-9.6 37.9l9.2-15.3s-.9 11.4-.6 23.1c3-6.3 3.8-7.5 3.8-7.5C49 365 53.6 374.1 61 382c-8-39 6-117 81-99s229.5 84 268 45.8c-120.5 6.7-213-78.1-220.7-84.2z" fill="#b0591e"/>
</svg>