<svg viewBox="0 0 284 127" stroke-dasharray="1920" stroke-dashoffset="1920">
    <path d="M283 56.5c-7.8-5.9-15.6-10.8-21.5-14.3l16.9 9.1c2.8.9 4.2-.5 3.7-1.2-16.8-10.3-31.8-16.5-33.3-17.1-10.9-4.9-27-12.2-38.6-12.2-10.9 0-41 28-41 28-4.2 3.6-11.5.9-16.2-.8-.3-.1-.5-.1-.7-.1 0-11.3-3.8-12.9-9.3-18.6-2.4-2.5.8-8.2 2.5-10.3 1.8-2.2 3.9-4 7.9-7.3h0c5-3.3 15.3-6.2 16.7-6.4 1.2-.2 2.4-.3 2.8.3.3.5.8 0 .7-.4-.3-1.3-.6-2.3-2.2-3.1-1.9-1-4.5.5-8.4 1.6-1.8.5-3.7.6-5.2.6h-1c-1.4-.1-2.3-.3-2.3-.3h0c-1.2-.2-1.8-.6-1.8-.6s-12.3-5.8-20.1 6.9 2.1 26.2 3.5 28c1.3 1.6-3.9 9-4.3 9.7-.2 0-.4 0-.7.1-4.7 1.7-12 4.4-16.2.8 0 0-30.1-28-41-28-11.6 0-27.7 7.2-38.6 12.2-1.6.4-16.6 6.5-33.4 16.9-.5.7.9 2.2 3.7 1.2 1.4-.4 9.1-4.8 16.9-9.1-6 3.5-13.7 8.4-21.5 14.3-.4.8 2.4 1.3 5.2.2 1.5-.6 9.4-6.1 17.2-11.3-6 4.2-13.5 9.8-19.9 15.7-.3.8 2.4 1.7 5.8-.3 1.5-.9 9.8-7.8 17.5-14-5.1 4.4-11.6 10.2-18.6 17-.2.9 3.9 1.6 7.1-.7.9-.7 5.2-4.3 10.2-8.7l-6.7 6.8c-1.7 1.7 3.3 3.2 6 .3 1.6-1.7 3.9-4 6.4-6.4a291.28 291.28 0 0 0-6.6 7.5c-1.6 1.8 3.5 3.1 6.1 0 2.1-2.5 5.3-6 8.7-9.7L31 63.2c-1.6 1.8 4.5 3.4 6.7.2l5.8-7.9-5.2 7.9c-1.4 2 4 2.7 6-.8l4.3-7.2-4.3 7.6c-1.3 2.1 4.4 2.8 6.1-.7 1.2-2.4 2.8-5.6 4.8-9.1l-4.5 9.5c-.6 1.6 3.3 3.1 4.8 0 1.6-3.2 4-8.2 6.4-13.3l-6.3 14c-.5 1.6 3.7 3.1 5.2-.1 1.1-2.3 2.5-5.5 4-9.1-1.3 3.1-2.6 6.6-4 10.3-.4 1.6 3.4 2.9 4.8-.3.3-.9.7-1.8 1.2-2.9-.4 1.3-.9 2.6-1.4 4-.4 1.4 2.6 2.5 4.2.6l-.3.9c-.4 1.6 2.8 2.4 4.2-.3-.2.6-.4 1.1-.6 1.7-.4 1.6 2.5 2.4 3.8-.9.4-1 .8-2.1 1.3-3.2l-2.1 5.5c-.2 1.6 2.2 2.3 3.6-.3-.2.6-.4 1.2-.7 1.9-.2.9 2.1 2.1 3.4 0-.2.4-.4.9-.6 1.4-.6 1.4 1.5 2.9 3 1.1-.1.2-.2.4-.3.7-.7 1.6 2.1 3.3 3.5.1 0-.1.1-.1.1-.2 0 .1-.1.3-.1.4-.7 2.2 1.6 4.9 2.3 3.1.1-.4.3-.9.5-1.3-.7 2.2 1.6 4.9 2.3 3 .3-.9.7-1.9 1.1-3-.1.6-.3 1.3-.4 1.9-.5 3.1 2.5 5.7 3 3.9.6-2.4 1.5-5.4 2.3-8.5a249.88 249.88 0 0 0-1.5 6.8c-.5 3.1 2.5 5.7 3.1 3.8l1-3.9c-.1.9-.3 1.8-.4 2.8-.3 3.1 2.9 5.5 3.3 3.6.2-1.2.5-2.5.8-4 0 5.2 2.5 5.4 3.8.7l.6-3.8c0 .5-.1 1-.1 1.5-.2 2.4 2.7 3.1 3.1 1 .1-.4.1-.9.2-1.3.6 2.1 3 3.2 3.3 1.2l.3-1.8c0 .4-.1.9-.1 1.3.3 2.4 3.7.7 4-1.4.1-.6.1-1.1.2-1.6 0 .6-.1 1.3-.1 1.9.4 2.4 3.7.6 4-1.6l.3-3.9c0 .8-.1 1.6-.1 2.5.3 1.6 1.9 1.3 3 .3-.5 8.8-.1 17.8 2.3 24h.1c-3.5 3.6-10.7 11.3-10.9 12.4-.2 1.5.4 2.7.4 2.7l3.1-3.6c-1.4 1.8-2.3 3.3-2.3 3.6a5.29 5.29 0 0 0 .7 2.6l4.4-5.8c-1.9 2.7-3.3 4.9-3.3 5.4 0 1.5.9 2.4 1.3 1.9l4.9-6.9c-1.9 3.4-3.4 6.3-3.3 6.8.2 1.5 1.2 2.3 1.5 1.8 1-1.6 2.2-3.8 3.5-6.1-1.2 2.8-1.9 4.9-1.8 5.4.3 1.5 1.4 2.1 1.6 1.6.7-1.5 1.6-3.6 2.6-5.8-.7 2.8-1.2 4.9-1.1 5.3.5 1.4 1.6 1.9 1.8 1.4.5-1.6 1.2-3.7 1.8-6-.4 2.8-.6 4.9-.4 5.3.7 1.3 1.9 1.8 2 1.2.3-1.2.5-2.7.8-4.2-.1 2.2 0 3.7.2 4 .8 1.3 2.5 1.1 2.5.6.1-1 .2-2.2.3-3.6l.3 3c.1 1.1 1.7 1.4 2.6.1.2-.3.3-1.7.3-3.8l.3 4.2c0 .6 1.7.7 2.5-.6.2-.3.2-1.9.2-4l.8 4.2c.1.6 1.3.1 2-1.2.2-.4 0-2.5-.4-5.3.6 2.2 1.3 4.3 1.8 6 .2.5 1.3 0 1.8-1.4.1-.4-.3-2.5-1-5.2.9 2.2 1.8 4.2 2.5 5.7.3.5 1.3-.1 1.6-1.6.1-.4-.7-2.7-1.9-5.5 1.3 2.4 2.6 4.6 3.6 6.3.3.5 1.3-.3 1.5-1.8.1-.5-1.4-3.4-3.3-6.8 1.8 2.7 3.6 5.2 4.9 6.9.3.4 1.2-.4 1.3-1.9 0-.4-1.3-2.5-3-5.1l4.2 5.5s.7-1.1.7-2.6c0-.6-2-3.3-4.4-6.4l5.5 6.3s.6-1.2.4-2.7c-.1-1.1-7.4-8.8-10.9-12.4 2.4-6.3 2.8-15.3 2.3-24.2 1 1.2 2.9 1.7 3.2 0 0-.9-.1-1.7-.1-2.5l.3 3.9c.2 2.2 3.5 4 4 1.6 0-.7-.1-1.3-.1-1.9.1.5.1 1.1.2 1.6.3 2.2 3.7 3.9 4 1.4 0-.4-.1-.9-.1-1.3l.3 1.8c.3 2 2.7.9 3.3-1.2.1.4.1.9.2 1.3.4 2.2 3.3 1.5 3.1-1 0-.5-.1-1-.1-1.5l.6 3.8c1.3 4.6 3.8 4.4 3.8-.6.3 1.3.5 2.6.7 3.8.4 1.9 3.6-.5 3.3-3.6-.1-1-.3-1.9-.4-2.8.4 1.4.7 2.7 1 3.9.5 1.9 3.6-.7 3.1-3.8-.6-2.4-1.1-4.7-1.5-6.8.9 3.1 1.7 6.1 2.3 8.5.6 1.9 3.5-.8 3-3.9-.2-.7-.4-1.5-.5-2.2.4 1.2.9 2.3 1.2 3.3.7 1.8 3-.9 2.3-3 .1.4.3.9.5 1.3.7 1.8 3-.9 2.3-3.1v-.1c1.5 3.1 4.2 1.3 3.5-.2-.1-.3-.2-.5-.3-.8 1.5 2 3.6.4 3-1-.2-.5-.4-.9-.6-1.4 1.4 2.2 3.7.9 3.4 0-.2-.6-.4-1.1-.6-1.7 1.4 2.3 3.7 1.6 3.5.1a173.68 173.68 0 0 0-2.7-7l1.9 4.7c1.3 3.3 4.3 2.5 3.8.9-.2-.6-.4-1.1-.6-1.7 1.4 2.8 4.6 1.9 4.2.3l-.3-.9c1.6 1.9 4.6.8 4.2-.6-.5-1.4-1-2.7-1.4-4l1.2 2.9c1.3 3.3 5.2 2 4.8.3l-3.7-9.4a280.88 280.88 0 0 0 3.7 8.1c1.5 3.2 5.7 1.8 5.2.1l-6.3-14 6.4 13.3c1.5 3.1 5.4 1.6 4.8 0l-4.8-10.1 5.1 9.7c1.7 3.6 7.4 2.8 6.1.7l-4.3-7.6c1.7 2.7 3.2 5.2 4.3 7.2 2 3.4 7.4 2.8 6 .8l-4.9-7.4 5.4 7.4c2.3 3.3 8.3 1.6 6.7-.2l-8.4-10.4 8.7 9.7c2.6 3 7.7 1.8 6.1 0-2.4-2.8-4.7-5.4-6.9-7.8 2.7 2.5 5.1 4.9 6.7 6.7 2.7 2.9 7.7 1.4 6-.3-2.2-2.4-4.4-4.6-6.5-6.6 4.9 4.3 9.1 7.9 10 8.5 3.2 2.4 7.3 1.6 7.1.7-7-6.8-13.5-12.6-18.6-17l17.5 14c3.4 2 6.1 1.1 5.8.3-6.7-6.1-14.5-11.8-20.6-16.2l17.9 11.8c2.6 1.4 5.5.9 5.1.1zM152.5 6.1c-1.2 1.5-2.7.8-3.5-.2 2-1.8 3.5.2 3.5.2z"/>
</svg>