<svg viewBox="0 0 284 167" stroke-dasharray="910" stroke-dashoffset="910">
    <path d="M230.8 50.2c-1-1-4-1-4-3s-2-2-2-3c0-.7-1.1-1.5-1.3-2.6l-.2.1c-.7.7-2-.4-2.8.1-.4.2-.5.7-.9.9s-.9.1-1.4-.1c-1.1-.5-2.2-.9-3.4-1-.8 0-1.7.1-2.1.8-.5.8-.2 1.9-.9 2.6-.5.5-1.3.6-1.6 1.2-.1.3 0 .7-.2 1-.3.5-1.1.4-1.6.2l-7.2-2.4c-1-.4-2.2-.9-3.1-.2-.7.5-.9 1.6-1.7 2-.6.3-1.4 0-2 .3-.5.2-.8.7-1.3.9-1.3.6-2.9-1.2-4-.4-.8.5-.6 1.8-1.2 2.6-.5.7-1.5.8-2.4.6-.8-.2-1.6-.7-2.4-1h.1l-2.2-.4c-.8-.1-1.8-.3-2.5.2-.8.5-1 1.7-1.7 2.2-.5.4-1.3.4-2 .4h-1.6c-.4 0-.8 0-1.1-.2-.5-.3-.6-1-.6-1.6 0-.7 0-1.5.4-2.1.4-.5 1-.8 1.1-1.3s-.1-1-.2-1.5c-.1-.7.1-1.5.6-2l.3-.3c.3-.5-.1-1.2-.1-1.8-.1-.7.3-1.4.8-1.8l.1-.2c.4-.1.7-.3 1-.6l-2.5-1.5c-.1-.1-.3-.2-.3-.3v-.3c.4-1.1 1.7-1.6 2.8-2.1s2.3-1.5 2-2.6c-.3-1.2-1.8-1.5-2.7-2.3-.4-.4-.6-.9-1-1.3s-.9-.7-1.4-.6c-.2.1-.4.2-.6.2h-.6l-5.5-.8c-.5-.1-1-.2-1.3-.5-.5-.7-.1-1.7-.5-2.5-.2-.3-.4-.5-.8-.6-.7-.3-1.5-.3-2.1-.8-.7-.6-.7-1.7-1-2.6-.2-.7-.6-1.2-.8-1.9-.4-1.2-.1-2.4-.1-3.6s-.4-2.6-1.5-3.1c-.4-.2-.8-.2-1.2-.4-.3-.2-.5-.6-.7-.9-.6-1.1-1.3-2.4-1.2-3.7 0-1 .4-2.2-.4-2.8-.3-.2-.7-.3-.9-.6-.3-.6.4-1.5-.1-1.9-.9 1.1-2.3 1.8-3.7 1.8.3.7.5 1.6.1 2.1-.2.2-.4.3-.6.5-.6.6-.7 1.5-.3 2.2v.3c-.3 1.2 1 2.4.6 3.5-.1.2-.2.3-.2.5-.3.7.2 1.6-.2 2.3-.1.3-.4.5-.6.7-.3.4-.6.9-.7 1.4-.1.3-.1.7-.3.9-.1.1-.3.2-.5.2-1 .2-2 .2-3 .3s-2.1.3-2.8 1.1l-.4.4c-.1.1-.3.1-.5.1-1.2.1-2.5-.4-3.4-1.1l-1.3-1.2c-1.2-1-3.1-1.4-3.8-2.8a1.38 1.38 0 0 0-.3-.4c-.1-.1-.3-.1-.4-.1-.8 0-1.6 0-2.2.5-.1.1-.3.3-.5.4-.4.2-.9-.1-1.2-.3l-1-.6c-.5-.3-1.2-.7-1.7-.4l-.2.1c-.7 0-1.2.8-1.3 1.6s.1 1.5.1 2.2-.3 1.6-1.1 1.8c-.3.1-.6.1-.7.3-.1.1-.1.3 0 .4.1.6.1 1.3-.1 1.9-.1.6-.5 1.2-.8 1.7-.1.3-.3.5-.6.7-.4.2-.8 0-1.3 0-.4-.1-1 0-1.2.3-.2.4.1.8-.1 1.2-.2.6-1 .5-1.6.6-.4.1-.7.4-1.1.6-.5.2-1.1.2-1.7.1l-8-.7c-.3 0-.5-.1-.8-.2-.2-.1-.3-.4-.5-.5-.3-.2-.7 0-1.1 0-1.2.2-2.2-.6-3.2-1.3s-2.2-1.3-3.3-.7c-.3.2-.6.4-.9.3-.2 0-.4-.2-.6-.3-.4-.1-.8.3-1.1.7s-.8.8-1.2.5l-.2.2c-.8.1-1.5.7-2.2 1.1-.8.3-1.9.2-2.1-.6l-2.8 2.8c-.7.7-1.4 1.5-1 2.4.1.3.4.7.2 1a.55.55 0 0 1-.5.3L80 33.5c.9.7.8 2.1.1 3s-1.8 1.3-2.9 1.6c-1.2.3-2.7.5-3.7-.3-.5-.4-.9-1-1.4-1.3s-1.5-.2-1.6.5c0 .2.1.5-.1.7-.1.2-.3.2-.6.2l-2.1.3c.4.7-.3 1.5-1.1 1.7s-1.5-.1-2.3-.4c-.5-.2-1-.3-1.6-.4-1.1-.2-2.2-.3-3.2-.3.3-1.2-.4-2.5-1.5-3-.8-.3-2-.3-2.4-1.1-.4-.6 0-1.5-.4-2.1-.5-1.1-2.1-.9-3.3-.9-.2 0-.5 0-.7-.2-.9-.5-.1-2-.5-3.1-.5-1.5-3-1-3.9-2.3-.2-.3-.2-.6-.5-.8-.7-.8-2.1.2-3.1-.1-.8-.2-1.6-1.3-2.3-.9-.3.2-.5.5-.8.7-.2.2-.5.2-.8.3l-7.6 1.2-.3.1h0c.1.4.1.9-.4 1.4l-1 1s0 1-2 2c-1.8.9-2 0-2 1v2s0 2 1 2-1 3 0 4 2 3 2 3 0 1-1 2 1 2-1 2-3 1-4 1-3 1-5 0-3-2-3-2-1-1-1-2-1-2-2-2 0-2-2-2-5-1-5 0-2 2-2 2-2 1-2 2 1 1 1 1v2s0 3 1 3 0 2 0 3 0 3 1 3 2 1 2 1-1 1 0 3 2 3 3 4 1 2 1 3 1 5 0 6 2 4 2 6-1 2-1 2-2 0-2 1-1 3-1 4-2 2-2 2 0 1-1 2-1 3 0 4 5 1 6 2-1 1-1 2 1 1 2 2 4 1 4 2v2c0 2 0 3 1 3s2 0 2 1 2 1 2 2 0 1 1 2 2 3 2 3v1l1 2 1 2s1 1 1 2 0 2 1 3 3 1 3 2 3 0 3 0 4-1 4 0 2 0 3-1 2 0 2 0 1 1 2 0 3 2 3 2 0 1 1 2 2 3 2 3-1 3 0 3-1 3-1 4-1 2-1 3 0 3 1 4-1 4 1 4 5 0 6 1l2 2c1 1 3 2 3 2s1 0 1 1-1 2 0 3 1 2 2 3 9-1 11 0 4 1 4 1 4 1 5 2 3-1 5-1 2 3 5 0 4-5 4-5l2-2s2-2 1-3-1-2-1-3-1-3-1-4-2-4-1-5 2-4 2-4 1-1 3-1 3-2 3-2h3c1 0 3 1 4 2s2 1 3 2 4 2 5 1 4-2 4-2 0-1 2-1 3-2 5-2 4-1 5-1 3-2 3-2 2-1 2-3 0-2-1-3c-.7-.7-.9-2-1-3-.1-.3-.1-.5-.1-.8h.1v-.3c0-1 3-1 3-1s2-2 4-1 4 0 5 1 1 2 2 3 2 1 3 2 2 2 2 3-1 3 1 4 2 2 2 3 0 4 2 5 1 2 3 2 5 1 5 1 2 0 3 1 2 0 3 1 0 1 1 3 0 3 2 3 4-1 5 0l3 3s2 0 3 1 3 2 5 2h4c1 0 1 1 2 1h4c1 0 1-2 2-3s0-2 1-3 3-2 6-2c2.2 0 3-2 3-3s-1-3-2-4-5-1-5-2-2-3 1-6 3-6 3-6-1-2-2-2-2.6-1-4-1c-1 0-2 0-3-1s-2-3-1-4 2-3 3-4 3-2 3-2l3-2s3-2 3-3-1-6 0-7 0-4 0-4 1-1 0-3-2-4-3-4-5-1-6-3-2-2-2-4 1-4 4-5 2-2 4-3 4-3 6-2 4 0 4-1 1-2 1-3-2-3-3-4-3-4-2-6 1-4 3-4 1-1 2-2 2-1 3-3 1.8-2.7.8-3.7zm30 53c-2 1-3 1-3 3v5c0 1 0 3-2 4s-3 1-4 2-1 3-3 3-6 0-6 1-1 3 0 4 1 2 1 3 0 3-1 4 0 2 0 3-1 5 0 6 1 0 3 1 3 4 4 4 2 2 3 3 1 3 2 3 3-1 3 2v3c0 1 3 4 2 5s1 3 2 3 3-2 4-1 4 2 5 1 1-5 2-5 2-2 2-4-2-5 0-5 2-4 4-4 4-2 4-3-1-2-1-4 2-4 1-5 0-6-3-6-6-1-6-2-3-2-3-4 0-4 1-5 3-3 2-4 0-3-1-4-3-3-4-2-3 0-3-1-.4-2.7-1-4c-1-2-2-1-4 0z"/>
</svg>