<svg viewBox="0 0 2983 251" class="wave">
    <path class="shape" d="M-0.2,8.1c0,0,136.8,2,167.9,4.5s75.4,2,104.1,0c28.8-2,101.8-2.6,129,1.7s35.7,9.8,64.5,8.3C494,21,522.8,29,532.9,33
        s24.9,17,54.4,23s59.8,17,75.4,19.5c15.5,2.5,77.7,19.5,106.5,22s120.4,5.5,162.4,14s56.7-4,101.8,5c45.1,9,111.1,22.5,152.3,21.5
        c41.2-1,76.9-2.9,120.4,0.1c43.5,2.9,83.1,12.4,97.1,11.9s65.3-7.5,88.6-6s123.6-3,152.3-1.5s104.1,1.5,139.1,3.5s39.6,9,58.3,13
        s44.3,10.5,55.2,14c10.9,3.5,23.3,5,41.2,9c17.9,4,40.4,11,62.9,11s36.5,6,94.8,4.5c58.3-1.5,363.7-22.5,447.6-12.5
        s181.1,35.5,263.4,47s108.8-8.5,177.2-4.5v25H-0.2V8.1z"/>
    <path class="line" d="M-0.2,3.1c0,0,136.8,2,167.9,4.5s75.4,2,104.1,0c28.8-2,101.8-2.6,129,1.7s35.7,9.8,64.5,8.3
        C494,16,522.8,24,532.9,28s24.9,17,54.4,23s59.8,17,75.4,19.5c15.5,2.5,77.7,19.5,106.5,22s120.4,5.5,162.4,14s56.7-4,101.8,5
        c45.1,9,111.1,22.5,152.3,21.5c41.2-1,76.9-2.9,120.4,0.1c43.5,2.9,83.1,12.4,97.1,11.9s65.3-7.5,88.6-6s123.6-3,152.3-1.5
        s104.1,1.5,139.1,3.5s39.6,9,58.3,13s44.3,10.5,55.2,14c10.9,3.5,23.3,5,41.2,9c17.9,4,40.4,11,62.9,11s36.5,6,94.8,4.5
        c58.3-1.5,363.7-22.5,447.6-12.5s181.1,35.5,263.4,47s108.8-8.5,177.2-4.5"/>
</svg>