<?xml version="1.0" standalone="no"?>
<!DOCTYPE svg PUBLIC "-//W3C//DTD SVG 20010904//EN"
 "http://www.w3.org/TR/2001/REC-SVG-20010904/DTD/svg10.dtd">
<svg version="1.0" xmlns="http://www.w3.org/2000/svg"
 width="1514.000000pt" height="1514.000000pt" viewBox="0 0 1514.000000 1514.000000"
 preserveAspectRatio="xMidYMid meet">
<metadata>
Created by potrace 1.14, written by Peter Selinger 2001-2017
</metadata>
<g transform="translate(0.000000,1514.000000) scale(0.100000,-0.100000)"
fill="#000000" stroke="none">
<path d="M9035 10893 c-63 -12 -208 -55 -305 -91 -68 -24 -180 -40 -273 -38
-42 0 -77 -3 -77 -7 0 -5 -5 -5 -11 -1 -6 3 -26 8 -45 10 -80 9 -102 13 -154
29 -30 9 -59 20 -65 25 -12 9 -34 14 -166 43 -59 12 -245 15 -289 4 -8 -2 -33
-7 -55 -12 -72 -15 -235 -89 -235 -107 0 -5 -6 -8 -12 -8 -35 0 -195 -164
-260 -266 -126 -198 -177 -378 -173 -609 1 -77 5 -156 9 -175 16 -86 50 -217
63 -242 7 -16 11 -28 9 -28 -8 0 21 -65 91 -207 36 -73 69 -133 74 -133 5 0 9
-6 9 -13 0 -7 9 -23 20 -35 11 -12 20 -24 20 -28 0 -3 12 -20 26 -37 23 -28
26 -38 21 -84 -7 -67 -58 -176 -154 -329 -80 -128 -80 -128 -193 -158 -8 -2
-56 -18 -107 -35 -50 -17 -103 -33 -117 -36 -41 -8 -85 -18 -138 -30 -33 -8
-208 -8 -238 0 -14 3 -36 8 -50 11 -14 3 -47 18 -73 34 -27 17 -50 30 -52 30
-1 0 -25 21 -51 46 -27 25 -73 67 -102 92 -30 26 -72 64 -94 85 -22 20 -41 37
-43 37 -2 0 -19 14 -37 31 -18 17 -100 87 -183 156 -82 69 -172 144 -198 166
-27 22 -69 57 -95 76 -26 20 -60 48 -77 63 -16 16 -33 28 -36 28 -3 0 -17 10
-30 21 -13 12 -49 40 -79 62 -30 22 -57 43 -60 46 -12 15 -221 161 -229 161
-5 0 -11 4 -13 8 -4 12 -106 82 -118 82 -5 0 -10 4 -10 9 0 5 -9 13 -20 16
-11 3 -26 12 -32 18 -34 32 -358 213 -358 199 0 -4 -4 -2 -8 4 -14 21 -244
100 -261 90 -5 -4 -12 -3 -14 1 -8 13 -164 7 -312 -12 -37 -5 -51 -7 -115 -21
-14 -2 -38 -7 -55 -9 -36 -6 -49 -9 -143 -34 -40 -10 -76 -20 -80 -20 -4 -1
-25 -7 -47 -13 -22 -6 -46 -12 -53 -14 -23 -4 -402 -135 -440 -151 -20 -9 -40
-18 -44 -19 -5 -1 -9 -2 -10 -4 -2 -1 -10 -3 -18 -5 -8 -2 -87 -34 -175 -70
-88 -37 -178 -74 -200 -83 -22 -9 -41 -20 -43 -24 -2 -5 -9 -8 -17 -8 -14 0
-93 -34 -303 -131 -34 -16 -73 -31 -87 -35 -14 -3 -28 -10 -31 -15 -3 -5 -10
-7 -15 -4 -5 4 -9 2 -9 -3 0 -6 -20 -16 -45 -23 -25 -7 -45 -17 -45 -21 0 -4
-3 -7 -7 -6 -9 1 -29 -7 -118 -47 -33 -15 -85 -38 -115 -52 -159 -72 -665
-328 -835 -423 -33 -18 -80 -44 -105 -58 -25 -14 -131 -76 -235 -138 -209
-124 -222 -138 -162 -175 25 -16 45 -19 94 -17 62 4 150 42 353 154 89 48 204
111 270 147 30 16 61 34 68 40 7 5 16 7 19 3 4 -4 1 -11 -7 -16 -117 -66 -364
-230 -590 -389 -85 -60 -164 -117 -175 -125 -11 -9 -39 -30 -63 -47 -62 -45
-56 -68 19 -74 22 -1 43 -5 46 -8 3 -4 14 -2 25 4 10 5 22 7 27 5 5 -3 27 1
50 9 23 8 41 12 41 10 0 -3 23 9 50 25 28 17 55 30 60 30 6 0 10 5 10 10 0 6
6 10 14 10 7 0 20 7 27 16 7 9 22 20 34 25 21 9 57 31 65 39 3 3 59 41 125 85
66 44 121 83 123 87 2 5 8 8 13 8 4 0 50 28 101 63 103 71 136 89 98 57 -62
-53 -70 -60 -70 -54 0 3 -15 -7 -33 -22 -19 -16 -96 -76 -171 -133 -76 -58
-143 -109 -150 -115 -6 -6 -33 -29 -61 -51 -60 -48 -103 -84 -126 -106 -9 -9
-24 -21 -32 -25 -8 -5 -43 -35 -78 -66 -35 -32 -78 -70 -96 -86 -35 -31 -33
-42 12 -60 67 -26 203 8 300 76 44 31 282 218 295 232 3 3 25 21 50 40 25 19
47 37 50 40 3 3 34 29 70 58 36 28 72 58 80 65 8 8 49 40 90 73 80 63 114 91
136 112 8 7 14 9 14 3 0 -5 -6 -14 -14 -18 -7 -4 -38 -30 -68 -58 -30 -27 -80
-72 -113 -100 -32 -27 -75 -66 -95 -85 -21 -19 -58 -53 -82 -75 -316 -288
-498 -463 -498 -481 0 -19 85 -37 147 -32 119 11 211 58 348 179 17 14 98 84
180 154 83 70 164 139 180 154 26 22 -47 -55 -249 -262 -31 -31 -56 -66 -56
-76 0 -57 103 -84 218 -57 47 11 101 54 241 196 79 80 139 136 133 125 -6 -11
-28 -38 -49 -61 -21 -22 -57 -63 -80 -90 -23 -27 -55 -64 -72 -82 -88 -94 -97
-127 -43 -152 15 -7 33 -15 41 -19 25 -12 138 9 184 34 42 24 70 51 151 145
116 136 315 348 300 320 -4 -8 -22 -31 -40 -50 -27 -30 -177 -214 -247 -303
-12 -16 -30 -38 -40 -50 -38 -45 -47 -72 -32 -95 38 -53 192 -65 280 -21 51
26 63 38 145 153 91 129 122 168 127 163 2 -3 -21 -42 -51 -87 -31 -45 -56
-83 -56 -86 0 -2 -13 -23 -30 -46 -35 -48 -36 -58 -12 -87 25 -31 110 -35 179
-8 71 27 113 70 184 193 34 57 63 104 65 104 5 0 -70 -140 -103 -192 -26 -42
-28 -56 -10 -79 33 -43 146 -46 224 -6 46 24 111 99 118 137 1 7 92 185 127
250 50 92 53 81 5 -16 -26 -51 -43 -94 -40 -98 4 -3 1 -6 -5 -6 -7 0 -12 -4
-12 -9 0 -5 -18 -48 -41 -96 -48 -103 -47 -134 6 -159 58 -28 119 -21 168 18
18 14 54 76 100 171 116 242 151 314 154 311 3 -2 -12 -37 -31 -77 -62 -130
-158 -353 -166 -387 -7 -30 -5 -35 26 -59 45 -33 122 -39 174 -12 41 22 56 45
127 198 29 62 55 116 59 120 9 8 -6 -38 -22 -70 -7 -15 -10 -29 -7 -33 4 -3 2
-6 -4 -6 -6 0 -15 -17 -21 -37 -6 -21 -20 -63 -31 -93 -33 -86 -33 -96 0 -125
65 -54 166 -31 215 50 27 45 31 41 10 -8 -18 -44 6 -96 48 -103 6 -1 26 -4 44
-7 22 -4 46 2 76 17 l44 22 -10 -28 c-8 -22 -6 -34 6 -53 9 -14 20 -25 24 -26
4 0 20 -2 36 -4 36 -5 92 18 117 47 21 24 24 13 8 -28 -15 -40 -4 -70 31 -84
44 -18 107 11 138 65 14 25 16 1 2 -26 -6 -11 -13 -35 -15 -54 -11 -81 107
-98 159 -23 20 28 21 3 2 -31 -18 -33 -9 -59 26 -77 38 -20 90 -11 118 18 24
26 25 22 5 -26 -17 -41 -12 -77 15 -101 24 -21 73 -22 104 -2 24 16 24 16 17
-11 -5 -15 -5 -36 -1 -48 9 -23 51 -54 75 -54 28 0 74 30 89 58 l15 27 1 -43
c0 -70 56 -158 96 -150 9 1 25 19 35 38 11 19 19 30 20 25 1 -6 2 -22 3 -36 2
-36 36 -95 62 -110 32 -17 53 -5 70 38 8 21 18 47 23 57 4 12 7 -8 7 -51 0
-77 16 -120 61 -168 32 -34 73 -44 93 -21 7 9 10 16 7 16 -3 0 1 16 9 35 8 19
14 37 13 40 -3 15 26 105 34 105 4 0 6 -8 3 -17 -13 -43 -21 -101 -20 -133 3
-40 54 -150 70 -150 6 0 16 -6 22 -13 6 -7 21 -13 34 -14 26 -3 35 14 61 107
l15 55 -3 -74 c-3 -63 0 -82 20 -120 41 -80 113 -127 143 -94 7 7 11 13 8 13
-2 0 2 24 9 53 8 28 17 72 20 97 7 51 14 64 16 32 4 -66 17 -120 36 -149 17
-25 58 -30 83 -10 40 31 83 134 93 221 7 56 17 73 17 28 0 -23 9 -38 36 -60
61 -50 106 -28 130 62 l10 41 16 -30 c21 -40 49 -64 86 -74 46 -14 65 5 72 69
1 8 6 3 11 -12 9 -24 47 -46 74 -43 59 8 124 74 138 140 3 15 5 12 6 -7 0 -16
11 -38 22 -49 27 -27 77 -21 123 14 28 22 39 39 65 97 4 8 6 30 6 48 l-1 33
23 -26 c29 -30 64 -32 107 -6 l31 20 0 -297 c0 -270 5 -393 20 -507 8 -60 24
-167 30 -195 3 -14 7 -37 10 -51 7 -39 55 -200 64 -217 6 -11 -10 -34 -60 -86
-37 -39 -80 -84 -95 -101 -15 -16 -69 -75 -120 -130 -119 -129 -138 -151 -183
-204 -20 -25 -44 -53 -53 -63 -10 -10 -18 -20 -18 -23 0 -3 -10 -19 -21 -35
-19 -24 -21 -38 -16 -89 3 -33 8 -65 12 -72 5 -8 27 9 67 52 59 64 67 64 19 0
-21 -27 -26 -46 -26 -90 0 -31 6 -70 13 -88 l14 -32 24 26 c13 14 24 29 24 33
0 4 9 18 21 31 11 13 33 39 47 58 15 19 35 43 45 55 17 20 17 20 0 -10 -38
-67 -77 -129 -84 -134 -24 -17 12 -150 40 -150 5 0 24 21 42 46 19 25 41 54
51 64 9 10 32 42 52 72 70 104 100 147 103 144 2 -2 -11 -30 -30 -62 -18 -32
-52 -99 -75 -147 -47 -98 -49 -131 -9 -181 27 -33 47 -28 70 17 34 66 147 262
147 255 0 -9 -48 -136 -60 -159 -32 -61 -13 -155 35 -177 20 -9 26 -7 39 13 9
13 16 26 16 29 0 2 16 38 35 79 19 42 37 87 41 101 3 14 10 26 14 26 4 0 1
-30 -7 -68 -14 -60 -21 -102 -25 -139 -4 -41 70 -119 92 -97 5 5 28 72 51 149
23 77 44 142 47 145 2 3 2 -7 -1 -21 -21 -87 -26 -209 -11 -241 15 -29 60 -68
79 -68 12 0 29 50 40 115 19 114 23 117 21 18 -3 -107 15 -140 85 -156 52 -13
62 8 68 147 2 39 12 6 15 -46 4 -67 18 -94 51 -102 26 -7 77 14 91 36 4 6 8
34 10 60 3 63 14 75 16 17 0 -24 2 -48 3 -54 2 -5 3 -20 4 -31 1 -30 51 -37
90 -13 47 28 51 40 52 142 1 37 3 67 4 67 4 0 17 -68 30 -142 8 -54 34 -64 71
-30 33 30 47 56 47 87 0 39 -14 166 -20 180 -3 8 -1 15 4 15 5 0 10 -6 10 -13
0 -6 10 -44 22 -82 13 -39 24 -74 25 -80 10 -45 31 -95 42 -99 17 -7 72 48 80
80 6 24 -23 194 -41 239 -5 13 -5 17 2 10 5 -5 16 -26 23 -45 8 -19 26 -63 41
-97 16 -34 35 -78 43 -98 25 -59 69 -42 97 37 9 28 10 43 2 60 -6 13 -13 32
-16 43 -2 11 -17 51 -31 90 -30 78 -23 77 21 -5 108 -198 123 -219 150 -207
24 11 46 56 46 96 0 22 -76 197 -92 211 -3 3 -7 11 -9 18 -1 7 -14 31 -27 52
-35 56 -23 50 16 -7 18 -27 36 -49 41 -51 4 -2 8 -8 8 -13 0 -16 154 -219 166
-219 18 0 43 38 50 77 4 23 0 44 -14 72 -32 61 -46 84 -60 99 -6 7 -17 23 -23
35 -13 27 40 -33 78 -88 16 -22 38 -51 51 -65 12 -14 22 -28 22 -32 0 -19 19
-6 28 20 35 87 24 131 -59 240 -21 29 -39 57 -39 62 0 6 -3 10 -7 10 -5 0 -21
17 -36 38 -37 48 104 -100 163 -172 25 -30 50 -55 57 -56 11 0 23 41 28 95 3
26 -17 76 -43 106 -146 175 -176 209 -377 424 -60 65 -122 131 -137 147 l-26
30 17 41 c18 42 44 138 62 232 10 47 13 71 24 155 2 19 4 35 5 35 16 0 33 641
19 747 -7 61 2 77 29 48 28 -30 92 -38 114 -13 9 10 18 27 21 38 3 11 6 1 7
-22 3 -54 2 -51 24 -96 30 -61 101 -105 150 -93 23 6 51 51 41 67 -4 5 -4 9
-1 9 2 0 14 -21 26 -46 26 -52 86 -97 131 -97 17 0 40 9 54 23 20 19 25 20 25
7 0 -26 38 -55 65 -50 28 6 77 48 95 83 13 24 13 23 25 -24 8 -29 22 -56 36
-66 23 -18 26 -18 69 -6 26 7 64 61 54 77 -3 5 -1 9 5 9 6 0 13 -17 16 -37 25
-163 107 -274 164 -222 21 20 44 86 44 132 1 45 15 30 23 -25 4 -29 8 -55 9
-58 1 -3 5 -22 9 -43 14 -65 61 -67 119 -6 50 55 75 166 52 239 -4 14 -4 22 0
18 3 -3 15 -39 25 -79 26 -99 45 -110 106 -57 30 26 53 61 58 88 1 3 4 10 7
15 10 19 10 92 0 131 -16 61 -20 94 -12 94 4 0 12 -21 18 -47 23 -100 44 -168
60 -185 14 -16 18 -16 44 -3 32 17 72 66 89 110 15 38 15 131 1 168 -7 17 -7
27 -1 27 6 0 10 -8 10 -18 0 -10 3 -22 8 -26 4 -4 7 -11 8 -14 0 -4 6 -26 14
-50 17 -54 49 -66 85 -32 29 27 60 103 52 125 -4 8 -3 15 2 15 5 0 12 -11 15
-25 4 -14 18 -31 31 -37 22 -10 29 -8 55 17 16 16 28 31 25 33 -3 3 0 12 7 19
10 13 14 31 17 93 1 10 6 8 17 -8 19 -28 64 -52 93 -49 53 4 92 81 59 116 -11
10 -9 11 7 5 11 -4 28 -13 38 -20 25 -16 75 -2 96 28 20 29 20 35 4 77 -18 46
-16 54 6 32 11 -11 36 -23 56 -27 71 -13 115 40 82 98 -20 35 -11 35 31 -1 21
-18 42 -27 60 -25 15 1 33 2 39 3 7 1 19 13 27 29 12 24 12 33 -9 90 -12 34
-21 62 -20 62 2 0 13 -15 24 -34 26 -42 59 -64 103 -70 62 -7 88 34 64 102
l-15 42 35 -35 c19 -19 42 -36 52 -37 55 -4 70 -3 94 11 31 17 37 34 26 75 -7
26 -6 27 10 14 24 -20 63 -34 90 -32 12 1 31 2 42 3 34 2 71 46 68 81 -1 16
-7 30 -12 30 -5 0 -6 3 -3 7 4 3 2 12 -4 20 -6 7 -9 13 -5 13 3 0 17 -18 31
-40 41 -65 105 -88 180 -63 68 22 71 48 18 184 -25 63 -49 123 -53 134 -24 55
-40 98 -37 101 2 2 15 -25 30 -59 73 -167 132 -271 166 -291 85 -49 220 -8
207 64 -3 14 -45 117 -95 229 -50 112 -91 207 -90 210 0 3 50 -95 112 -219 92
-185 118 -229 146 -247 77 -52 208 -9 195 63 -2 13 -33 83 -68 156 -35 73 -73
156 -86 183 -12 28 -27 59 -32 70 -7 13 -7 17 0 10 5 -5 58 -104 117 -220 59
-115 119 -220 132 -233 70 -65 203 -89 260 -46 15 12 27 30 27 40 -2 22 -102
205 -118 216 -6 4 -7 8 -2 8 5 0 3 7 -4 15 -7 8 -8 15 -3 15 5 0 19 -19 31
-42 37 -72 67 -123 75 -126 4 -2 7 -9 7 -17 0 -16 72 -95 87 -95 6 0 13 -4 15
-9 5 -16 101 -38 147 -35 81 6 107 42 70 96 -11 14 -19 31 -19 36 0 6 -4 12
-8 14 -5 2 -27 32 -50 68 -23 36 -45 70 -49 75 -10 13 -39 58 -59 93 l-16 27
19 -25 c44 -60 103 -140 146 -200 74 -103 117 -150 159 -171 21 -11 38 -17 38
-13 0 4 6 2 13 -3 10 -9 65 -10 154 -4 27 1 83 47 83 68 0 13 -37 69 -68 101
-7 8 -25 30 -40 50 -15 21 -30 39 -33 42 -3 3 -23 28 -44 55 -20 28 -40 52
-44 55 -3 3 -24 28 -46 55 -22 28 -43 52 -47 53 -5 2 -8 8 -8 14 0 6 -10 19
-22 29 -11 11 -18 22 -14 26 3 4 13 -2 20 -13 8 -10 24 -31 37 -45 13 -14 53
-58 89 -99 36 -40 79 -87 95 -105 17 -18 50 -56 75 -85 69 -82 95 -107 119
-115 11 -3 21 -11 21 -17 0 -6 3 -8 7 -5 3 4 11 3 17 -2 6 -5 27 -11 46 -14
19 -3 40 -6 45 -8 6 -2 31 0 57 5 82 13 104 64 49 116 -15 14 -103 115 -162
184 -13 16 -35 41 -49 55 -14 15 -41 44 -59 64 -19 20 -32 37 -28 37 5 0 84
-76 176 -170 179 -181 220 -209 312 -218 89 -8 169 32 154 77 -3 11 -66 81
-140 157 -74 76 -134 139 -132 140 2 2 14 -7 27 -19 14 -12 75 -64 135 -115
61 -52 126 -108 145 -125 19 -18 55 -48 80 -67 25 -19 46 -38 48 -42 2 -5 8
-8 14 -8 5 0 22 -9 37 -19 39 -28 138 -58 198 -60 57 -2 128 13 139 30 6 10
-47 65 -249 253 -54 50 -125 116 -158 147 -33 31 -87 80 -120 110 -34 30 -88
80 -121 112 -34 31 -63 57 -67 57 -3 0 -17 11 -31 25 -14 14 -52 50 -85 81
-57 53 -55 52 25 -13 47 -37 91 -74 98 -80 7 -7 16 -13 20 -13 4 0 26 -17 48
-38 44 -39 50 -44 129 -107 28 -22 57 -46 66 -55 9 -8 30 -26 47 -39 17 -13
93 -73 169 -133 188 -150 256 -186 367 -193 50 -4 116 16 116 33 0 8 -46 53
-140 136 -24 21 -189 158 -220 183 -73 59 -283 222 -305 238 -15 11 -32 25
-39 30 -6 6 -32 25 -58 43 -25 18 -52 38 -60 44 -7 7 -32 26 -56 42 -24 16
-45 33 -48 38 -3 5 30 -15 73 -43 43 -29 79 -56 81 -61 2 -4 8 -8 14 -8 8 0
93 -55 108 -70 3 -3 13 -9 22 -15 32 -19 293 -194 305 -204 7 -6 15 -11 18
-11 3 0 33 -18 65 -40 52 -35 90 -55 125 -66 107 -33 245 -27 245 11 0 19
-552 415 -580 415 -5 0 -10 4 -10 8 0 5 -12 15 -27 23 -15 8 -35 20 -43 26
-23 19 -230 150 -267 170 -18 9 -33 21 -33 26 0 6 5 6 13 0 11 -9 84 -50 177
-99 19 -11 37 -21 40 -24 3 -3 25 -15 50 -28 25 -12 81 -43 125 -67 44 -25
103 -57 130 -71 28 -13 57 -29 65 -34 141 -84 291 -91 314 -15 5 18 -11 32
-116 95 -68 41 -132 80 -143 86 -11 6 -52 29 -90 51 -123 71 -228 128 -370
202 -38 20 -72 38 -75 41 -11 11 -336 170 -347 170 -7 0 -13 4 -13 9 0 5 -10
13 -21 16 -12 4 -72 31 -133 60 -62 29 -179 82 -262 118 -82 36 -167 73 -189
83 -22 9 -42 18 -45 19 -14 5 -63 27 -135 60 -206 95 -344 153 -349 147 -4 -3
-6 0 -6 6 0 7 -3 11 -7 10 -9 -1 -52 15 -97 38 -16 8 -32 14 -36 14 -4 0 -25
8 -46 17 -22 9 -41 17 -44 18 -3 1 -18 7 -35 14 -35 14 -53 20 -60 21 -3 1
-22 8 -42 17 -45 19 -222 83 -243 88 -8 2 -28 9 -45 15 -16 6 -37 13 -45 15
-8 2 -49 13 -90 26 -41 13 -78 24 -82 25 -5 1 -9 2 -10 4 -2 1 -10 3 -18 5 -8
1 -53 12 -100 23 -97 23 -148 34 -170 37 -8 1 -31 5 -50 8 -208 38 -400 38
-488 1 -20 -8 -37 -14 -37 -13 0 12 -227 -96 -335 -158 -73 -42 -115 -68 -125
-75 -20 -16 -117 -78 -121 -78 -3 0 -10 -5 -17 -10 -7 -6 -57 -42 -112 -80
-55 -38 -106 -75 -114 -81 -7 -7 -50 -39 -95 -72 -44 -33 -82 -64 -84 -69 -2
-4 -8 -8 -13 -8 -6 0 -17 -6 -25 -12 -27 -23 -38 -32 -114 -93 -41 -33 -76
-63 -78 -67 -2 -5 -10 -8 -17 -8 -7 0 -15 -4 -17 -9 -1 -4 -32 -32 -68 -62
-36 -29 -66 -57 -68 -61 -2 -4 -10 -8 -17 -8 -7 0 -15 -4 -17 -9 -3 -7 -22
-24 -128 -115 -14 -11 -57 -48 -95 -82 -39 -33 -80 -69 -93 -80 -13 -10 -40
-35 -61 -54 -132 -123 -201 -179 -254 -207 -33 -17 -68 -32 -76 -32 -9 0 -40
-4 -68 -9 -79 -13 -177 -5 -305 24 -40 9 -80 20 -89 25 -9 4 -27 10 -40 13
-13 3 -75 22 -136 43 l-113 38 -1 70 c-1 92 -12 199 -25 255 -50 213 -103 297
-329 523 -178 180 -192 202 -182 296 13 123 105 308 215 433 30 34 144 146
179 175 12 10 32 27 45 38 12 11 52 44 88 73 36 29 73 60 83 68 36 29 207 112
338 164 116 46 346 125 389 135 8 1 35 9 60 16 57 16 48 14 96 23 69 12 123
10 143 -8 66 -60 55 66 -12 137 -41 43 -112 70 -162 60z m-955 -201 c14 -5 31
-17 38 -25 11 -12 8 -19 -14 -36 -33 -26 -79 -27 -121 -1 -39 23 -42 42 -10
58 45 22 59 23 107 4z m-7026 -2047 c-4 -8 -11 -15 -16 -15 -6 0 -5 6 2 15 7
8 14 15 16 15 2 0 1 -7 -2 -15z m13056 -10 c11 -13 10 -14 -4 -9 -9 3 -16 10
-16 15 0 13 6 11 20 -6z m-13136 -40 c-10 -8 -23 -14 -29 -14 -5 -1 1 8 15 19
14 10 27 17 29 14 3 -2 -4 -11 -15 -19z m116 -138 c0 -2 -10 -12 -22 -23 l-23
-19 19 23 c18 21 26 27 26 19z m270 -31 c0 -2 -8 -10 -17 -17 -16 -13 -17 -12
-4 4 13 16 21 21 21 13z m1821 -359 c-10 -9 -11 -8 -5 6 3 10 9 15 12 12 3 -3
0 -11 -7 -18z m9057 -12 c-3 -3 -9 2 -12 12 -6 14 -5 15 5 6 7 -7 10 -15 7
-18z m-264 -1 c9 -24 2 -26 -12 -4 -7 11 -8 20 -3 20 5 0 12 -7 15 -16z
m-9088 -32 c-17 -16 -18 -16 -5 5 7 12 15 20 18 17 3 -2 -3 -12 -13 -22z
m10982 -27 c-3 -3 -9 2 -12 12 -6 14 -5 15 5 6 7 -7 10 -15 7 -18z m-10461
-57 c-3 -8 -6 -5 -6 6 -1 11 2 17 5 13 3 -3 4 -12 1 -19z m-1169 -52 c-13 -20
-26 -36 -30 -36 -4 0 5 18 20 39 34 48 42 46 10 -3z m1155 19 c-3 -9 -8 -14
-10 -11 -3 3 -2 9 2 15 9 16 15 13 8 -4z m9247 -35 c6 -11 8 -20 6 -20 -3 0
-10 9 -16 20 -6 11 -8 20 -6 20 3 0 10 -9 16 -20z m-9269 -17 c-12 -20 -14
-14 -5 12 4 9 9 14 11 11 3 -2 0 -13 -6 -23z m6533 -959 c3 -8 2 -12 -4 -9 -6
3 -10 10 -10 16 0 14 7 11 14 -7z m-4669 -27 c-4 -13 -7 -31 -9 -40 -2 -18
-16 -36 -16 -21 0 16 21 84 26 84 2 0 2 -10 -1 -23z m4695 -64 c0 -7 -4 -13
-9 -13 -6 0 -9 8 -9 18 1 9 -2 28 -5 42 -6 20 -4 19 8 -5 8 -16 14 -36 15 -42z
m-4710 -22 c0 -6 -4 -13 -10 -16 -5 -3 -10 1 -10 9 0 9 5 16 10 16 6 0 10 -4
10 -9z m1423 -1966 c-3 -9 -8 -14 -10 -11 -3 3 -2 9 2 15 9 16 15 13 8 -4z"/>
</g>
</svg>
