<?xml version="1.0" standalone="no"?>
<!DOCTYPE svg PUBLIC "-//W3C//DTD SVG 20010904//EN"
 "http://www.w3.org/TR/2001/REC-SVG-20010904/DTD/svg10.dtd">
<svg version="1.0" xmlns="http://www.w3.org/2000/svg"
 width="730.000000pt" height="730.000000pt" viewBox="0 0 730.000000 730.000000"
 preserveAspectRatio="xMidYMid meet">
<metadata>
Created by potrace 1.14, written by Peter Selinger 2001-2017
</metadata>
<g transform="translate(0.000000,730.000000) scale(0.100000,-0.100000)"
fill="#000000" stroke="none">
<path d="M2438 6955 c-2 -2 -43 -6 -93 -9 -102 -7 -153 -13 -204 -21 -20 -4
-47 -8 -61 -10 -25 -4 -66 -11 -108 -19 -12 -3 -50 -12 -85 -21 -34 -9 -66
-18 -72 -19 -20 -4 -180 -59 -190 -65 -5 -3 -12 -6 -15 -6 -40 -4 -307 -127
-429 -197 -46 -26 -85 -48 -87 -48 -2 0 -12 -6 -21 -14 -10 -8 -58 -45 -108
-82 -85 -63 -270 -242 -325 -314 -26 -34 -133 -184 -150 -210 -21 -31 -116
-198 -135 -236 -11 -21 -24 -42 -30 -46 -5 -4 -7 -8 -3 -8 5 0 -5 -26 -21 -57
-50 -98 -126 -312 -137 -383 -1 -8 -9 -46 -18 -85 -8 -38 -17 -95 -21 -125 -3
-30 -7 -77 -10 -105 -11 -104 -6 -432 9 -510 3 -16 8 -55 11 -85 3 -30 8 -62
10 -70 2 -8 6 -26 9 -40 7 -44 37 -164 53 -210 8 -25 16 -49 17 -55 2 -5 6
-19 10 -30 5 -11 13 -33 19 -50 65 -184 251 -504 362 -621 5 -6 28 -32 50 -59
109 -130 307 -313 435 -401 63 -44 202 -120 285 -156 39 -17 88 -38 110 -48
41 -18 190 -68 302 -100 73 -21 73 -21 68 70 -2 30 -3 70 -4 87 -1 29 -7 36
-48 55 -27 12 -49 26 -51 30 -2 4 -9 8 -15 8 -12 0 -96 55 -182 120 -69 52
-232 212 -290 285 -22 28 -42 52 -45 55 -3 3 -33 46 -67 95 -67 99 -157 266
-193 360 -13 33 -27 64 -32 70 -4 5 -8 19 -8 31 0 13 -4 25 -9 28 -5 3 -11 16
-14 28 -2 13 -17 64 -32 113 -15 50 -28 99 -30 110 -2 11 -10 47 -18 80 -9 33
-18 74 -21 90 -3 17 -8 39 -10 50 -2 11 -7 40 -11 65 -4 25 -9 54 -11 65 -2
11 -6 45 -9 75 -3 30 -8 69 -10 85 -6 41 -7 318 0 379 7 78 24 186 40 271 3
17 8 44 11 60 3 17 12 57 21 90 8 33 17 69 19 81 19 100 171 498 198 516 6 4
7 8 2 8 -4 0 -2 10 6 23 8 12 32 54 53 92 21 39 41 72 45 75 3 3 17 23 30 45
78 128 248 308 368 388 84 56 213 124 297 157 33 12 69 26 80 30 77 30 105 39
105 34 0 -4 7 -1 15 6 8 7 15 10 15 6 0 -3 12 -1 28 5 15 6 38 12 52 15 14 2
54 11 90 19 92 21 182 28 365 28 199 1 278 -8 440 -49 55 -14 125 -34 155 -46
30 -11 60 -21 65 -22 79 -20 353 -176 450 -257 96 -80 198 -182 247 -244 12
-16 31 -39 41 -50 28 -31 105 -151 149 -231 31 -58 117 -247 117 -257 -1 -7
15 -64 20 -72 3 -5 6 -14 7 -20 1 -5 11 -46 23 -90 22 -83 49 -208 57 -260 3
-16 7 -41 10 -55 4 -14 8 -43 10 -65 2 -22 6 -58 9 -80 33 -268 22 -653 -26
-930 -6 -33 -13 -71 -15 -85 -3 -14 -7 -37 -10 -52 -3 -15 -6 -30 -6 -33 0 -2
-15 -64 -35 -137 -41 -159 -39 -149 -45 -168 -3 -8 -16 -44 -28 -80 -13 -36
-46 -114 -75 -175 -94 -197 -195 -326 -385 -495 -53 -47 -205 -147 -282 -186
-116 -59 -305 -126 -393 -140 -11 -2 -45 -9 -75 -16 -61 -15 -60 -12 -45 -116
5 -34 10 -42 23 -38 9 2 42 8 72 12 30 4 57 8 60 9 16 4 156 34 190 41 50 10
275 89 282 99 4 5 8 7 8 3 0 -10 104 35 219 94 303 157 705 502 860 738 20 30
38 57 41 60 8 8 28 42 52 90 13 25 26 47 29 50 6 4 68 134 99 205 16 36 69
203 74 232 2 15 5 28 6 28 2 0 10 36 15 75 3 19 7 42 10 50 37 131 52 708 21
860 -3 14 -7 46 -10 71 -3 26 -8 53 -10 60 -3 8 -8 31 -11 53 -3 21 -7 42 -10
46 -2 3 -7 20 -9 37 -28 157 -146 435 -260 610 -136 210 -375 469 -562 608
-215 159 -541 304 -854 380 -96 23 -188 40 -270 50 -25 3 -61 8 -80 11 -36 6
-516 14 -522 9z"/>
<path d="M5199 5006 c-2 -16 -1 -45 5 -91 2 -22 5 -47 5 -56 1 -11 14 -19 39
-23 111 -20 369 -122 409 -161 7 -8 22 -17 33 -20 11 -3 20 -11 20 -16 0 -5 5
-9 11 -9 16 0 111 -80 199 -169 135 -136 257 -314 367 -533 58 -117 66 -128
86 -122 12 4 29 7 37 7 29 0 38 17 34 70 -2 29 -6 86 -9 127 -2 41 -7 99 -10
128 -2 29 -7 96 -11 150 -3 53 -8 120 -10 147 -2 28 -6 90 -9 138 -7 113 -6
109 -35 125 -58 34 -182 92 -193 92 -7 0 -17 4 -22 9 -6 5 -39 19 -75 31 -36
12 -74 26 -85 31 -21 9 -250 76 -288 83 -12 3 -47 10 -77 15 -30 6 -66 13 -80
16 -14 3 -43 7 -65 10 -22 3 -56 7 -75 10 -51 7 -141 17 -172 19 -16 1 -29 -3
-29 -8z"/>
<path d="M4279 5006 c-2 -2 -33 -7 -69 -11 -36 -4 -72 -8 -80 -9 -8 -2 -37 -7
-65 -11 -27 -5 -54 -10 -60 -10 -5 -1 -12 -3 -15 -4 -3 -2 -16 -4 -30 -6 -68
-7 -278 -68 -405 -118 -120 -46 -365 -177 -440 -234 -5 -5 -43 -30 -82 -56
-40 -26 -78 -53 -86 -60 -7 -7 -33 -28 -57 -47 -116 -89 -268 -244 -365 -370
-28 -36 -53 -66 -57 -68 -5 -2 -8 -10 -8 -18 0 -8 -3 -14 -8 -14 -4 0 -12 -9
-17 -19 -6 -11 -31 -55 -56 -98 -107 -181 -169 -320 -236 -523 -13 -41 -26
-85 -29 -97 -2 -12 -9 -34 -14 -48 -5 -14 -8 -25 -5 -25 2 0 -2 -21 -10 -47
-7 -27 -16 -64 -19 -83 -3 -19 -8 -44 -10 -55 -2 -11 -7 -51 -11 -90 -4 -38
-9 -79 -11 -90 -5 -24 -5 -286 0 -370 4 -71 15 -144 41 -290 25 -144 106 -384
186 -550 39 -82 138 -247 179 -298 94 -118 123 -151 169 -201 88 -92 114 -118
171 -166 29 -25 57 -50 64 -55 6 -6 38 -31 71 -55 33 -25 62 -47 65 -50 3 -3
14 -10 25 -17 11 -7 44 -27 74 -45 100 -62 146 -89 161 -95 8 -3 49 -21 90
-40 41 -19 84 -39 95 -44 63 -26 95 -37 95 -32 0 3 6 1 13 -4 11 -10 146 -54
177 -59 8 -1 24 -5 35 -8 106 -28 250 -51 460 -72 178 -18 606 -18 795 0 36 4
88 9 115 12 74 7 127 13 155 19 14 2 48 7 75 10 28 3 73 9 100 15 28 5 64 11
80 14 17 2 62 12 100 21 39 9 75 18 80 19 6 1 51 15 100 31 50 16 92 30 95 30
3 1 19 7 35 14 17 6 44 16 60 22 17 6 49 20 72 30 24 11 50 19 58 19 8 0 15 4
15 10 0 5 3 9 8 8 16 -4 152 73 189 109 64 60 93 134 109 273 3 30 8 278 10
550 3 472 6 544 18 599 7 32 42 68 91 94 36 19 58 22 220 23 172 2 222 6 310
22 30 6 41 13 46 32 12 44 10 97 -6 110 -11 9 -123 13 -427 16 -227 2 -489 6
-583 9 -368 11 -935 5 -1070 -11 -33 -4 -68 -7 -78 -6 -9 0 -24 -9 -32 -22
-13 -20 -13 -26 -1 -52 34 -68 46 -73 163 -74 60 0 122 -2 138 -4 17 -2 66 -7
110 -10 44 -4 87 -9 95 -11 8 -2 35 -7 60 -10 119 -16 217 -52 260 -95 36 -36
46 -61 65 -165 32 -169 38 -733 10 -930 -31 -216 -180 -370 -442 -459 -40 -14
-73 -23 -73 -20 0 3 -8 0 -19 -5 -17 -9 -56 -19 -106 -26 -11 -2 -20 -4 -20
-5 0 -2 -36 -10 -80 -16 -22 -3 -51 -8 -65 -10 -142 -25 -493 -24 -660 2 -144
23 -382 108 -495 177 -243 148 -469 346 -655 573 -9 11 -31 42 -50 69 -19 28
-38 52 -41 55 -12 10 -97 147 -125 200 -16 30 -31 57 -34 60 -25 25 -145 320
-165 406 -3 10 -13 55 -24 100 -11 44 -23 102 -27 130 -3 27 -8 57 -9 66 -24
124 -24 575 0 682 3 12 7 44 11 71 8 70 10 77 17 100 3 11 8 36 11 55 3 19 13
60 21 90 9 30 18 64 20 75 3 11 9 31 14 45 12 33 22 64 22 67 -1 8 76 179 112
247 43 84 167 274 215 331 15 18 43 52 62 76 38 46 202 212 241 244 79 64 149
115 157 115 6 0 12 3 14 8 10 23 192 120 332 176 41 17 202 62 248 70 15 3 31
7 36 10 4 2 7 43 7 90 -1 79 -5 102 -16 92z"/>
</g>
</svg>
