<svg xmlns="http://www.w3.org/2000/svg" viewBox="0 0 388 86"><path d="M134.5 69.5c-12.4 9.1-30.4 14-45.8 14-21.7 0-41.2-8-56-21.4-1.2-1-.1-2.5 1.3-1.7 15.9 9.3 35.6 14.9 56 14.9 13.7 0 28.8-2.9 42.7-8.7 2.1-.9 3.8 1.4 1.8 2.9zm5.1-5.9c-1.6-2-10.5-1-14.5-.5-1.2.1-1.4-.9-.3-1.7 7.1-5 18.7-3.5 20.1-1.9 1.4 1.7-.4 13.3-7 18.9-1 .9-2 .4-1.5-.7 1.5-3.7 4.8-12 3.2-14.1z" fill="#f90"/><path d="M33.4 50.3c-1.2-1.7-2.5-3-2.5-6.1V33.9c0-4.4.3-8.4-2.9-11.4-2.5-2.4-6.7-3.3-9.9-3.3-6.3 0-13.3 2.3-14.8 10.1-.2.8.4 1.3 1 1.4l6.4.7c.6 0 1-.6 1.1-1.2.5-2.7 2.8-4 5.3-4 1.4 0 2.9.5 3.7 1.7.9 1.4.8 3.2.8 4.8v.9c-3.8.4-8.8.7-12.4 2.3-4.1 1.8-7 5.4-7 10.8 0 6.9 4.3 10.3 9.9 10.3 4.7 0 7.3-1.1 10.9-4.8 1.2 1.7 1.6 2.6 3.8 4.4.5.3 1.1.2 1.6-.2h0c1.3-1.2 3.7-3.3 5.1-4.4.4-.4.3-1.1-.1-1.7zm-13-3c-1 1.9-2.7 3-4.6 3-2.5 0-4-1.9-4-4.8 0-5.6 5-6.6 9.8-6.6v1.4c0 2.6.1 4.8-1.2 7zm25.9 9.2h-6.6c-.6 0-1.1-.5-1.2-1.1V21.5c0-.7.6-1.2 1.3-1.2h6.1c.6 0 1.2.5 1.2 1.1v4.4h.1c1.6-4.3 4.6-6.3 8.7-6.3s6.7 2 8.6 6.3c1.6-4.3 5.2-6.3 9.1-6.3 2.8 0 5.8 1.1 7.6 3.7 2.1 2.9 1.7 7 1.7 10.6v21.4c0 .7-.6 1.2-1.3 1.2H75c-.7 0-1.2-.6-1.2-1.2v-18c0-1.4.1-5-.2-6.3-.5-2.3-2-2.9-3.9-2.9-1.6 0-3.3 1.1-3.9 2.8-.7 1.7-.6 4.6-.6 6.5v18c0 .7-.6 1.2-1.3 1.2h-6.6c-.7 0-1.2-.6-1.2-1.2v-18c0-3.8.6-9.3-4.1-9.3s-4.6 5.4-4.6 9.3v18c.2.7-.4 1.2-1.1 1.2zm73.6-6.2c-1.2-1.7-2.5-3-2.5-6.1V33.9c0-4.4.3-8.4-2.9-11.4-2.5-2.4-6.7-3.3-9.9-3.3-6.3 0-13.3 2.3-14.8 10.1-.2.8.4 1.3 1 1.4l6.4.7c.6 0 1-.6 1.1-1.2.6-2.7 2.8-4 5.3-4 1.4 0 2.9.5 3.7 1.7.9 1.4.8 3.2.8 4.8v.9c-3.8.4-8.8.7-12.4 2.3-4.1 1.8-7 5.4-7 10.8 0 6.9 4.3 10.3 9.9 10.3 4.7 0 7.3-1.1 10.9-4.8 1.2 1.7 1.6 2.6 3.8 4.4.5.3 1.1.2 1.6-.2h0c1.3-1.2 3.7-3.3 5.1-4.4.4-.4.3-1.1-.1-1.7zm-11.7-10h0c0 2.6.1 4.7-1.2 7-1 1.9-2.7 3-4.6 3-2.5 0-4-1.9-4-4.8 0-5.6 5-6.6 9.8-6.6v1.4zm17.3-14v-4.8c0-.7.6-1.2 1.2-1.2h21.7c.7 0 1.3.5 1.3 1.2v4.2c0 .7-.6 1.6-1.6 3l-11.2 16c4.2-.1 8.6.5 12.4 2.7.9.5 1.1 1.2 1.2 1.9v5.2c0 .7-.8 1.5-1.6 1.1-6.7-3.5-15.5-3.9-22.9 0-.8.4-1.5-.4-1.5-1.1v-4.9c0-.8 0-2.1.8-3.3l13-18.7H127c-1-.1-1.5-.6-1.5-1.3zm42.8-6.7c9.8 0 15.1 8.4 15.1 19.1 0 10.3-5.9 18.5-15.1 18.5-9.6 0-14.8-8.4-14.8-18.9s5.3-18.7 14.8-18.7zm.1 6.9c-4.9 0-5.2 6.6-5.2 10.8 0 4.1-.1 13 5.1 13 5.1 0 5.4-7.1 5.4-11.5 0-2.9-.1-6.3-1-9-.8-2.4-2.2-3.3-4.3-3.3zm27.7 30h-6.6c-.7 0-1.2-.6-1.2-1.2V21.4a1.3 1.3 0 0 1 1.3-1.1h6.1c.6 0 1.1.4 1.2.9v5.2h.1c1.8-4.6 4.4-6.8 9-6.8 3 0 5.9 1.1 7.7 4 1.7 2.7 1.7 7.3 1.7 10.5v21.3a1.3 1.3 0 0 1-1.3 1.1h-6.6c-.6 0-1.1-.5-1.2-1.1V37.1c0-3.7.4-9.1-4.1-9.1-1.6 0-3.1 1.1-3.8 2.7-.9 2.1-1 4.1-1 6.4v18.2c0 .7-.6 1.2-1.3 1.2z"/><path d="M246 56.5l-15.4-18.6h-.1v18.6H225V2.9h5.5v30.5h.1l13.2-12.7h7.2l-15.8 14.6L253 56.5h-7zm13.5-43.3c-2.1 0-3.9-1.7-3.9-3.9 0-2.1 1.7-3.9 3.9-3.9a3.84 3.84 0 0 1 3.9 3.9c0 2.1-1.8 3.9-3.9 3.9zm-2.7 43.3V20.7h5.5v35.8h-5.5zm36.6 0v-22c0-4.5-.8-9.5-6.2-9.5-4.4 0-8.4 3.1-11.1 5.5v26.1h-5.5V20.7h4.5l.8 4.3c3.9-3 7.8-5.2 12.8-5.2 5.1 0 10.3 3.7 10.3 12.7v24.1l-5.6-.1h0zm29.9.8c-10 0-18.4-5.8-18.4-18.2 0-11.1 8-19.3 18.5-19.3 2.6 0 4.4.2 5.8.6V2.9h5.5v51.8c-2.1 1.3-6.3 2.6-11.4 2.6zm5.9-31.8c-1.4-.5-2.7-.9-5.5-.9-7 0-13.2 5.5-13.2 14.1 0 8.1 4.5 13.9 13.8 13.9 1.8 0 3.8-.4 4.9-.9V25.5zm19.9 31.8c-4.4 0-6.3-2.8-6.3-6.6V2.9h5.5v45.3c0 3.4.8 4.1 3 4.1.4 0 1 0 1.9-.2l.7 4c-1.6.8-2.9 1.2-4.8 1.2zm13.8-17.7c0 6.8 3.9 13 11.7 13 3.3 0 6.6-1.3 8.7-2.7l1.7 3.9c-2.7 1.8-7.2 3.5-11.1 3.5-11.4 0-16.9-9.2-16.9-19.4 0-10.4 5.9-18.1 14.5-18.1 9.2 0 14.3 7.4 14.3 18.5v1.3h-22.9zm8.7-15.1c-5.3 0-8.6 4.7-8.6 10.4h16.9c-.1-5-2.9-10.4-8.3-10.4z" fill="#f90"/></svg>