<svg viewBox="0 0 298 259">
    <path d="M250.5 8.5v242H8.5V8.5h242M259 0H0v259h259V0h0zM43 47.5v-2h41.9c7.7 0 13.4-.4 19.9 3.3 7.8 4.4 10.8 20.8 2.8 27.5-4.3 3.6-10.1 5.3-15.2 7.8 7.5.6 15.9 3.9 19.5 6 12.5 7.4 11.8 23.9 2.5 31.1-6.9 5.4-13.8 5.4-23.4 5.4H43v-2c7.1-1.7 9.1-3.4 9.1-10.9V58.1c0-7.3-1.3-10.6-9.1-10.6zm33.9 38l.1 29.9c-.1 4.5 0 7.6 3.8 8.6 4.1 1.1 8.4.2 11.4-3.4 4.7-5.7 4.6-15.1 4.4-19.3-.5-11.2-5.4-15.8-19.7-15.8zm0-2.4c5.2 0 8.1.1 10.7-3.3 4.3-5.5 5.4-23.6.9-29-2-2.4-3.1-3.3-8.3-3.3-2.3 0-3.3 2.4-3.3 5.1v30.5zm53 41.4c7.2 0 8.9-2.6 8.9-5.8V54.2c0-5.3-4.4-6.7-8.9-6.7v-2h41v2c-7.6 1.6-8.5 3.4-8.5 10.7v26.4s6.4-2.4 10.1-5.4c4.7-3.8 15.2-15.8 15.2-15.8 6.1-7.4 2.3-15.9-6.8-15.9v-2h32v2c-11.3 0-32 27.5-32 27.5l35.2 51.5h-35.2v-2l2.8-.8c1.5-.4 2.2-2.4 1.3-3.7l-22.6-33.1v26.6c0 5.8-.7 11 8.5 11v2h-41v-2zm0 93.5c7.2 0 8.9-2.6 8.9-5.8v-64.5c0-5.3-4.4-6.7-8.9-6.7v-2h41v2c-7.6 1.6-8.5 3.4-8.5 10.7v26.4s6.4-2.4 10.1-5.4c4.7-3.8 15.2-15.8 15.2-15.8 6.1-7.4 2.3-15.9-6.8-15.9v-2h32v2c-11.3 0-32 27.5-32 27.5L216 220h-35.2v-2l2.8-.8c1.5-.4 2.2-2.4 1.3-3.7l-22.6-33.1V207c0 5.8-.7 11 8.5 11v2h-41v-2zM43 139h21.1l47 50.4V152c0-7.4-7.4-11-11.4-11v-2h21.8v2c-6.7 0-7.7 8.9-7.7 16.6V220H105l-50-55v41.2c0 6.3 1.2 9.4 7.6 11.2 2.6.7 5.3.6 5.3.6v2H43v-2c9.6 0 9.1-10 9.1-17.3v-46.5c0-6.1 1.4-13.2-9.1-13.2v-2z"/>
    <circle cx="284.8" cy="245.8" r="13"/>
</svg>