<svg viewBox="0 0 400 350">
    <path d="M395.7 230.3l.2 51c-.3 19.4-1.6 29.2-1.6 29.2l-20.7 3.4c-20.2 3.9-42 6.9-77.4 10.9-17.6 2-70.1 9.9-71.5 10-1.4 0-5.6 1.2-9.5 2.5-5.5 1.9-9 2.5-16.5 2.5-8.4 0-10.3-.4-15.8-2.9-5.9-2.8-6.3-3.1-5.6-5.5.4-1.4.9-57.4 1.1-124.4l2.1-120.3c7.1 6.4 24 5.9 36.2-1.1 2-1.1 3.5-1.8 6-2.3.7 5.7-3.7 7.8-9.2 11.5-2.7 1.8-4.6 3.5-4.3 3.7.3.3 3.3-1.3 6.6-3.8 3.4-2.4 6.4-4 6.7-3.8 1.1 1.2-2.4 7-6.9 11.5-2.6 2.6-4.3 4.7-3.7 4.7.7 0 3.3-2.3 6-5.2l4.8-5.2v3.4c0 3.7-2.4 7.7-8 13.1-2 2-2.6 2.9-1.4 2.3 1.1-.5 3.6-2.5 5.3-4.1 1.8-1.8 3.4-3.2 3.5-3.2s0 2.3-.4 5.1c-.5 3.8-1.6 6.3-4.6 10.2l-3.9 5 3.2-2.4c1.8-1.3 3.7-3.2 4.3-4.1.8-1.5.9-1.3 1 .8 0 2.9-2.9 8.4-6.9 12.8-2.2 2.6-2.3 2.8-.5 1.9 1.2-.7 3.4-2.6 4.8-4.5l2.6-3.2v3.1c0 2.2-1.3 4.8-4.5 8.6-5.1 6.2-5.1 8.6.1 2.7 1.9-2.1 3.6-3.8 3.9-3.8s.5 1.2.5 2.8c0 1.8-1.5 4.7-4.1 7.8-2.3 2.8-3.9 5.3-3.6 5.6.2.3 2.1-1.5 4.1-3.8l3.6-4.5v3.4c0 2.5-1.1 4.6-4.6 8.4-2.6 2.9-4.1 5.2-3.4 5.2s2.8-1.7 4.6-3.7c3.1-3.4 3.4-3.5 3.4-1.3 0 1.6-1.7 3.9-4.7 6.7-2.7 2.4-4.5 4.7-4 5.2.4.4 2.5-1 4.7-3.2l4-4v3.7c0 2.9-1 5.1-4.6 9.5-5.2 6.6-4.8 7.7.8 2l3.8-3.8v3.5c0 2.6-1.1 5.1-4 8.8-4.7 6.1-4.3 7.9.6 2.4l3.4-3.9v4c0 3.3-.8 5-4.6 9.3-5.6 6.5-5.2 8.2.5 2.3l4.1-4.2v4.2c0 3.7-.7 5-5.7 10.4-6.5 7-5.5 8.4 1.2 1.5l4.5-4.6v3.8c0 3-1 5.2-4.5 9.7-2.5 3.3-5 6-5.5 6-.6 0-1 .5-1 1.1 0 1.7 4.9-1.8 8.2-5.7l2.7-3.2.1 4.9c0 4.8-.3 5.3-6.2 11.2-7.1 7.3-6.1 8.5 1.2 1.5l5-4.9v3.2c0 2.5-1.3 4.8-6.1 10-6.9 7.7-6.4 9.1.8 2.1 2.5-2.6 4.7-4.7 4.8-4.7l-.5 5.8c-.6 5.3-1.1 6.3-5.1 9.9-4.6 4.4-3.7 4.4 1.9.1l3.2-2.5v2.7c0 2.9-2.4 7.3-6.8 12.1-1.4 1.7-2.1 2.9-1.5 2.9s2.8-2 4.8-4.5l3.8-4.4-.6 4.7c-.5 3.9-1.3 5.4-5.7 9.5-2.8 2.8-4.8 5-4.3 5 1.4 0 8.3-5.2 8.3-6.2 0-.6.5-1 1-1 .6 0 1 1.5 1 3.3 0 2.5-1 4.2-4.6 7.8-5.6 5.6-5.3 6.8.4 1.8l4.2-3.7v4c0 4.4-2.7 7.9-8.5 11-2.4 1.3-2.6 1.7-1 1.8 1.1 0 3.7-1.1 5.8-2.6 3.6-2.6 3.7-2.6 3.7-.5 0 3.8-2.7 7.7-7.4 10.8-2.6 1.7-4.4 3.2-4.2 3.4.6.6 8.3-3.5 9.1-4.9 1.1-1.9 2.5-1 2.5 1.5 0 3-5.7 8.3-10.7 10-1.8.6-3.3 1.5-3.3 2 0 1.5 8.6-2 10.6-4.2 2.6-3 3.6-2.4 3.2 2-.3 3.5-.8 4-6 6.9-3.2 1.7-5.8 3.4-5.8 3.8 0 1.1 8.2-2.1 10.2-4 1.7-1.6 1.8-1.6 1.8 0 0 1 .4 1.8.9 1.8 1.5 0 2.2-15.7 1.9-43-.2-14.3.1-65.7.6-114.2V83.6c2.3-.3 5.4-.6 10.1-.8 20.7-1.3 27.5-2.2 99-13 31.3-4.8 61.6-10.9 61.6-10.9l.5 91.4.4 70c1.2-15.9 2.8-143.1 2.6-153.1-.2-7.5-.8-15.9-.8-15.9l-17.8 3-.4-19.7-4.2 2.5-1-9.5-4.3 3.1c-5.3 3.9-22.2 11.6-22.2 11.6l.9-9c.6-5.4.4-10.6.4-10.6s-3.5 1.8-5.6 3.1-6.5 4.4-6.5 4.4l.8-11.6s-6.4 3.6-13 7.9c-3.8 2.6-7.8 4.4-7.8 4.4s.4-3.7.8-6c1.6-10.8 1-15.4 1-15.4l-7.3 6.9.7-6.4c.3-3.1 0-5.7 0-5.7s-5.5 3.8-9.8 7.2c-.1-1.2-.4-7.2-.4-7.2s-2.8 1.9-5.6 4.1c-6.2 5-17.4 10.4-33 15.9-15 5.3-25.5 10.5-37 18.4-11 7.5-18.1 14.3-23.3 22.4l-3.9 6.1-.6-5.5C197 52 183.1 39.9 160.7 32.8c-17.5-5.5-35-7.5-64.5-7.5-21.5 0-30.7-1.1-40.3-4.9L50 18s.2 2.4.5 4.9c.3 3 .3 5 .3 5-2.1 0-10.9-4.8-12.8-6.1 0 0-.1 1.5-.1 4.6 0 3-.1 4.9-.1 4.9s-5.6-2.1-7.3-3c-.9-.5-3.4-2.4-3.4-2.4L28.4 36l-5.3-2.8-3.4-2v3.6c0 2-.1 3.5-.1 3.5L13 34.7v4.8 4.3l-3-1.5c-1.7-.9-3.6-1.5-3.6-1.5l.9 5.4c.3 1.7.4 4 .4 4L2 53l-.6 100.4.3 116.9c.5 9.1-.1 42.8-.1 42.8s37.8 1.5 80.6 7.7l86.6 12.5c1.6 0 .9-2.9-.8-3.4-4.1-1.1-20.4-3.7-44.8-7.1l-51-7.5c-31.1-4.9-67-5.9-67-5.9l-.5-87.6c-.6-21.5-.8-60.1-.4-99.8L5 57.1l3.1.7c1.7.3 9.4 1.5 17.1 2.5l26.8 4c7 1.1 23.9 3.4 37.5 5 26.5 3.3 86.3 13.8 86.3 13.8l-.5 98.7-1 125.7-.1 27.7 3 3.1c3.2 3.4 9.4 5.5 19 6.5 6.6.6 15.3-1.2 21.4-4.5 4.9-2.6 40.7-8 109.1-16.5l71.8-9.2-2.8-84.3zM377.5 38.8s.2 3.8.2 7.9v7.4S354.1 60 332.1 64c-46.3 8.3-73.9 12.7-91.4 14.3-18.6 1.8-20.7 1-7-2.3 12.1-2.9 20.7-4.4 59.2-10.2 20.2-3 26.2-4.3 40.8-9 20.6-6.6 30.8-10.6 37.5-14.4l6.3-3.6zm-4.8-7.3l.5 6c-2.7 2-11.2 6.3-23.5 11-26.2 10-29.5 10.8-74.1 18-38.4 6.1-42.8 6.9-49.2 9.4-5.9 2.3-4.5.8 2-2.1 9.6-4.3 27.4-8.3 51.6-11.4 26-3.4 35.6-5.7 55.4-13.1 17.8-6.7 30.4-12.9 37.3-17.8zm-32.8-1.6c3.7-2.8 7.3-4.7 7.3-4.7s-.4 4.5-1 9.2l-1 8.6-10 4.3c-13.6 5.7-25.4 8.5-48.6 11.5-27.7 3.6-41 6.1-49.7 9.1-1.3.5-1.5.4-.8-.4 1.9-2.1 14.7-6.2 27.3-8.8 36.1-7.2 55.6-13 76.5-28.8zm-12.2-3.3c3.4-2.4 8-4.8 8-4.8l-.9 9.1c-6.7 5.9-20.3 12.1-32.8 16.3-5.1 1.7-17.2 4.6-26.9 6.6-22.7 4.5-34.2 8.2-48.2 15.5-6.2 3.3-12.2 5.9-13.5 5.9s.1-1 3.6-2.4c3.2-1.3 9.3-4.7 13.6-7.6 10-6.5 17.8-9.7 37.6-15.5 8.8-2.5 19.2-5.7 23-7 11.5-3.7 31.7-12.7 36.5-16.1zM317 13.3l-1.2 11.2c-.2 2.6-1.1 6.7-1.1 6.7s-2.7 1.4-4.5 2.2c-4.2 1.8-25.8 9.3-49.1 16.4-9.6 3-18.4 6.5-24.5 9.8-13.3 7.1-30.3 15.7-31.2 15.7-2.4 0 0-1.9 6-4.7 3.7-1.7 10.5-6.4 15.2-10.3 10.5-8.8 22.4-14.8 46-23 18.5-6.5 30.8-12.5 38.7-19 2.7-2.1 5.7-5 5.7-5zM214.2 55.5c13.8-12.6 34.7-24.6 54.2-31.1 14.7-4.8 21.6-9 28.3-13.7 1.9-1.3 4-3.1 4-3.1v5l-.9.7c-7.3 5.5-27.6 15.9-46.1 23.6-9.4 3.9-23.8 11.3-29 14.8-2.5 1.7-8.5 6.8-13.4 11.4s-9.1 8.1-9.3 7.9c-1-1.1 5.9-9.7 12.2-15.5zM204.6 71c2.1-1.4 7.5-5.9 11.8-10 9.7-9 17.5-13.7 36.3-21.8 25.2-10.7 44-21.2 52.7-28.2l5.2-4.2s0 2.7-.4 5.5c-.3 2-.8 4.7-.8 4.7s-1.9 1.8-3.2 2.9c-5.4 4.1-19.7 10.6-39 17.9-25.8 9.7-30.5 12.3-46.6 25.4-4.9 4-18.7 11.6-19.6 10.7-.2-.1 1.4-1.5 3.6-2.9zm-1 5.5c9.7 1.9 14 4.3 8.6 6.3-8 3-20.3 3.2-25.1.8-2.1-1-4.3-3.4-1.9-4.3 8-3 15.7-3.3 18.4-2.8zm-23.1-8.4c-5.1-5.3-10.3-9.6-13.5-11.2-6.8-3.4-19.3-6.9-39-11.1-17-3.6-15.7-4.5 2.7-1.9 25.2 3.5 44.6 10.2 52.7 18.3 4.8 4.8 8.2 11.6 6.5 13.3-.8.8-3.3-1.1-9.4-7.4zM52.3 21.3c.1 0 1.9.7 3.9 1.6 7.9 3.3 18.6 4.4 45 4.9 20.4.3 28.5.8 37.6 2.4 28.5 5.1 45.5 12.7 52.8 23.8 1.7 2.6 3.1 5 3.1 5.5 0 .4-2.6-1.8-5.9-5-16.6-16.4-40.6-21.9-104.1-24.2-15.1-.5-28.5-1.2-29.7-1.6-.7-.2-2.1-.7-2.1-.7s-.2-2-.4-3.3c-.2-1.9-.3-3.4-.2-3.4zm-12.6 4.3l4.8 2.3c2.6 1.3 7.6 2.8 11.2 3.4s20 1.5 36.5 2c52.5 1.6 72.2 5.4 88.8 17.3 9 6.4 14.7 14.4 14.7 20.6 0 3.5-1.7 5.1-2.6 2.4-2-6.2-4.4-10-8.8-13.9-6.4-5.5-18.1-11.7-26.4-13.9-11-2.8-39.9-6.4-63.7-8C65 35.9 59 35.4 49.4 33.7c-5.5-.9-9.6-2.3-9.6-2.3s-.1-1.6-.1-3v-2.8zm-1.9 8.1c3.1.9 10.1 2.3 15.5 3l16.8 1.9-19.1-.4c-15.8.2-20.5-2.1-20.5-2.1-.4-1.8-1.1-6.1-1.1-6.1s5.3 2.8 8.4 3.7zm-16.7.5s3.7 2.8 7 3.6c3.5.9 11.6 2.5 27.9 2.5 23.8 0 40.2 1.4 62.8 5.5 14.6 2.6 31.8 7 41 10.5 5.4 2 15.3 7.9 14.5 8.6-.2.3-3.3-.9-6.8-2.6-7.9-3.6-41-12.4-56.8-14.9-14.6-2.4-32.3-3.9-61.1-5.1C23.3 41.2 21 38.5 21 38.5l.1-4.3zm-6.4 4l3.1 1.6c1.7.9 6.3 2.3 10.2 3.1 4.4.9 15.9 1.7 29.7 2 34.3.8 59.9 4.5 92.2 13.3 12 3.3 26.8 9 26.8 10.4 0 .2-4-.7-8.8-1.9-10.3-2.6-62.6-10.8-78.7-12.3L54 51.3c-21.2-1.8-26.3-2.7-36.6-5.7-.9-.3-2.7-1.3-2.7-1.3v-6.1zm74.2 25.7c-11.6-2.9-27.2-5.6-46.7-8.1-28-3.5-32.8-5.5-32.8-5.5l-1-7.1 4.7 2.5c2.6 1.4 7.9 3.2 11.9 4 4 .9 19.6 2.5 34.7 3.6 31.1 2.3 32.9 2.5 68 8 34 5.4 45.9 8.1 52.2 12.1 3.6 2.3 4.6 3.4 3.6 4-1.5.8-85.1-11.1-94.6-13.5zm262 16.4c-10.3 12.9-21.8 29-20.8 29 .2 0 4.5-5.5 9.4-12.3l14.7-19.2c5.3-6.6 8-10.5 7.2-10.5-.1 0-4.9 5.8-10.5 13zm15.6 9.3l-25.9 34.2c-5 6.6-7.4 10.2-5.3 7.9 8.4-8.9 50.1-64.5 48.2-64.4-.2 0-7.8 10.1-17 22.3zm-8.2-5.6c-13.9 16.7-34 44.3-32.2 44.3.2 0 4.2-5.3 8.7-11.8 8.7-12.4 15.1-20.6 25.9-33.7 8.2-10 9.4-11.5 8.8-11.5-.3 0-5.3 5.7-11.2 12.7zm-23.2-5.5c-11.2 14.4-21.6 29-18.7 26.3.6-.6 5.9-7.5 11.8-15.5L340 73.5c.5-.6.7-1.2.5-1.2-.3 0-2.7 2.8-5.4 6.2zm.4 10.5c-12.3 16.5-18.2 25.3-16.1 24 .5-.3 3.4-4.1 6.3-8.4l13.5-18.8c8.6-11.7 9.8-13.5 9.2-13.5-.2 0-6 7.5-12.9 16.7zm47.9-9c-2.4 3.2-6.8 9.4-9.7 13.8s-9.9 14.2-15.4 21.8c-14.5 19.9-17.8 24.7-16.9 24.6.9 0 29.4-39.4 35.3-48.7 2.2-3.5 5.8-8.8 8-11.8 2.3-3 3.9-5.4 3.6-5.4s-2.5 2.6-4.9 5.7zm-57.8 1c-2 2.1-4.6 5.4-5.8 7.3l-2.3 3.5 3.1-3.5c4.6-5.1 9.3-11 8.9-11-.2 0-2 1.7-3.9 3.7zm59.1 11.6c-18.7 25.1-29.5 40.7-32.5 46.7-2.6 5.2-.7 2.8 8.8-11.2s17-24.6 23-32.6c2.2-2.9 3.8-5.5 3.5-5.7-.2-.3-1.5 1-2.8 2.8zm-5.7 20.5c-10 15.7-15.6 25.2-15.1 25.7.2.2 2.6-3.3 5.3-7.8 2.6-4.5 7.9-13.1 11.8-19 3.8-6 6.7-11 6.5-11.3-.3-.2-4.1 5.4-8.5 12.4zm6.4 3.1l-9.2 13.5c-3 4.4-5.5 8.4-5.5 9 0 .9 12.4-16.7 17.4-24.5 3.3-5.4 1.2-3.8-2.7 2zm.2 10.4c-3.4 5.4-7.1 12.7-6.4 12.7.2 0 1.4-1.9 2.6-4.3 1.2-2.3 3.5-6.1 5.1-8.5 1.6-2.3 2.5-4.2 2.1-4.2s-2 1.9-3.4 4.3zM234.8 303.9c0 6.5.4 14.1.8 16.9.4 2.7.5-2.4.3-11.5l-.8-16.9c-.2-.2-.4 4.9-.3 11.5zm-4.9 5.4c0 5.8.3 12.3.7 14.5.9 4 .9 4 .9-1.5 0-3-.3-9.6-.7-14.5l-.8-9-.1 10.5zm11.9-3.9c-.1 7.8.9 18.9 1.8 18.9.6 0-.4-19-1.3-23.5-.2-1.1-.4 1-.5 4.6zm7 5.6c0 5.2.3 9.5.9 9.8 1.2.7 1.2-6.6 0-14-.7-4.5-.7-4.1-.9 4.2z"/>
    <path d="M254.7 313.4c0 3.5.5 7.1 1 7.9.8 1 .9-.8.4-6-.8-9.4-1.4-10.2-1.4-1.9zm6 1.3c0 1.9.3 3.7.8 4 .4.2.6-1.3.4-3.5-.5-4.8-1.2-5.1-1.2-.5zM369 245c-9.1 13.4-14.8 23.3-17.3 29.9-1.8 4.8 0 2.3 3.6-4.8 2-4 8-14 13.4-22.3 10.8-16.7 11.3-17.5 10.8-17.5-.2 0-4.9 6.6-10.5 14.7zm-4-5.5c-5.6 7.7-6.8 9.7-3.8 6.3 3.2-3.7 8.8-11.5 8.1-11.5-.2 0-2.1 2.4-4.3 5.2zm10.9 6.5l-28.1 49.3c-1.1 2.4-1.1 2.4.3.6 1.5-1.9 1.6-1.7 1.6 2.2 0 2.5.5 4.2 1.1 4.2.8 0 1-1.7.7-5.2-.5-5.2-.4-5.6 8.2-20.3l14.9-26 6.1-11-.2 15.3c-.2 8.3 0 15.2.5 15.2.4 0 .7 4 .6 8.9-.1 4.8.1 9.3.5 9.9s-.1 2.6-1 4.4c-1.6 3-1.6 3.2-.1 1.9 1.5-1.2 1.7-1 1.7 2.3 0 2.4.4 3.5 1.1 3 .7-.4.9-3.1.5-7.8-.4-3.9-.9-15.2-1.2-25.1-.3-9.8-.7-18.1-1-18.4-.2-.2-.4-2.4-.4-4.7 0-2.4-.4-4.5-.9-4.9-.6-.3-2.7 2.5-4.9 6.2zm-1.3 19.3c-3 5.5-4.8 7.9-5.7 7.5-1-.3-1.2 0-.8 1 .3.8-.3 3-1.4 4.8-1.1 1.7-2 2.8-2 2.3s-1.7 2.4-3.7 6.4l-3.8 7.2-.3-3.6c-.5-6.2-2-3.9-2.4 3.6-.4 8.5 0 11.7 1.3 9.6.5-.7.9-2.5.9-3.9 0-2.7 4.3-11.3 6.2-12.5 1.2-.8.6 11.1-.7 14-.6 1.4-.5 1.7.3 1.2s1.2.1 1.2 1.5c0 1.5.4 1.9.9 1.3 1.2-1.1 1.4-10.1.6-16.9-.6-4.1-.4-5.4 1.2-7.4l2-2.4.7 4.2c.4 2.9.2 5-.9 7.1-1.8 3.6-1.9 5.1-.1 2.7 1.2-1.5 1.4-1 2 4.3 1 8.9 2.6 7.4 1.9-1.8-.5-7-.3-8.2 2-12.7l2.6-5v6.5c0 4.2-.5 7.2-1.4 8.4-.8 1.1-1.5 2.7-1.5 3.5.1 1.1.5.8 1.4-.8 1.3-2.3 1.3-2.2 2.1 2l.9 4.4.6-7c.3-3.9 1-7.9 1.5-8.9.6-1.3.5-1.7-.2-1.3-1.4.9-2.3-7.9-1.1-11.1.5-1.5.4-2.1-.2-1.7-1.4.8-1.3-9.1.1-11.7.6-1.1.8-2.2.6-2.4-.3-.3-2.4 3.1-4.8 7.6zm-.6 15.2l-2.8 5.1-.8-4.4c-.7-3.9-.4-5.1 2.5-10.4l3.3-6 .3 5.3c.2 4.2-.2 6.2-2.5 10.4zm-52.8-134.6c-7.6 1.9-13.7 5.4-20.3 11.8-16.5 15.9-18.8 40.5-5.6 58.8 1.9 2.7 3.4 5.2 3.4 5.6 0 .5-1.1 1.9-2.5 3.2-2.2 2.1-2.7 2.2-5.5 1-1.7-.7-4.8-1-7.2-.7-3.9.5-5.7 2.1-23 19.4-18.5 18.6-18.8 19-18.8 23.2 0 8.3 4.8 13.1 13.1 13.1 4.2 0 4.6-.3 23.1-18.7 20.4-20.3 21.2-21.6 18.8-29.5-1.1-3.9-1-4.2 1.4-6.7 1.9-1.9 3-2.3 4-1.6 10 7.4 17.6 10.5 27.6 11.2 13.7 1.1 25.9-3.8 35.9-14.1 7.1-7.5 10.5-14.2 12.3-24.4 2.4-14-1.9-27.5-12.2-38.6-11.4-12.2-27.9-17-44.5-13zm22 2.9c12.7 3.4 23 12 28.8 24.2 3 6.3 3.2 7.6 3.2 17.4 0 10.1-.1 10.8-3.7 18-8.4 17-23.5 25.9-41.8 24.6-13-.9-22.3-5.7-30.9-16.2-6.2-7.5-8.6-15.1-8.6-27 0-9.3.2-10.5 3.4-17.2 8.9-19 29.6-29 49.6-23.8zm-51 82.1c1.8 2 2.5 3.8 2.5 6.8 0 3.9-.6 4.6-18.3 22.3-17.6 17.6-18.4 18.3-22.3 18.3-2.2 0-4.9-.7-6.2-1.5-2.4-1.7-4.1-6.7-3.4-10.1.2-1.2 8.6-10.3 18.6-20.3 17.9-17.8 18.3-18.1 22.5-18.1 3.3 0 4.7.6 6.6 2.6zm-268.8-89c-1.2 1.6-.7 2.8 1.3 2.8h2l.8 32-2-.1c-1.3-.1-2 .6-2 1.6-.1 1.4 1 1.8 5.4 2 4.3.2 5.6-.1 5.7-1.3 0-.9-.7-1.9-1.7-2.2-1.1-.2-2-.2-2-.2l-.9-28.4 13.7 32 5.3.2-.1-17.1v-18.5h2.2c1.3 0 2-.6 1.9-1.5-.2-1-2.2-1.4-6-1.5-3.8 0-5.8.4-6 1.4-.3 1.1.4 1.5 2 1.5h2.5l-.6 29.4c-.6-1.7-5-10.8-7.4-17.6l-5.6-14.5-4-.4c-2.1-.3-4.2 0-4.5.4zm35.3 13.5c-2.9 1.5-4.4 5.7-3 8 .7 1 1.9 1.5 2.6 1.2 1.7-.9 2.1-5.1.7-6-.6-.3.1-1 1.4-1.4 2.9-1 5 .5 5.3 3.6.3 2.8-1.6 5.3-5.3 7.3-4.2 2.2-6.3 4.9-6.4 8.1-.3 6.1 6 8.3 9.6 3.3 1.5-2 1.6-2 3.4.9 1 1.6 2.5 3 3.3 3.1 2.2.1 5.1-4.4 5.3-8.3.3-4.9-.9-4.7-2.2.2-.6 2.2-1.7 3.9-2.4 3.9-1 0-1.3-2.4-1.3-10.3-.1-8.6-.3-10.7-1.9-12.5-1.9-2.3-5.9-2.8-9.1-1.1zm5.1 20.6c-2 2.8-4.6 3.5-5.6 1.4-1.2-2.1-.4-3.5 3.6-6.8l3.3-2.7.1 2.9c0 1.7-.6 4-1.4 5.2zm13.8-31.2c-.3.7.4 1.7 1.6 2.5l2.2 1.1-1.5 30.9s-.6.4-2.4.7c-4.4.6-1.9 2.6 3.6 2.9 3.3.2 5.9-.2 5.9-.9s-.7-1.3-1.7-1.3c-1.4-.1-1.8-.9-1.6-4.1.2-3.7 1.6-7 3.2-6.9.3 0 1.7 2.9 3 6.3 2.6 6.5 5.2 9.1 8.2 8.1 2.6-.7 2.1-3.5-.7-4.4-2.4-.7-7.1-9-6.9-12.1.1-1.7 6.3-8.5 8.2-9 1-.1 1.8-1 1.8-1.6-.2-1.9-10.4-1.8-10.9 0-.3.9.2 1.6 1.1 1.6 1.3 0 1 .9-1.7 4.3-1.8 2.3-4.2 4.3-4.6 4.3l1.1-23.5H82c-2.2-.1-4.1.5-4.4 1.1zm28.9 13.8c-3.9 4.3-5.4 12.7-3.3 18.9 1.5 4.9 6.5 8.5 10.5 7.6 3.5-.8 7.5-5.9 6.8-8.8-.4-1.8-.8-1.7-2.7 1.2-4.2 6.3-11.5 2.5-11.1-5.7.1-2.8.4-2.9 7.9-2.6l7.8.3-.4-3.6c-.3-1.9-1.7-5-3.2-7.1-3.5-4.8-8.1-4.9-12.3-.2zm9.5 1.8c3.2 4.7 2.2 6.4-3.7 6.3-5.8-.2-6.4-1.5-2.8-6 2.6-3.6 4.2-3.7 6.5-.3zm22.2-15.6c-1.5 1.8-.9 3.1 1.6 3.1 2.3 0 2.5.6 2.2 6.2-.3 5.8-.4 5.9-2 3.9-2.6-3.3-7.4-2.9-10.6.9-8.2 9.8-2.6 31.3 7 26.7 1.7-.8 3-2.2 3.1-3s.7-.4 1.4.9c1.3 2.6 7.6 3.7 7.7 1.4 0-.8-.7-1.4-1.5-1.4-1.2-.1-1.4-3.4-.7-19.5l.7-19.3-4.1-.4c-2.3-.3-4.4 0-4.8.5zm1.4 16.4c2.6 4.1 2 15.8-1 19.3-2.6 3-4.5 3.1-6.4.2-3-4.4-2.5-15.5 1.1-20.1 2.3-3.1 4-2.9 6.3.6zM37.5 204.7c0 1.1.7 1.8 2 1.8l2.1.1-.2 14.9c-.2 14.7-.2 15-2 14.8-1.3-.1-1.9.4-1.9 2 0 2 .6 2.2 8.5 2.3 8.9.1 13.2-1.4 14.2-5 1.1-4.1.4-8-2-11.5s-2.4-3.7-.8-5.5c.9-1.1 1.6-3.6 1.6-6 0-3.2-.5-4.5-2.7-6.4-3.6-3.4-18.8-4.4-18.8-1.5zm16.6 4.5c3.4 4.4.7 9.9-4.9 9.6l-3.6-.2v-5.9-5.9l3.5.1c2 .1 4.1 1 5 2.3zm.2 15.9c3.9 4.5 2.2 11.9-2.7 11.6-1.2-.1-3.1.1-4.1.4-1.8.6-1.9.3-1.9-7.2v-7.8l3.2.2c2.1.1 4.1 1.2 5.5 2.8zm14.3-9.5c-5 2.8-6.8 13.1-3.6 20.7 3.3 7.7 9.9 9.2 14.5 3.2 2.5-3.3 3-4.9 3-9 0-6.5-2-12-5.3-14.5-3.2-2.4-4.8-2.4-8.6-.4zm8.1 4.9c.8 1.5 1.4 5.3 1.4 8.4 0 7-1.9 10.9-5.2 10.6-1.4-.1-3-.9-3.5-2-1.4-2.4-2.2-9.7-1.5-13.4 1.3-6.7 6.3-8.8 8.8-3.6zm14.5-3.8c-5 3.3-6.7 9.5-5.1 17.9 1.6 8.3 8.6 12.7 14.6 9 3.2-2 4.8-6.4 4.8-13.6-.1-10.6-7.9-17.8-14.3-13.3zm8.2 4.7c1.1 1.7 1.6 4.5 1.6 8.9 0 7.9-2 11.4-6.1 10.6-2.3-.4-3-1.5-4-5.3-3.2-11.5 3.2-22.3 8.5-14.2zm7.9-14.8c0 .6.9 1.4 2.2 1.7 2.1.5 2.1.8 2.1 16.9 0 16.2 0 16.5-2.2 16.7-4.2.6-1.4 3.2 4 3.7 5.5.7 8.3-.9 4.5-2.5-2.7-1.1-2.8-8.2-.3-10.2 1.5-1.2 2.2-.4 4.9 5.8 2 4.5 4 7.5 5.6 8.1 3.1 1.3 5.4.3 5.4-2.3 0-1.2-.4-1.7-1-1.4-1.6 1.2-4.8-2-7.8-8.2l-2.9-5.7 3.6-4.5c2.1-2.5 4.7-4.4 5.9-4.3s2.2-.5 2.2-1.2c0-.8-2.8-1.4-6.4-1.6s-6.3.2-6.3 1c0 .6.7 1.3 1.5 1.4 2.2.1 1.7 1.6-2.5 6.1l-3.8 4V218v-12.2l-4.3-.2c-2.5-.1-4.4.3-4.4 1z"/>
</svg>