<svg viewBox="0 0 26 26">
<path d="M22.1,0H3.9C1.8,0,0,1.8,0,3.9v18.2C0,24.2,1.8,26,3.9,26h18.2c2.1,0,3.9-1.8,3.9-3.9V3.9C26,1.8,24.2,0,22.1,0z M19.3,16.2
    c-0.1,0.8-0.1,1.6-0.3,2.4c-0.5,2.2-2,3.5-4.2,3.8c-1.7,0.3-3.4,0.2-5.1-0.6c-1.4-0.7-2.2-1.7-2.3-3.3H9c1.1,2.5,4,3.4,6.4,2.2
    c1.1-0.6,1.6-1.6,1.8-2.8c0.2-0.9,0.2-1.9,0.3-2.9c-0.2,0.3-0.5,0.5-0.8,0.8c-0.6,0.5-1.4,0.9-2.2,1.1c-2.5,0.7-5.7-0.4-6.9-2.9
    c-1.1-2.4-1.1-4.9-0.1-7.3c1.6-3.7,7.2-5,9.9-1.1V3.7h1.8l0,0C19.3,7.4,19.3,11.6,19.3,16.2z M15.1,5.1C14.9,5,14,4.6,13,4.7h-0.1
    C11,4.7,9.4,6,8.8,8.2c-0.4,1.5-0.4,3,0.2,4.5c0.6,1.8,2,2.9,3.8,3h0.1h0.6c1.2-0.1,2.1-0.7,2.3-0.8c0.7-0.5,1.2-1.2,1.6-2.1l0,0
    c0.5-1.5,0.5-3,0.1-4.5C17.1,6.8,16.2,5.7,15.1,5.1z"/>
</svg>