<svg viewBox="0 0 26 26">
<path d="M18.7,12.1c-0.1-0.1-0.2-0.1-0.3-0.2c-0.2-3.6-2.2-5.7-5.5-5.7c0,0,0,0,0,0c-2,0-3.6,0.8-4.7,2.4L10,9.9
	c0.8-1.2,2-1.4,2.8-1.4c0,0,0,0,0,0c1.1,0,1.9,0.3,2.5,0.9c0.4,0.5,0.6,1.1,0.8,1.9c-1-0.2-2-0.2-3.1-0.2c-3.2,0.2-5.2,2-5,4.6
	C8,17,8.6,18.1,9.7,18.8c0.9,0.6,2.1,0.9,3.4,0.8c1.7-0.1,2.9-0.7,3.8-1.9c0.7-0.9,1.1-2,1.3-3.4c0.8,0.5,1.4,1.1,1.7,1.9
	c0.5,1.3,0.6,3.4-1.1,5.1c-1.5,1.5-3.3,2.1-6,2.2c-3,0-5.3-1-6.8-2.9c-1.4-1.8-2.1-4.3-2.1-7.6c0-3.3,0.7-5.8,2.1-7.6
	c1.5-1.9,3.8-2.9,6.8-2.9c3,0,5.4,1,6.9,2.9c0.8,0.9,1.3,2.1,1.7,3.5l2.1-0.6c-0.5-1.7-1.2-3.1-2.1-4.3c-2-2.4-4.9-3.7-8.6-3.7h0
	C9.1,0.3,6.2,1.6,4.3,4c-1.7,2.2-2.6,5.2-2.6,9l0,0l0,0c0,3.8,0.9,6.8,2.6,9c1.9,2.4,4.8,3.7,8.5,3.7h0c3.3,0,5.6-0.9,7.6-2.8
	c2.5-2.5,2.4-5.7,1.6-7.6C21.4,13.9,20.2,12.8,18.7,12.1z M13,17.4c-1.4,0.1-2.8-0.5-2.9-1.9c-0.1-1,0.7-2.1,3-2.2
	c0.3,0,0.5,0,0.8,0c0.8,0,1.6,0.1,2.3,0.2C15.9,16.8,14.3,17.4,13,17.4z"/>
</svg>
