<svg viewBox="0 0 26 26">
    <path d="M21.1,5.9c-0.2-0.1-0.3-0.2-0.5-0.3c-0.5-0.3-0.9-0.7-1.3-1.1c-0.9-1.1-1.3-2.2-1.4-2.9h0c-0.1-0.6-0.1-1-0.1-1h-4.3v16.6 c0,0.2,0,0.4,0,0.7c0,0,0,0.1,0,0.1c0,0,0,0,0,0c0,0,0,0,0,0c-0.1,1.2-0.8,2.3-1.8,2.9c-0.5,0.3-1.2,0.5-1.8,0.5 c-2,0-3.6-1.6-3.6-3.6S8,14,10,14c0.4,0,0.8,0.1,1.1,0.2l0-4.4c-2.2-0.3-4.4,0.4-6.2,1.8c-0.7,0.6-1.4,1.4-1.8,2.3 c-0.2,0.3-0.9,1.6-0.9,3.6c-0.1,1.2,0.3,2.4,0.5,2.9v0c0.1,0.3,0.5,1.3,1.2,2.1c0.5,0.7,1.2,1.3,1.9,1.8v0l0,0 c2.1,1.4,4.4,1.3,4.4,1.3c0.4,0,1.7,0,3.3-0.7c1.7-0.8,2.6-2,2.6-2c0.6-0.7,1.1-1.5,1.4-2.4c0.4-1,0.5-2.2,0.5-2.7V8.9 c0.1,0,0.7,0.5,0.7,0.5s1,0.6,2.6,1.1c1.1,0.3,2.6,0.4,2.6,0.4V6.5C23.3,6.6,22.2,6.4,21.1,5.9z"/>
</svg>