<svg viewBox="0 0 50 50"><path d="M42.9 40.9c-20.2 9.6-32.7 1.6-40.7-3.3-.5-.3-1.3.1-.6.9C4.3 41.7 13 49.6 24.5 49.6c11.4 0 18.3-6.2 19.1-7.3.8-1.2.1-1.8-.7-1.4h0zm5.7-3.2c-.6-.7-3.3-.8-5-.6s-4.4 1.2-4.1 1.9c.1.2.3.1 1.5 0s4.6-.6 5.3.3-1 5.3-1.4 6c-.3.7.1.9.7.4s1.7-1.7 2.4-3.4c.6-1.6 1-4 .6-4.6h0zM40.9 31c-1.1-1.6-2.5-2.9-2.5-6.1v-10c0-4.3.5-8.2-2.7-11.1-2.5-2.5-6.8-3.4-10-3.4-6.1 0-13.1 2.3-14.5 10 0 .9.5 1.4 1.1 1.4l6.3.7c.7 0 .9-.7 1.1-1.1.5-2.7 2.7-3.9 5.2-3.9 1.4 0 2.9.5 3.6 1.8.9 1.4.7 3.2.7 4.8v.9c-3.9.2-8.6.5-12.2 2-4.1 1.6-6.8 5.2-6.8 10.6 0 6.8 4.3 10.2 9.7 10.2 4.5 0 7-1.1 10.6-4.8 1.1 1.8 1.6 2.5 3.6 4.3.3.3 1.1.2 1.6-.2h0 0c1.4-1.1 3.6-3.2 5-4.3.6-.4.6-1.1.2-1.8zm-12.7-2.9C27 29.9 25.5 31 23.6 31c-2.5 0-3.9-1.8-3.9-4.8 0-5.4 5-6.6 9.7-6.6V21c-.1 2.8-.1 4.8-1.2 7.1z"/></svg>